{"glyphs":{"0":{"ha":850,"x_min":65,"x_max":786,"o":"m 65 525 q 92 740 65 642 q 165 911 118 839 q 279 1024 213 983 q 425 1065 346 1065 q 571 1024 504 1065 q 685 911 638 983 q 760 740 733 839 q 786 525 786 642 q 760 310 786 410 q 685 138 733 211 q 571 24 638 65 q 425 -18 504 -18 q 279 24 346 -18 q 165 138 213 65 q 92 310 118 211 q 65 525 65 410 m 179 525 q 196 358 179 438 q 244 219 213 279 q 322 122 276 158 q 425 86 367 86 q 528 122 482 86 q 606 219 574 158 q 655 358 638 279 q 672 525 672 438 q 655 691 672 613 q 606 830 638 769 q 528 926 574 890 q 425 961 482 961 q 322 926 367 961 q 244 830 276 890 q 196 691 213 769 q 179 525 179 613 z "},"1":{"ha":465,"x_min":13,"x_max":304,"o":"m 189 0 l 189 939 l 13 939 l 76 1047 l 304 1047 l 304 0 l 189 0 z "},"2":{"ha":838,"x_min":51,"x_max":732,"o":"m 421 424 q 513 533 475 486 q 573 620 550 581 q 606 695 596 660 q 617 769 617 731 q 562 906 617 853 q 415 958 507 958 q 262 903 322 958 q 193 742 201 847 l 79 742 q 180 981 93 897 q 414 1064 267 1064 q 546 1042 488 1064 q 646 980 604 1019 q 710 886 688 940 q 732 768 732 832 q 718 667 732 714 q 676 572 704 619 q 603 471 647 524 q 501 353 560 418 l 276 108 l 731 108 l 731 0 l 51 0 l 51 4 l 421 424 z "},"3":{"ha":831,"x_min":82,"x_max":724,"o":"m 82 269 l 194 269 q 261 135 206 183 q 404 88 317 88 q 486 102 449 88 q 551 144 524 117 q 594 210 579 171 q 610 296 610 249 q 553 447 610 392 q 382 501 496 501 l 374 501 l 374 601 l 379 601 q 542 655 490 601 q 593 789 593 708 q 542 915 593 868 q 413 961 492 961 q 282 917 328 961 q 228 790 236 872 l 113 790 q 202 994 128 924 q 411 1065 276 1065 q 528 1046 474 1065 q 622 990 582 1026 q 683 903 661 954 q 706 789 706 851 q 665 646 706 706 q 551 553 625 586 q 675 457 626 521 q 724 294 724 393 q 699 166 724 224 q 632 68 675 108 q 531 6 589 28 q 404 -17 472 -17 q 182 55 269 -17 q 82 269 94 126 z "},"4":{"ha":844,"x_min":19,"x_max":790,"o":"m 19 210 l 19 214 l 661 1106 l 665 1106 l 665 314 l 790 314 l 790 210 l 665 210 l 665 0 l 556 0 l 556 210 l 19 210 m 211 314 l 556 314 l 556 682 q 556 739 556 710 q 558 796 557 768 l 211 314 z "},"5":{"ha":835,"x_min":35,"x_max":739,"o":"m 122 244 q 231 125 172 161 q 372 89 290 89 q 474 109 428 89 q 555 165 521 129 q 608 251 589 201 q 626 357 626 300 q 608 460 626 413 q 556 542 589 507 q 476 596 522 576 q 374 615 429 615 q 277 597 319 615 q 199 540 235 578 l 161 540 l 314 1047 l 731 1047 l 731 939 l 394 939 q 358 822 376 881 q 319 704 339 764 q 394 717 353 717 q 533 690 469 717 q 642 617 596 664 q 713 503 688 569 q 739 357 739 436 q 710 207 739 275 q 631 90 682 139 q 512 13 581 40 q 361 -15 443 -15 q 175 32 257 -15 q 35 171 93 79 l 122 244 z "},"6":{"ha":854,"x_min":72,"x_max":778,"o":"m 72 329 q 102 467 72 400 q 189 614 132 535 l 522 1078 l 606 1015 l 374 690 l 333 636 q 394 665 361 656 q 457 675 426 675 q 578 650 519 675 q 681 579 636 625 q 751 469 725 533 q 778 329 778 406 q 750 196 778 258 q 674 86 722 133 q 562 12 626 39 q 425 -15 497 -15 q 288 12 353 -15 q 176 85 224 39 q 100 195 128 132 q 72 329 72 258 m 426 89 q 521 108 476 89 q 597 159 565 126 q 648 235 629 192 q 667 329 667 279 q 649 425 667 381 q 599 502 631 469 q 523 553 567 535 q 428 572 479 572 q 331 553 376 572 q 254 502 286 535 q 203 425 222 469 q 185 329 185 381 q 203 235 185 279 q 255 159 222 192 q 331 108 288 126 q 426 89 375 89 z "},"7":{"ha":799,"x_min":57,"x_max":804,"o":"m 172 -28 l 81 31 l 617 939 l 57 939 l 57 1047 l 804 1047 l 804 1044 l 172 -28 z "},"8":{"ha":850,"x_min":107,"x_max":743,"o":"m 107 289 q 149 444 107 376 q 275 544 192 511 q 170 642 207 581 q 133 778 133 703 q 156 892 133 839 q 217 983 178 944 q 310 1042 257 1021 q 425 1064 364 1064 q 541 1042 488 1064 q 634 982 594 1021 q 696 891 674 943 q 718 776 718 839 q 681 642 718 701 q 576 546 644 582 q 701 446 660 511 q 743 290 743 381 q 719 168 743 224 q 651 72 694 113 q 550 8 608 31 q 425 -15 492 -15 q 300 8 358 -15 q 199 71 242 31 q 131 167 156 111 q 107 289 107 222 m 221 293 q 238 214 221 251 q 282 149 254 176 q 347 105 310 121 q 425 89 383 89 q 504 105 467 89 q 569 148 542 121 q 614 213 597 175 q 631 292 631 250 q 615 372 631 335 q 570 435 599 408 q 504 478 542 463 q 425 493 467 493 q 347 478 383 493 q 282 435 310 463 q 238 372 254 408 q 221 293 221 336 m 242 778 q 256 705 242 739 q 296 646 271 671 q 354 606 321 621 q 425 592 388 592 q 496 606 463 592 q 555 646 529 621 q 595 704 581 671 q 610 776 610 738 q 595 850 610 817 q 555 907 581 883 q 496 944 529 931 q 425 958 463 958 q 354 944 388 958 q 296 907 321 931 q 256 850 271 883 q 242 778 242 817 z "},"9":{"ha":850,"x_min":72,"x_max":778,"o":"m 72 721 q 100 854 72 792 q 176 964 128 917 q 288 1038 224 1011 q 425 1065 353 1065 q 562 1038 497 1065 q 674 965 626 1011 q 750 855 722 918 q 778 721 778 792 q 752 590 778 654 q 678 457 726 526 l 329 -28 l 244 35 l 468 350 q 489 379 478 364 q 511 410 500 394 q 394 375 450 375 q 275 402 333 375 q 172 476 217 429 q 99 586 126 524 q 72 721 72 649 m 185 721 q 203 626 185 671 q 253 549 221 582 q 330 497 286 517 q 424 478 374 478 q 516 497 472 478 q 593 548 560 515 q 646 625 626 581 q 665 721 665 669 q 647 815 665 771 q 597 891 629 858 q 520 942 564 924 q 425 961 476 961 q 331 942 375 961 q 254 891 286 924 q 203 815 222 858 q 185 721 185 771 z "},"\u0000":{"ha":0,"x_min":0,"x_max":0,"o":""},"\r":{"ha":347,"x_min":0,"x_max":0,"o":""}," ":{"ha":347,"x_min":0,"x_max":0,"o":""},"A":{"ha":953,"x_min":-7,"x_max":960,"o":"m 482 1103 l 486 1103 l 960 0 l 833 0 l 710 296 l 243 296 l 117 0 l -7 0 l 482 1103 m 665 404 l 574 624 q 527 736 550 681 q 481 849 504 792 q 432 735 457 790 q 383 622 407 679 l 290 404 l 665 404 z "},"Á":{"ha":953,"x_min":-7,"x_max":960,"o":"m 482 1103 l 486 1103 l 960 0 l 833 0 l 710 296 l 243 296 l 117 0 l -7 0 l 482 1103 m 665 404 l 574 624 q 527 736 550 681 q 481 849 504 792 q 432 735 457 790 q 383 622 407 679 l 290 404 l 665 404 m 353 1169 l 556 1381 l 656 1315 l 411 1126 l 353 1169 z "},"Ă":{"ha":953,"x_min":-7,"x_max":960,"o":"m -7 0 l 482 1103 l 486 1103 l 960 0 l 833 0 l 710 296 l 243 296 l 117 0 l -7 0 m 290 404 l 665 404 l 574 624 q 527 736 550 681 q 481 849 504 792 q 432 735 457 790 q 383 622 407 679 l 290 404 m 357 1340 q 398 1253 365 1282 q 483 1224 431 1224 q 611 1340 594 1224 l 703 1340 q 633 1186 692 1238 q 482 1135 575 1135 q 333 1188 392 1135 q 265 1340 275 1240 l 357 1340 z "},"Â":{"ha":953,"x_min":-7,"x_max":960,"o":"m 482 1103 l 486 1103 l 960 0 l 833 0 l 710 296 l 243 296 l 117 0 l -7 0 l 482 1103 m 665 404 l 574 624 q 527 736 550 681 q 481 849 504 792 q 432 735 457 790 q 383 622 407 679 l 290 404 l 665 404 m 483 1368 l 707 1188 l 631 1128 l 483 1243 l 336 1128 l 260 1188 l 483 1368 z "},"Ä":{"ha":953,"x_min":-7,"x_max":960,"o":"m 482 1103 l 486 1103 l 960 0 l 833 0 l 710 296 l 243 296 l 117 0 l -7 0 l 482 1103 m 665 404 l 574 624 q 527 736 550 681 q 481 849 504 792 q 432 735 457 790 q 383 622 407 679 l 290 404 l 665 404 m 547 1235 q 570 1288 547 1267 q 621 1308 593 1308 q 674 1287 651 1308 q 696 1235 696 1265 q 673 1182 696 1203 q 621 1161 650 1161 q 569 1182 590 1161 q 547 1235 547 1203 m 272 1235 q 295 1288 272 1267 q 346 1308 318 1308 q 397 1288 375 1308 q 419 1235 419 1267 q 397 1182 419 1203 q 346 1161 375 1161 q 294 1183 315 1161 q 272 1235 272 1204 z "},"À":{"ha":953,"x_min":-7,"x_max":960,"o":"m 482 1103 l 486 1103 l 960 0 l 833 0 l 710 296 l 243 296 l 117 0 l -7 0 l 482 1103 m 665 404 l 574 624 q 527 736 550 681 q 481 849 504 792 q 432 735 457 790 q 383 622 407 679 l 290 404 l 665 404 m 318 1317 l 417 1382 l 621 1169 l 563 1125 l 318 1317 z "},"Ā":{"ha":953,"x_min":-7,"x_max":960,"o":"m 482 1103 l 486 1103 l 960 0 l 833 0 l 710 296 l 243 296 l 117 0 l -7 0 l 482 1103 m 665 404 l 574 624 q 527 736 550 681 q 481 849 504 792 q 432 735 457 790 q 383 622 407 679 l 290 404 l 665 404 m 290 1261 l 676 1261 l 676 1174 l 290 1174 l 290 1261 z "},"Ą":{"ha":953,"x_min":-7,"x_max":990,"o":"m 482 1103 l 486 1103 l 960 0 l 926 0 q 828 -76 853 -40 q 803 -143 803 -111 q 821 -189 803 -172 q 869 -206 839 -206 q 917 -199 894 -206 q 958 -183 939 -193 l 990 -254 q 936 -280 967 -269 q 858 -290 906 -290 q 757 -257 800 -290 q 714 -160 714 -224 q 740 -72 714 -115 q 831 7 765 -29 l 710 296 l 243 296 l 117 0 l -7 0 l 482 1103 m 665 404 l 574 624 q 527 736 550 681 q 481 849 504 792 q 432 735 457 790 q 383 622 407 679 l 290 404 l 665 404 z "},"Å":{"ha":953,"x_min":-7,"x_max":960,"o":"m -7 0 l 475 1088 q 423 1101 447 1089 q 380 1131 399 1113 q 350 1176 361 1150 q 339 1232 339 1201 q 351 1290 339 1264 q 382 1335 363 1315 q 428 1365 401 1354 q 483 1375 454 1375 q 539 1365 513 1375 q 585 1335 565 1354 q 616 1290 604 1315 q 628 1232 628 1264 q 588 1131 628 1171 q 493 1088 549 1092 l 960 0 l 833 0 l 710 296 l 243 296 l 117 0 l -7 0 m 665 404 l 574 624 q 527 736 550 681 q 481 849 504 792 q 432 735 457 790 q 383 622 407 679 l 290 404 l 665 404 m 483 1149 q 542 1171 517 1149 q 567 1232 567 1193 q 542 1293 567 1271 q 483 1315 517 1315 q 426 1293 450 1315 q 401 1232 401 1271 q 426 1171 401 1193 q 483 1149 450 1149 z "},"Ǻ":{"ha":953,"x_min":-7,"x_max":960,"o":"m -7 0 l 475 1088 q 423 1101 447 1089 q 380 1131 399 1113 q 350 1176 361 1150 q 339 1232 339 1201 q 351 1290 339 1264 q 382 1335 363 1315 q 428 1365 401 1354 q 483 1375 454 1375 q 539 1365 513 1375 q 585 1335 565 1354 q 616 1290 604 1315 q 628 1232 628 1264 q 588 1131 628 1171 q 493 1088 549 1092 l 960 0 l 833 0 l 710 296 l 243 296 l 117 0 l -7 0 m 665 404 l 574 624 q 527 736 550 681 q 481 849 504 792 q 432 735 457 790 q 383 622 407 679 l 290 404 l 665 404 m 567 1636 l 667 1571 l 422 1382 l 365 1425 l 567 1636 m 401 1232 q 426 1171 401 1193 q 483 1149 450 1149 q 542 1171 517 1149 q 567 1232 567 1193 q 542 1293 567 1271 q 483 1315 517 1315 q 426 1293 450 1315 q 401 1232 401 1271 z "},"Ã":{"ha":953,"x_min":-7,"x_max":960,"o":"m -7 0 l 482 1103 l 486 1103 l 960 0 l 833 0 l 710 296 l 243 296 l 117 0 l -7 0 m 290 404 l 665 404 l 574 624 q 527 736 550 681 q 481 849 504 792 q 432 735 457 790 q 383 622 407 679 l 290 404 m 235 1197 q 303 1285 271 1258 q 386 1313 336 1313 q 438 1301 411 1313 q 492 1274 465 1289 q 542 1248 518 1260 q 585 1236 567 1236 q 629 1257 608 1236 q 669 1313 650 1278 l 733 1261 q 669 1174 707 1204 q 581 1143 631 1143 q 528 1154 556 1143 q 476 1179 501 1165 q 425 1204 450 1193 q 379 1215 400 1215 q 335 1196 354 1215 q 300 1143 317 1176 l 235 1197 z "},"Æ":{"ha":1371,"x_min":-7,"x_max":1371,"o":"m 471 1047 l 922 1047 l 969 939 l 556 939 l 686 626 l 1101 626 l 1149 518 l 733 518 l 904 108 l 1322 108 l 1371 0 l 832 0 l 710 293 l 246 293 l 119 0 l -7 0 l 471 1047 m 297 401 l 663 401 l 532 713 q 508 770 521 740 q 483 829 496 800 q 458 771 471 800 q 432 713 446 742 l 297 401 z "},"Ǽ":{"ha":1371,"x_min":-7,"x_max":1371,"o":"m 471 1047 l 922 1047 l 969 939 l 556 939 l 686 626 l 1101 626 l 1149 518 l 733 518 l 904 108 l 1322 108 l 1371 0 l 832 0 l 710 293 l 246 293 l 119 0 l -7 0 l 471 1047 m 663 401 l 532 713 q 508 770 521 740 q 483 829 496 800 q 458 771 471 800 q 432 713 446 742 l 297 401 l 663 401 m 767 1381 l 867 1315 l 622 1126 l 564 1169 l 767 1381 z "},"B":{"ha":799,"x_min":118,"x_max":729,"o":"m 118 0 l 118 1047 l 286 1047 q 549 976 458 1047 q 639 775 639 906 q 597 637 639 696 q 493 551 556 578 l 493 550 q 667 461 606 528 q 729 294 729 394 q 630 75 729 150 q 357 0 531 0 l 118 0 m 367 108 q 477 123 431 108 q 553 163 524 138 q 597 224 583 189 q 611 299 611 258 q 597 373 611 339 q 551 432 583 407 q 469 471 519 457 q 346 485 419 485 l 233 485 l 233 108 l 367 108 m 313 582 q 472 635 419 582 q 524 771 524 688 q 472 898 524 854 q 308 942 419 942 l 233 942 l 233 582 l 313 582 z "},"C":{"ha":1007,"x_min":76,"x_max":919,"o":"m 76 521 q 118 734 76 635 q 233 908 160 833 q 407 1024 307 982 q 624 1067 507 1067 q 783 1042 708 1067 q 919 978 857 1018 l 919 842 q 780 927 857 896 q 617 958 703 958 q 450 924 528 958 q 315 832 372 890 q 224 694 257 774 q 192 522 192 614 q 224 351 192 431 q 315 214 257 272 q 450 122 372 156 q 617 89 528 89 q 778 117 708 89 q 919 210 847 146 l 919 71 q 778 4 854 28 q 615 -19 703 -19 q 403 22 501 -19 q 232 137 304 64 q 118 308 160 210 q 76 521 76 407 z "},"Ć":{"ha":1007,"x_min":76,"x_max":919,"o":"m 76 521 q 118 734 76 635 q 233 908 160 833 q 407 1024 307 982 q 624 1067 507 1067 q 783 1042 708 1067 q 919 978 857 1018 l 919 842 q 780 927 857 896 q 617 958 703 958 q 450 924 528 958 q 315 832 372 890 q 224 694 257 774 q 192 522 192 614 q 224 351 192 431 q 315 214 257 272 q 450 122 372 156 q 617 89 528 89 q 778 117 708 89 q 919 210 847 146 l 919 71 q 778 4 854 28 q 615 -19 703 -19 q 403 22 501 -19 q 232 137 304 64 q 118 308 160 210 q 76 521 76 407 m 658 1381 l 758 1315 l 514 1126 l 456 1169 l 658 1381 z "},"Č":{"ha":1007,"x_min":76,"x_max":919,"o":"m 76 521 q 118 734 76 635 q 233 908 160 833 q 407 1024 307 982 q 624 1067 507 1067 q 783 1042 708 1067 q 919 978 857 1018 l 919 842 q 780 927 857 896 q 617 958 703 958 q 450 924 528 958 q 315 832 372 890 q 224 694 257 774 q 192 522 192 614 q 224 351 192 431 q 315 214 257 272 q 450 122 372 156 q 617 89 528 89 q 778 117 708 89 q 919 210 847 146 l 919 71 q 778 4 854 28 q 615 -19 703 -19 q 403 22 501 -19 q 232 137 304 64 q 118 308 160 210 q 76 521 76 407 m 440 1372 l 589 1247 l 736 1372 l 811 1313 l 589 1124 l 364 1313 l 440 1372 z "},"Ç":{"ha":1007,"x_min":76,"x_max":919,"o":"m 76 521 q 118 734 76 635 q 233 908 160 833 q 407 1024 307 982 q 624 1067 507 1067 q 783 1042 708 1067 q 919 978 857 1018 l 919 842 q 780 927 857 896 q 617 958 703 958 q 450 924 528 958 q 315 832 372 890 q 224 694 257 774 q 192 522 192 614 q 224 351 192 431 q 315 214 257 272 q 450 122 372 156 q 617 89 528 89 q 778 117 708 89 q 919 210 847 146 l 919 71 q 778 4 854 28 q 615 -19 703 -19 q 403 22 501 -19 q 232 137 304 64 q 118 308 160 210 q 76 521 76 407 m 544 -46 l 628 -96 l 479 -294 l 413 -254 l 544 -46 z "},"Ĉ":{"ha":1007,"x_min":76,"x_max":919,"o":"m 76 521 q 118 734 76 635 q 233 908 160 833 q 407 1024 307 982 q 624 1067 507 1067 q 783 1042 708 1067 q 919 978 857 1018 l 919 842 q 780 927 857 896 q 617 958 703 958 q 450 924 528 958 q 315 832 372 890 q 224 694 257 774 q 192 522 192 614 q 224 351 192 431 q 315 214 257 272 q 450 122 372 156 q 617 89 528 89 q 778 117 708 89 q 919 210 847 146 l 919 71 q 778 4 854 28 q 615 -19 703 -19 q 403 22 501 -19 q 232 137 304 64 q 118 308 160 210 q 76 521 76 407 m 588 1368 l 811 1188 l 735 1128 l 588 1243 l 440 1128 l 364 1188 l 588 1368 z "},"Ċ":{"ha":1007,"x_min":76,"x_max":919,"o":"m 624 1067 q 783 1042 708 1067 q 919 978 857 1018 l 919 842 q 780 927 857 896 q 617 958 703 958 q 450 924 528 958 q 315 832 372 890 q 224 694 257 774 q 192 522 192 614 q 224 351 192 431 q 315 214 257 272 q 450 122 372 156 q 617 89 528 89 q 778 117 708 89 q 919 210 847 146 l 919 71 q 778 4 854 28 q 615 -19 703 -19 q 403 22 501 -19 q 232 137 304 64 q 118 308 160 210 q 76 521 76 407 q 118 734 76 635 q 233 908 160 833 q 407 1024 307 982 q 624 1067 507 1067 m 586 1313 q 641 1291 618 1313 q 664 1238 664 1269 q 642 1183 664 1206 q 588 1161 619 1161 q 533 1183 556 1161 q 511 1238 511 1206 q 533 1290 511 1268 q 586 1313 556 1313 z "},"D":{"ha":969,"x_min":118,"x_max":893,"o":"m 118 0 l 118 1047 l 299 1047 q 544 1013 435 1047 q 731 911 654 978 q 851 747 808 844 q 893 525 893 650 q 851 301 893 399 q 729 136 808 203 q 538 35 650 69 q 288 0 426 0 l 118 0 m 296 108 q 496 135 407 108 q 647 215 585 163 q 744 346 710 268 q 778 525 778 424 q 656 832 778 725 q 306 939 535 939 l 233 939 l 233 108 l 296 108 z "},"Ð":{"ha":969,"x_min":24,"x_max":893,"o":"m 24 475 l 24 574 l 118 574 l 118 1047 l 299 1047 q 544 1013 435 1047 q 731 911 654 978 q 851 747 808 844 q 893 525 893 650 q 851 301 893 399 q 729 136 808 203 q 538 35 650 69 q 288 0 426 0 l 118 0 l 118 475 l 24 475 m 482 574 l 482 475 l 233 475 l 233 108 l 296 108 q 496 135 407 108 q 647 215 585 163 q 744 346 710 268 q 778 525 778 424 q 656 832 778 725 q 306 939 535 939 l 233 939 l 233 574 l 482 574 z "},"Ď":{"ha":969,"x_min":118,"x_max":893,"o":"m 299 1047 q 544 1013 435 1047 q 731 911 654 978 q 851 747 808 844 q 893 525 893 650 q 851 301 893 399 q 729 136 808 203 q 538 35 650 69 q 288 0 426 0 l 118 0 l 118 1047 l 299 1047 m 296 108 q 496 135 407 108 q 647 215 585 163 q 744 346 710 268 q 778 525 778 424 q 656 832 778 725 q 306 939 535 939 l 233 939 l 233 108 l 296 108 m 243 1313 l 319 1372 l 468 1247 l 615 1372 l 690 1313 l 468 1124 l 243 1313 z "},"Đ":{"ha":969,"x_min":24,"x_max":893,"o":"m 24 475 l 24 574 l 118 574 l 118 1047 l 299 1047 q 544 1013 435 1047 q 731 911 654 978 q 851 747 808 844 q 893 525 893 650 q 851 301 893 399 q 729 136 808 203 q 538 35 650 69 q 288 0 426 0 l 118 0 l 118 475 l 24 475 m 482 574 l 482 475 l 233 475 l 233 108 l 296 108 q 496 135 407 108 q 647 215 585 163 q 744 346 710 268 q 778 525 778 424 q 656 832 778 725 q 306 939 535 939 l 233 939 l 233 574 l 482 574 z "},"E":{"ha":763,"x_min":118,"x_max":663,"o":"m 663 1047 l 663 939 l 233 939 l 233 626 l 649 626 l 649 518 l 233 518 l 233 108 l 663 108 l 663 0 l 118 0 l 118 1047 l 663 1047 z "},"É":{"ha":763,"x_min":118,"x_max":663,"o":"m 663 1047 l 663 939 l 233 939 l 233 626 l 649 626 l 649 518 l 233 518 l 233 108 l 663 108 l 663 0 l 118 0 l 118 1047 l 663 1047 m 271 1169 l 474 1381 l 574 1315 l 329 1126 l 271 1169 z "},"Ĕ":{"ha":763,"x_min":118,"x_max":663,"o":"m 663 1047 l 663 939 l 233 939 l 233 626 l 649 626 l 649 518 l 233 518 l 233 108 l 663 108 l 663 0 l 118 0 l 118 1047 l 663 1047 m 275 1340 q 316 1253 283 1282 q 401 1224 349 1224 q 529 1340 513 1224 l 621 1340 q 551 1186 610 1238 q 400 1135 493 1135 q 251 1188 310 1135 q 183 1340 193 1240 l 275 1340 z "},"Ě":{"ha":763,"x_min":118,"x_max":663,"o":"m 118 0 l 118 1047 l 663 1047 l 663 939 l 233 939 l 233 626 l 649 626 l 649 518 l 233 518 l 233 108 l 663 108 l 663 0 l 118 0 m 178 1313 l 254 1372 l 403 1247 l 550 1372 l 625 1313 l 403 1124 l 178 1313 z "},"Ê":{"ha":763,"x_min":118,"x_max":663,"o":"m 118 0 l 118 1047 l 663 1047 l 663 939 l 233 939 l 233 626 l 649 626 l 649 518 l 233 518 l 233 108 l 663 108 l 663 0 l 118 0 m 178 1188 l 401 1368 l 625 1188 l 549 1128 l 401 1243 l 254 1128 l 178 1188 z "},"Ë":{"ha":763,"x_min":118,"x_max":663,"o":"m 118 0 l 118 1047 l 663 1047 l 663 939 l 233 939 l 233 626 l 649 626 l 649 518 l 233 518 l 233 108 l 663 108 l 663 0 l 118 0 m 465 1235 q 488 1288 465 1267 q 539 1308 511 1308 q 592 1287 569 1308 q 614 1235 614 1265 q 591 1182 614 1203 q 539 1161 568 1161 q 487 1182 508 1161 q 465 1235 465 1203 m 190 1235 q 213 1288 190 1267 q 264 1308 236 1308 q 315 1288 293 1308 q 338 1235 338 1267 q 315 1182 338 1203 q 264 1161 293 1161 q 212 1183 233 1161 q 190 1235 190 1204 z "},"Ė":{"ha":763,"x_min":118,"x_max":663,"o":"m 663 1047 l 663 939 l 233 939 l 233 626 l 649 626 l 649 518 l 233 518 l 233 108 l 663 108 l 663 0 l 118 0 l 118 1047 l 663 1047 m 326 1238 q 349 1290 326 1268 q 401 1313 371 1313 q 456 1291 433 1313 q 479 1238 479 1269 q 457 1183 479 1206 q 403 1161 435 1161 q 349 1183 371 1161 q 326 1238 326 1206 z "},"È":{"ha":763,"x_min":118,"x_max":663,"o":"m 663 1047 l 663 939 l 233 939 l 233 626 l 649 626 l 649 518 l 233 518 l 233 108 l 663 108 l 663 0 l 118 0 l 118 1047 l 663 1047 m 236 1317 l 335 1382 l 539 1169 l 481 1125 l 236 1317 z "},"Ē":{"ha":763,"x_min":118,"x_max":663,"o":"m 118 0 l 118 1047 l 663 1047 l 663 939 l 233 939 l 233 626 l 649 626 l 649 518 l 233 518 l 233 108 l 663 108 l 663 0 l 118 0 m 208 1261 l 594 1261 l 594 1174 l 208 1174 l 208 1261 z "},"Ę":{"ha":763,"x_min":118,"x_max":663,"o":"m 118 1047 l 663 1047 l 663 939 l 233 939 l 233 626 l 649 626 l 649 518 l 233 518 l 233 108 l 663 108 l 663 0 l 596 0 q 497 -76 522 -40 q 472 -143 472 -111 q 490 -189 472 -172 q 539 -206 508 -206 q 586 -199 564 -206 q 628 -183 608 -193 l 660 -254 q 606 -280 636 -269 q 528 -290 575 -290 q 426 -257 469 -290 q 383 -160 383 -224 q 407 -76 383 -118 q 489 0 431 -35 l 118 0 l 118 1047 z "},"F":{"ha":676,"x_min":118,"x_max":600,"o":"m 600 1047 l 600 939 l 233 939 l 233 628 l 588 628 l 588 519 l 233 519 l 233 0 l 118 0 l 118 1047 l 600 1047 z "},"G":{"ha":1169,"x_min":76,"x_max":1093,"o":"m 76 522 q 119 739 76 639 q 236 912 163 839 q 408 1026 310 985 q 617 1067 506 1067 q 851 1014 750 1067 q 1044 853 953 961 l 961 775 q 810 910 896 863 q 619 958 725 958 q 453 925 531 958 q 317 833 375 892 q 226 695 260 775 q 193 522 193 615 q 227 349 193 428 q 317 212 261 269 q 449 122 374 154 q 604 89 524 89 q 747 115 682 89 q 859 185 811 140 q 935 290 907 229 q 968 419 964 350 l 968 421 l 667 421 l 667 528 l 1093 528 l 1093 503 q 1058 290 1093 386 q 958 124 1022 193 q 803 18 893 56 q 601 -19 713 -19 q 396 23 492 -19 q 229 138 300 65 q 117 310 158 211 q 76 522 76 410 z "},"Ǵ":{"ha":1169,"x_min":76,"x_max":1093,"o":"m 76 522 q 119 739 76 639 q 236 912 163 839 q 408 1026 310 985 q 617 1067 506 1067 q 851 1014 750 1067 q 1044 853 953 961 l 961 775 q 810 910 896 863 q 619 958 725 958 q 453 925 531 958 q 317 833 375 892 q 226 695 260 775 q 193 522 193 615 q 227 349 193 428 q 317 212 261 269 q 449 122 374 154 q 604 89 524 89 q 747 115 682 89 q 859 185 811 140 q 935 290 907 229 q 968 419 964 350 l 968 421 l 667 421 l 667 528 l 1093 528 l 1093 503 q 1058 290 1093 386 q 958 124 1022 193 q 803 18 893 56 q 601 -19 713 -19 q 396 23 492 -19 q 229 138 300 65 q 117 310 158 211 q 76 522 76 410 m 460 1169 l 663 1381 l 763 1315 l 518 1126 l 460 1169 z "},"Ğ":{"ha":1169,"x_min":76,"x_max":1093,"o":"m 617 1067 q 851 1014 750 1067 q 1044 853 953 961 l 961 775 q 810 910 896 863 q 619 958 725 958 q 453 925 531 958 q 317 833 375 892 q 226 695 260 775 q 193 522 193 615 q 227 349 193 428 q 317 212 261 269 q 449 122 374 154 q 604 89 524 89 q 747 115 682 89 q 859 185 811 140 q 935 290 907 229 q 968 419 964 350 l 968 421 l 667 421 l 667 528 l 1093 528 l 1093 503 q 1058 290 1093 386 q 958 124 1022 193 q 803 18 893 56 q 601 -19 713 -19 q 396 23 492 -19 q 229 138 300 65 q 117 310 158 211 q 76 522 76 410 q 119 739 76 639 q 236 912 163 839 q 408 1026 310 985 q 617 1067 506 1067 m 464 1340 q 505 1253 472 1282 q 590 1224 538 1224 q 718 1340 701 1224 l 810 1340 q 740 1186 799 1238 q 589 1135 682 1135 q 440 1188 499 1135 q 372 1340 382 1240 l 464 1340 z "},"Ĝ":{"ha":1169,"x_min":76,"x_max":1093,"o":"m 76 522 q 119 739 76 639 q 236 912 163 839 q 408 1026 310 985 q 617 1067 506 1067 q 851 1014 750 1067 q 1044 853 953 961 l 961 775 q 810 910 896 863 q 619 958 725 958 q 453 925 531 958 q 317 833 375 892 q 226 695 260 775 q 193 522 193 615 q 227 349 193 428 q 317 212 261 269 q 449 122 374 154 q 604 89 524 89 q 747 115 682 89 q 859 185 811 140 q 935 290 907 229 q 968 419 964 350 l 968 421 l 667 421 l 667 528 l 1093 528 l 1093 503 q 1058 290 1093 386 q 958 124 1022 193 q 803 18 893 56 q 601 -19 713 -19 q 396 23 492 -19 q 229 138 300 65 q 117 310 158 211 q 76 522 76 410 m 592 1368 l 815 1188 l 739 1128 l 592 1243 l 444 1128 l 368 1188 l 592 1368 z "},"Ģ":{"ha":1169,"x_min":76,"x_max":1093,"o":"m 76 522 q 119 739 76 639 q 236 912 163 839 q 408 1026 310 985 q 617 1067 506 1067 q 851 1014 750 1067 q 1044 853 953 961 l 961 775 q 810 910 896 863 q 619 958 725 958 q 453 925 531 958 q 317 833 375 892 q 226 695 260 775 q 193 522 193 615 q 227 349 193 428 q 317 212 261 269 q 449 122 374 154 q 604 89 524 89 q 747 115 682 89 q 859 185 811 140 q 935 290 907 229 q 968 419 964 350 l 968 421 l 667 421 l 667 528 l 1093 528 l 1093 503 q 1058 290 1093 386 q 958 124 1022 193 q 803 18 893 56 q 601 -19 713 -19 q 396 23 492 -19 q 229 138 300 65 q 117 310 158 211 q 76 522 76 410 m 569 -85 l 661 -128 l 544 -339 l 471 -303 l 569 -85 z "},"Ġ":{"ha":1169,"x_min":76,"x_max":1093,"o":"m 617 1067 q 851 1014 750 1067 q 1044 853 953 961 l 961 775 q 810 910 896 863 q 619 958 725 958 q 453 925 531 958 q 317 833 375 892 q 226 695 260 775 q 193 522 193 615 q 227 349 193 428 q 317 212 261 269 q 449 122 374 154 q 604 89 524 89 q 747 115 682 89 q 859 185 811 140 q 935 290 907 229 q 968 419 964 350 l 968 421 l 667 421 l 667 528 l 1093 528 l 1093 503 q 1058 290 1093 386 q 958 124 1022 193 q 803 18 893 56 q 601 -19 713 -19 q 396 23 492 -19 q 229 138 300 65 q 117 310 158 211 q 76 522 76 410 q 119 739 76 639 q 236 912 163 839 q 408 1026 310 985 q 617 1067 506 1067 m 515 1238 q 538 1290 515 1268 q 590 1313 560 1313 q 645 1291 622 1313 q 668 1238 668 1269 q 646 1183 668 1206 q 592 1161 624 1161 q 538 1183 560 1161 q 515 1238 515 1206 z "},"H":{"ha":982,"x_min":118,"x_max":865,"o":"m 233 1047 l 233 622 l 749 622 l 749 1047 l 865 1047 l 865 0 l 749 0 l 749 514 l 233 514 l 233 0 l 118 0 l 118 1047 l 233 1047 z "},"Ħ":{"ha":982,"x_min":24,"x_max":958,"o":"m 24 786 l 24 885 l 118 885 l 118 1047 l 233 1047 l 233 885 l 749 885 l 749 1047 l 865 1047 l 865 885 l 958 885 l 958 786 l 865 786 l 865 0 l 749 0 l 749 514 l 233 514 l 233 0 l 118 0 l 118 786 l 24 786 m 233 622 l 749 622 l 749 786 l 233 786 l 233 622 z "},"Ĥ":{"ha":982,"x_min":118,"x_max":865,"o":"m 233 1047 l 233 622 l 749 622 l 749 1047 l 865 1047 l 865 0 l 749 0 l 749 514 l 233 514 l 233 0 l 118 0 l 118 1047 l 233 1047 m 492 1368 l 715 1188 l 639 1128 l 492 1243 l 344 1128 l 268 1188 l 492 1368 z "},"I":{"ha":350,"x_min":118,"x_max":233,"o":"m 118 0 l 118 1047 l 233 1047 l 233 0 l 118 0 z "},"Ĳ":{"ha":874,"x_min":118,"x_max":767,"o":"m 408 154 q 469 108 438 125 q 536 92 500 92 q 624 128 596 92 q 651 257 651 165 l 651 1047 l 767 1047 l 767 257 q 712 49 767 114 q 544 -17 657 -17 q 438 4 486 -17 q 350 61 389 25 l 408 154 m 118 0 l 118 1047 l 233 1047 l 233 0 l 118 0 z "},"Í":{"ha":350,"x_min":44,"x_max":347,"o":"m 103 1126 l 44 1169 l 247 1381 l 347 1315 l 103 1126 m 118 0 l 118 1047 l 233 1047 l 233 0 l 118 0 z "},"Ĭ":{"ha":350,"x_min":-43,"x_max":394,"o":"m 118 1047 l 233 1047 l 233 0 l 118 0 l 118 1047 m 49 1340 q 90 1253 57 1282 q 175 1224 122 1224 q 303 1340 286 1224 l 394 1340 q 325 1186 383 1238 q 174 1135 267 1135 q 25 1188 83 1135 q -43 1340 -33 1240 l 49 1340 z "},"Î":{"ha":350,"x_min":-47,"x_max":400,"o":"m 29 1128 l -47 1188 l 176 1368 l 400 1188 l 324 1128 l 176 1243 l 29 1128 m 118 0 l 118 1047 l 233 1047 l 233 0 l 118 0 z "},"Ï":{"ha":350,"x_min":-36,"x_max":388,"o":"m 233 1047 l 233 0 l 118 0 l 118 1047 l 233 1047 m 313 1308 q 365 1287 343 1308 q 388 1235 388 1265 q 365 1182 388 1203 q 313 1161 342 1161 q 260 1182 282 1161 q 239 1235 239 1203 q 262 1288 239 1267 q 313 1308 285 1308 m -36 1235 q -13 1288 -36 1267 q 38 1308 10 1308 q 89 1288 67 1308 q 111 1235 111 1267 q 89 1182 111 1203 q 38 1161 67 1161 q -15 1183 7 1161 q -36 1235 -36 1204 z "},"İ":{"ha":350,"x_min":100,"x_max":253,"o":"m 233 1047 l 233 0 l 118 0 l 118 1047 l 233 1047 m 100 1238 q 122 1290 100 1268 q 175 1313 144 1313 q 230 1291 207 1313 q 253 1238 253 1269 q 231 1183 253 1206 q 176 1161 208 1161 q 122 1183 144 1161 q 100 1238 100 1206 z "},"Ì":{"ha":350,"x_min":11,"x_max":314,"o":"m 256 1125 l 11 1317 l 110 1382 l 314 1169 l 256 1125 m 118 0 l 118 1047 l 233 1047 l 233 0 l 118 0 z "},"Ī":{"ha":350,"x_min":-17,"x_max":369,"o":"m -17 1174 l -17 1261 l 369 1261 l 369 1174 l -17 1174 m 118 0 l 118 1047 l 233 1047 l 233 0 l 118 0 z "},"Į":{"ha":350,"x_min":4,"x_max":282,"o":"m 118 3 l 118 1047 l 233 1047 l 233 0 l 217 0 q 118 -76 143 -40 q 93 -143 93 -111 q 111 -190 93 -174 q 160 -206 129 -206 q 208 -199 185 -206 q 249 -183 231 -193 l 282 -254 q 226 -280 257 -269 q 149 -290 196 -290 q 94 -282 119 -290 q 48 -257 68 -274 q 16 -216 28 -240 q 4 -160 4 -192 q 29 -74 4 -117 q 118 3 54 -32 z "},"Ĩ":{"ha":350,"x_min":-74,"x_max":425,"o":"m 233 1047 l 233 0 l 118 0 l 118 1047 l 233 1047 m -74 1197 q -6 1285 -39 1258 q 78 1313 28 1313 q 130 1301 103 1313 q 183 1274 157 1289 q 234 1248 210 1260 q 276 1236 258 1236 q 321 1257 300 1236 q 361 1313 342 1278 l 425 1261 q 360 1174 399 1204 q 272 1143 322 1143 q 220 1154 247 1143 q 167 1179 193 1165 q 117 1204 142 1193 q 71 1215 92 1215 q 27 1196 46 1215 q -8 1143 8 1176 l -74 1197 z "},"J":{"ha":524,"x_min":0,"x_max":417,"o":"m 58 154 q 119 108 88 125 q 186 92 150 92 q 274 128 246 92 q 301 257 301 165 l 301 1047 l 417 1047 l 417 257 q 362 49 417 114 q 194 -17 307 -17 q 88 4 136 -17 q 0 61 39 25 l 58 154 z "},"Ĵ":{"ha":524,"x_min":0,"x_max":575,"o":"m 58 154 q 119 108 88 125 q 186 92 150 92 q 274 128 246 92 q 301 257 301 165 l 301 1047 l 417 1047 l 417 257 q 362 49 417 114 q 194 -17 307 -17 q 88 4 136 -17 q 0 61 39 25 l 58 154 m 351 1368 l 575 1188 l 499 1128 l 351 1243 l 204 1128 l 128 1188 l 351 1368 z "},"K":{"ha":844,"x_min":118,"x_max":844,"o":"m 118 0 l 118 1047 l 233 1047 l 233 604 l 683 1047 l 832 1047 l 351 585 l 844 0 l 694 0 l 272 510 l 233 476 l 233 0 l 118 0 z "},"Ķ":{"ha":844,"x_min":118,"x_max":844,"o":"m 118 1047 l 233 1047 l 233 604 l 683 1047 l 832 1047 l 351 585 l 844 0 l 694 0 l 272 510 l 233 476 l 233 0 l 118 0 l 118 1047 m 435 -85 l 526 -128 l 410 -339 l 336 -303 l 435 -85 z "},"L":{"ha":583,"x_min":118,"x_max":560,"o":"m 118 0 l 118 1047 l 233 1047 l 233 108 l 560 108 l 560 0 l 118 0 z "},"Ĺ":{"ha":583,"x_min":118,"x_max":560,"o":"m 190 1126 l 132 1169 l 335 1381 l 435 1315 l 190 1126 m 118 0 l 118 1047 l 233 1047 l 233 108 l 560 108 l 560 0 l 118 0 z "},"Ľ":{"ha":583,"x_min":118,"x_max":560,"o":"m 118 0 l 118 1047 l 233 1047 l 233 108 l 560 108 l 560 0 l 118 0 m 442 783 l 372 803 l 433 1046 l 540 1013 l 442 783 z "},"Ļ":{"ha":583,"x_min":118,"x_max":560,"o":"m 118 0 l 118 1047 l 233 1047 l 233 108 l 560 108 l 560 0 l 118 0 m 281 -339 l 207 -303 l 306 -85 l 397 -128 l 281 -339 z "},"Ŀ":{"ha":583,"x_min":118,"x_max":560,"o":"m 118 1047 l 233 1047 l 233 108 l 560 108 l 560 0 l 118 0 l 118 1047 m 465 613 q 517 592 496 613 q 539 539 539 571 q 518 486 539 508 q 465 464 497 464 q 411 488 432 464 q 390 539 390 511 q 414 592 390 571 q 465 613 438 613 z "},"Ł":{"ha":583,"x_min":17,"x_max":560,"o":"m 17 296 l 17 411 l 118 479 l 118 1047 l 233 1047 l 233 558 l 367 647 l 367 533 l 233 443 l 233 108 l 560 108 l 560 0 l 118 0 l 118 365 l 17 296 z "},"M":{"ha":1232,"x_min":42,"x_max":1190,"o":"m 42 0 l 257 1111 l 261 1111 l 618 224 l 986 1111 l 990 1111 l 1190 0 l 1071 0 l 943 753 l 618 -39 l 615 -39 l 299 754 l 161 0 l 42 0 z "},"N":{"ha":1119,"x_min":118,"x_max":1001,"o":"m 886 1047 l 1001 1047 l 1001 -50 l 997 -50 l 233 819 l 233 0 l 118 0 l 118 1103 l 122 1103 l 886 232 l 886 1047 z "},"Ń":{"ha":1119,"x_min":118,"x_max":1001,"o":"m 732 1315 l 488 1126 l 429 1169 l 632 1381 l 732 1315 m 886 1047 l 1001 1047 l 1001 -50 l 997 -50 l 233 819 l 233 0 l 118 0 l 118 1103 l 122 1103 l 886 232 l 886 1047 z "},"Ň":{"ha":1119,"x_min":118,"x_max":1001,"o":"m 785 1313 l 563 1124 l 338 1313 l 414 1372 l 563 1247 l 710 1372 l 785 1313 m 886 1047 l 1001 1047 l 1001 -50 l 997 -50 l 233 819 l 233 0 l 118 0 l 118 1103 l 122 1103 l 886 232 l 886 1047 z "},"Ņ":{"ha":1119,"x_min":118,"x_max":1001,"o":"m 886 1047 l 1001 1047 l 1001 -50 l 997 -50 l 233 819 l 233 0 l 118 0 l 118 1103 l 122 1103 l 886 232 l 886 1047 m 447 -303 l 546 -85 l 638 -128 l 521 -339 l 447 -303 z "},"Ŋ":{"ha":1119,"x_min":118,"x_max":1001,"o":"m 118 1103 l 122 1103 l 886 232 l 886 1047 l 1001 1047 l 1001 -40 q 942 -286 1001 -210 q 761 -362 883 -362 q 603 -317 672 -362 l 656 -219 q 761 -254 707 -254 q 856 -206 826 -254 q 886 -40 886 -158 l 886 67 l 233 818 l 233 0 l 118 0 l 118 1103 z "},"Ñ":{"ha":1119,"x_min":118,"x_max":1001,"o":"m 122 1103 l 886 232 l 886 1047 l 1001 1047 l 1001 -50 l 997 -50 l 233 819 l 233 0 l 118 0 l 118 1103 l 122 1103 m 311 1197 q 380 1285 347 1258 q 463 1313 413 1313 q 515 1301 488 1313 q 568 1274 542 1289 q 619 1248 594 1260 q 661 1236 643 1236 q 706 1257 685 1236 q 746 1313 726 1278 l 810 1261 q 745 1174 783 1204 q 657 1143 707 1143 q 605 1154 632 1143 q 552 1179 578 1165 q 501 1204 526 1193 q 456 1215 476 1215 q 412 1196 431 1215 q 376 1143 393 1176 l 311 1197 z "},"O":{"ha":1238,"x_min":76,"x_max":1161,"o":"m 76 526 q 120 738 76 639 q 238 909 164 836 q 411 1024 313 982 q 621 1067 510 1067 q 828 1024 731 1067 q 1001 909 926 982 q 1118 737 1075 836 q 1161 522 1161 638 q 1117 310 1161 408 q 999 138 1074 211 q 826 23 925 65 q 615 -19 726 -19 q 410 22 507 -19 q 238 137 313 64 q 120 310 164 210 q 76 526 76 410 m 193 525 q 228 351 193 431 q 321 213 263 271 q 456 123 379 156 q 615 90 532 90 q 783 124 704 90 q 919 215 861 157 q 1012 353 978 274 q 1046 524 1046 432 q 1012 697 1046 617 q 920 835 978 776 q 785 926 863 893 q 619 958 707 958 q 456 925 533 958 q 319 833 378 892 q 227 696 261 775 q 193 525 193 617 z "},"Ó":{"ha":1238,"x_min":76,"x_max":1161,"o":"m 76 526 q 120 738 76 639 q 238 909 164 836 q 411 1024 313 982 q 621 1067 510 1067 q 828 1024 731 1067 q 1001 909 926 982 q 1118 737 1075 836 q 1161 522 1161 638 q 1117 310 1161 408 q 999 138 1074 211 q 826 23 925 65 q 615 -19 726 -19 q 410 22 507 -19 q 238 137 313 64 q 120 310 164 210 q 76 526 76 410 m 615 90 q 783 124 704 90 q 919 215 861 157 q 1012 353 978 274 q 1046 524 1046 432 q 1012 697 1046 617 q 920 835 978 776 q 785 926 863 893 q 619 958 707 958 q 456 925 533 958 q 319 833 378 892 q 227 696 261 775 q 193 525 193 617 q 228 351 193 431 q 321 213 263 271 q 456 123 379 156 q 615 90 532 90 m 488 1169 l 690 1381 l 790 1315 l 546 1126 l 488 1169 z "},"Ŏ":{"ha":1238,"x_min":76,"x_max":1161,"o":"m 621 1067 q 828 1024 731 1067 q 1001 909 926 982 q 1118 737 1075 836 q 1161 522 1161 638 q 1117 310 1161 408 q 999 138 1074 211 q 826 23 925 65 q 615 -19 726 -19 q 410 22 507 -19 q 238 137 313 64 q 120 310 164 210 q 76 526 76 410 q 120 738 76 639 q 238 909 164 836 q 411 1024 313 982 q 621 1067 510 1067 m 615 90 q 783 124 704 90 q 919 215 861 157 q 1012 353 978 274 q 1046 524 1046 432 q 1012 697 1046 617 q 920 835 978 776 q 785 926 863 893 q 619 958 707 958 q 456 925 533 958 q 319 833 378 892 q 227 696 261 775 q 193 525 193 617 q 228 351 193 431 q 321 213 263 271 q 456 123 379 156 q 615 90 532 90 m 400 1340 l 492 1340 q 533 1253 500 1282 q 618 1224 565 1224 q 746 1340 729 1224 l 838 1340 q 768 1186 826 1238 q 617 1135 710 1135 q 468 1188 526 1135 q 400 1340 410 1240 z "},"Ô":{"ha":1238,"x_min":76,"x_max":1161,"o":"m 76 526 q 120 738 76 639 q 238 909 164 836 q 411 1024 313 982 q 621 1067 510 1067 q 828 1024 731 1067 q 1001 909 926 982 q 1118 737 1075 836 q 1161 522 1161 638 q 1117 310 1161 408 q 999 138 1074 211 q 826 23 925 65 q 615 -19 726 -19 q 410 22 507 -19 q 238 137 313 64 q 120 310 164 210 q 76 526 76 410 m 193 525 q 228 351 193 431 q 321 213 263 271 q 456 123 379 156 q 615 90 532 90 q 783 124 704 90 q 919 215 861 157 q 1012 353 978 274 q 1046 524 1046 432 q 1012 697 1046 617 q 920 835 978 776 q 785 926 863 893 q 619 958 707 958 q 456 925 533 958 q 319 833 378 892 q 227 696 261 775 q 193 525 193 617 m 394 1188 l 618 1368 l 842 1188 l 765 1128 l 618 1243 l 471 1128 l 394 1188 z "},"Ö":{"ha":1238,"x_min":76,"x_max":1161,"o":"m 76 526 q 120 738 76 639 q 238 909 164 836 q 411 1024 313 982 q 621 1067 510 1067 q 828 1024 731 1067 q 1001 909 926 982 q 1118 737 1075 836 q 1161 522 1161 638 q 1117 310 1161 408 q 999 138 1074 211 q 826 23 925 65 q 615 -19 726 -19 q 410 22 507 -19 q 238 137 313 64 q 120 310 164 210 q 76 526 76 410 m 193 525 q 228 351 193 431 q 321 213 263 271 q 456 123 379 156 q 615 90 532 90 q 783 124 704 90 q 919 215 861 157 q 1012 353 978 274 q 1046 524 1046 432 q 1012 697 1046 617 q 920 835 978 776 q 785 926 863 893 q 619 958 707 958 q 456 925 533 958 q 319 833 378 892 q 227 696 261 775 q 193 525 193 617 m 756 1308 q 808 1287 786 1308 q 831 1235 831 1265 q 808 1182 831 1203 q 756 1161 785 1161 q 703 1182 725 1161 q 682 1235 682 1203 q 705 1288 682 1267 q 756 1308 728 1308 m 407 1235 q 430 1288 407 1267 q 481 1308 453 1308 q 532 1288 510 1308 q 554 1235 554 1267 q 532 1182 554 1203 q 481 1161 510 1161 q 428 1183 450 1161 q 407 1235 407 1204 z "},"Ò":{"ha":1238,"x_min":76,"x_max":1161,"o":"m 76 526 q 120 738 76 639 q 238 909 164 836 q 411 1024 313 982 q 621 1067 510 1067 q 828 1024 731 1067 q 1001 909 926 982 q 1118 737 1075 836 q 1161 522 1161 638 q 1117 310 1161 408 q 999 138 1074 211 q 826 23 925 65 q 615 -19 726 -19 q 410 22 507 -19 q 238 137 313 64 q 120 310 164 210 q 76 526 76 410 m 615 90 q 783 124 704 90 q 919 215 861 157 q 1012 353 978 274 q 1046 524 1046 432 q 1012 697 1046 617 q 920 835 978 776 q 785 926 863 893 q 619 958 707 958 q 456 925 533 958 q 319 833 378 892 q 227 696 261 775 q 193 525 193 617 q 228 351 193 431 q 321 213 263 271 q 456 123 379 156 q 615 90 532 90 m 551 1382 l 756 1169 l 697 1125 l 453 1317 l 551 1382 z "},"Ő":{"ha":1238,"x_min":76,"x_max":1161,"o":"m 76 526 q 120 738 76 639 q 238 909 164 836 q 411 1024 313 982 q 621 1067 510 1067 q 828 1024 731 1067 q 1001 909 926 982 q 1118 737 1075 836 q 1161 522 1161 638 q 1117 310 1161 408 q 999 138 1074 211 q 826 23 925 65 q 615 -19 726 -19 q 410 22 507 -19 q 238 137 313 64 q 120 310 164 210 q 76 526 76 410 m 615 90 q 783 124 704 90 q 919 215 861 157 q 1012 353 978 274 q 1046 524 1046 432 q 1012 697 1046 617 q 920 835 978 776 q 785 926 863 893 q 619 958 707 958 q 456 925 533 958 q 319 833 378 892 q 227 696 261 775 q 193 525 193 617 q 228 351 193 431 q 321 213 263 271 q 456 123 379 156 q 615 90 532 90 m 774 1397 l 881 1379 l 750 1142 l 690 1158 l 774 1397 m 544 1397 l 651 1379 l 535 1142 l 475 1158 l 544 1397 z "},"Ō":{"ha":1238,"x_min":76,"x_max":1161,"o":"m 76 526 q 120 738 76 639 q 238 909 164 836 q 411 1024 313 982 q 621 1067 510 1067 q 828 1024 731 1067 q 1001 909 926 982 q 1118 737 1075 836 q 1161 522 1161 638 q 1117 310 1161 408 q 999 138 1074 211 q 826 23 925 65 q 615 -19 726 -19 q 410 22 507 -19 q 238 137 313 64 q 120 310 164 210 q 76 526 76 410 m 615 90 q 783 124 704 90 q 919 215 861 157 q 1012 353 978 274 q 1046 524 1046 432 q 1012 697 1046 617 q 920 835 978 776 q 785 926 863 893 q 619 958 707 958 q 456 925 533 958 q 319 833 378 892 q 227 696 261 775 q 193 525 193 617 q 228 351 193 431 q 321 213 263 271 q 456 123 379 156 q 615 90 532 90 m 811 1261 l 811 1174 l 425 1174 l 425 1261 l 811 1261 z "},"Ø":{"ha":1238,"x_min":76,"x_max":1161,"o":"m 621 1067 q 810 1033 721 1067 q 969 938 899 999 l 1082 1050 l 1149 983 l 1036 871 q 1128 711 1094 800 q 1161 522 1161 622 q 1117 310 1161 408 q 999 138 1074 211 q 826 23 925 65 q 615 -19 726 -19 q 428 14 517 -19 q 267 110 339 47 l 158 1 l 94 68 l 203 175 q 110 335 143 246 q 76 526 76 424 q 120 738 76 639 q 238 909 164 836 q 411 1024 313 982 q 621 1067 510 1067 m 615 90 q 783 124 704 90 q 919 215 861 157 q 1012 353 978 274 q 1046 524 1046 432 q 1022 670 1046 603 q 957 793 999 738 l 347 189 q 472 116 404 142 q 615 90 540 90 m 193 525 q 217 378 193 446 q 283 256 242 310 l 892 861 q 766 933 835 907 q 619 958 697 958 q 456 925 533 958 q 319 833 378 892 q 227 696 261 775 q 193 525 193 617 z "},"Ǿ":{"ha":1238,"x_min":76,"x_max":1161,"o":"m 621 1067 q 810 1033 721 1067 q 969 938 899 999 l 1082 1050 l 1149 983 l 1036 871 q 1128 711 1094 800 q 1161 522 1161 622 q 1117 310 1161 408 q 999 138 1074 211 q 826 23 925 65 q 615 -19 726 -19 q 428 14 517 -19 q 267 110 339 47 l 158 1 l 94 68 l 203 175 q 110 335 143 246 q 76 526 76 424 q 120 738 76 639 q 238 909 164 836 q 411 1024 313 982 q 621 1067 510 1067 m 615 90 q 783 124 704 90 q 919 215 861 157 q 1012 353 978 274 q 1046 524 1046 432 q 1022 670 1046 603 q 957 793 999 738 l 347 189 q 472 116 404 142 q 615 90 540 90 m 283 256 l 892 861 q 766 933 835 907 q 619 958 697 958 q 456 925 533 958 q 319 833 378 892 q 227 696 261 775 q 193 525 193 617 q 217 378 193 446 q 283 256 242 310 m 488 1169 l 690 1381 l 790 1315 l 546 1126 l 488 1169 z "},"Õ":{"ha":1238,"x_min":76,"x_max":1161,"o":"m 621 1067 q 828 1024 731 1067 q 1001 909 926 982 q 1118 737 1075 836 q 1161 522 1161 638 q 1117 310 1161 408 q 999 138 1074 211 q 826 23 925 65 q 615 -19 726 -19 q 410 22 507 -19 q 238 137 313 64 q 120 310 164 210 q 76 526 76 410 q 120 738 76 639 q 238 909 164 836 q 411 1024 313 982 q 621 1067 510 1067 m 615 90 q 783 124 704 90 q 919 215 861 157 q 1012 353 978 274 q 1046 524 1046 432 q 1012 697 1046 617 q 920 835 978 776 q 785 926 863 893 q 619 958 707 958 q 456 925 533 958 q 319 833 378 892 q 227 696 261 775 q 193 525 193 617 q 228 351 193 431 q 321 213 263 271 q 456 123 379 156 q 615 90 532 90 m 369 1197 q 438 1285 406 1258 q 521 1313 471 1313 q 573 1301 546 1313 q 626 1274 600 1289 q 677 1248 653 1260 q 719 1236 701 1236 q 764 1257 743 1236 q 804 1313 785 1278 l 868 1261 q 803 1174 842 1204 q 715 1143 765 1143 q 663 1154 690 1143 q 610 1179 636 1165 q 560 1204 585 1193 q 514 1215 535 1215 q 470 1196 489 1215 q 435 1143 451 1176 l 369 1197 z "},"Œ":{"ha":1679,"x_min":76,"x_max":1579,"o":"m 621 1067 q 858 1003 750 1067 q 1033 835 967 940 l 1033 1047 l 1579 1047 l 1579 939 l 1149 939 l 1149 626 l 1565 626 l 1565 518 l 1149 518 l 1149 108 l 1579 108 l 1579 0 l 1033 0 l 1033 211 q 856 43 967 106 q 615 -19 746 -19 q 410 22 507 -19 q 238 137 313 64 q 120 310 164 210 q 76 526 76 410 q 120 738 76 639 q 238 909 164 836 q 411 1024 313 982 q 621 1067 510 1067 m 615 90 q 777 123 701 90 q 910 214 853 156 q 1000 351 967 272 q 1033 522 1033 431 q 1001 695 1033 615 q 912 833 968 775 q 780 925 856 892 q 619 958 704 958 q 456 925 533 958 q 319 833 378 892 q 227 696 261 775 q 193 525 193 617 q 228 351 193 431 q 321 213 263 271 q 456 123 379 156 q 615 90 532 90 z "},"P":{"ha":710,"x_min":118,"x_max":664,"o":"m 276 1047 q 435 1032 364 1047 q 557 981 506 1017 q 636 889 608 946 q 664 749 664 832 q 639 621 664 676 q 568 526 614 565 q 458 467 522 488 q 317 447 394 447 l 233 447 l 233 0 l 118 0 l 118 1047 l 276 1047 m 233 554 l 307 554 q 488 603 425 554 q 551 750 551 651 q 486 895 551 849 q 299 942 421 942 l 233 942 l 233 554 z "},"Þ":{"ha":710,"x_min":118,"x_max":664,"o":"m 233 1047 l 233 856 l 276 856 q 435 840 364 856 q 557 790 506 825 q 636 698 608 754 q 664 558 664 642 q 640 431 664 488 q 569 336 615 375 q 460 276 524 297 q 317 256 396 256 l 233 256 l 233 0 l 118 0 l 118 1047 l 233 1047 m 307 363 q 488 411 425 363 q 551 560 551 460 q 486 703 551 657 q 299 750 421 750 l 233 750 l 233 363 l 307 363 z "},"Q":{"ha":1238,"x_min":76,"x_max":1169,"o":"m 621 1067 q 828 1024 731 1067 q 1001 909 926 982 q 1118 737 1075 836 q 1161 522 1161 638 q 1119 313 1161 410 q 1004 143 1078 217 l 1169 -19 l 1026 -19 l 926 78 q 781 6 860 32 q 615 -19 703 -19 q 410 22 507 -19 q 238 137 313 64 q 120 310 164 210 q 76 526 76 410 q 120 738 76 639 q 238 909 164 836 q 411 1024 313 982 q 621 1067 510 1067 m 193 525 q 228 351 193 431 q 321 213 263 271 q 456 123 379 156 q 615 90 532 90 q 738 108 679 90 q 847 157 797 125 l 597 414 l 743 414 l 926 222 q 1014 357 982 281 q 1046 524 1046 433 q 1012 697 1046 617 q 920 835 978 776 q 785 926 863 893 q 619 958 707 958 q 456 925 533 958 q 319 833 378 892 q 227 696 261 775 q 193 525 193 617 z "},"R":{"ha":743,"x_min":118,"x_max":731,"o":"m 118 0 l 118 1047 l 269 1047 q 425 1030 354 1047 q 547 976 496 1013 q 626 884 597 939 q 654 754 654 829 q 587 565 654 640 q 400 458 519 490 l 731 0 l 590 0 l 278 450 l 233 450 l 233 0 l 118 0 m 233 550 l 286 550 q 473 600 404 550 q 542 751 542 650 q 474 892 542 846 q 288 939 407 939 l 233 939 l 233 550 z "},"Ŕ":{"ha":743,"x_min":118,"x_max":731,"o":"m 118 0 l 118 1047 l 269 1047 q 425 1030 354 1047 q 547 976 496 1013 q 626 884 597 939 q 654 754 654 829 q 587 565 654 640 q 400 458 519 490 l 731 0 l 590 0 l 278 450 l 233 450 l 233 0 l 118 0 m 286 550 q 473 600 404 550 q 542 751 542 650 q 474 892 542 846 q 288 939 407 939 l 233 939 l 233 550 l 286 550 m 463 1381 l 563 1315 l 318 1126 l 260 1169 l 463 1381 z "},"Ř":{"ha":743,"x_min":118,"x_max":731,"o":"m 118 0 l 118 1047 l 269 1047 q 425 1030 354 1047 q 547 976 496 1013 q 626 884 597 939 q 654 754 654 829 q 587 565 654 640 q 400 458 519 490 l 731 0 l 590 0 l 278 450 l 233 450 l 233 0 l 118 0 m 233 550 l 286 550 q 473 600 404 550 q 542 751 542 650 q 474 892 542 846 q 288 939 407 939 l 233 939 l 233 550 m 244 1372 l 393 1247 l 540 1372 l 615 1313 l 393 1124 l 168 1313 l 244 1372 z "},"Ŗ":{"ha":743,"x_min":118,"x_max":731,"o":"m 118 0 l 118 1047 l 269 1047 q 425 1030 354 1047 q 547 976 496 1013 q 626 884 597 939 q 654 754 654 829 q 587 565 654 640 q 400 458 519 490 l 731 0 l 590 0 l 278 450 l 233 450 l 233 0 l 118 0 m 233 550 l 286 550 q 473 600 404 550 q 542 751 542 650 q 474 892 542 846 q 288 939 407 939 l 233 939 l 233 550 m 274 -303 l 372 -85 l 464 -128 l 347 -339 l 274 -303 z "},"S":{"ha":765,"x_min":46,"x_max":699,"o":"m 46 222 l 153 267 q 246 135 185 182 q 392 89 307 89 q 470 103 435 89 q 531 142 506 117 q 569 201 556 167 q 582 274 582 235 q 572 347 582 314 q 535 408 561 379 q 467 463 510 436 q 363 517 425 489 q 249 574 299 546 q 167 635 200 601 q 117 710 133 668 q 100 806 100 751 q 122 908 100 860 q 181 991 143 956 q 269 1047 218 1026 q 382 1067 321 1067 q 553 1019 482 1067 q 665 893 624 972 l 569 838 q 490 928 533 897 q 382 958 447 958 q 262 915 308 958 q 215 806 215 871 q 227 749 215 774 q 265 701 239 724 q 332 656 290 678 q 433 606 374 633 q 556 540 506 574 q 638 467 606 507 q 684 381 669 428 q 699 272 699 333 q 675 153 699 207 q 610 60 651 99 q 513 1 568 22 q 392 -19 457 -19 q 272 -1 326 -19 q 173 49 217 17 q 97 125 129 81 q 46 222 65 169 z "},"Ś":{"ha":765,"x_min":46,"x_max":699,"o":"m 46 222 l 153 267 q 246 135 185 182 q 392 89 307 89 q 470 103 435 89 q 531 142 506 117 q 569 201 556 167 q 582 274 582 235 q 572 347 582 314 q 535 408 561 379 q 467 463 510 436 q 363 517 425 489 q 249 574 299 546 q 167 635 200 601 q 117 710 133 668 q 100 806 100 751 q 122 908 100 860 q 181 991 143 956 q 269 1047 218 1026 q 382 1067 321 1067 q 553 1019 482 1067 q 665 893 624 972 l 569 838 q 490 928 533 897 q 382 958 447 958 q 262 915 308 958 q 215 806 215 871 q 227 749 215 774 q 265 701 239 724 q 332 656 290 678 q 433 606 374 633 q 556 540 506 574 q 638 467 606 507 q 684 381 669 428 q 699 272 699 333 q 675 153 699 207 q 610 60 651 99 q 513 1 568 22 q 392 -19 457 -19 q 272 -1 326 -19 q 173 49 217 17 q 97 125 129 81 q 46 222 65 169 m 247 1169 l 450 1381 l 550 1315 l 306 1126 l 247 1169 z "},"Š":{"ha":765,"x_min":46,"x_max":699,"o":"m 46 222 l 153 267 q 246 135 185 182 q 392 89 307 89 q 470 103 435 89 q 531 142 506 117 q 569 201 556 167 q 582 274 582 235 q 572 347 582 314 q 535 408 561 379 q 467 463 510 436 q 363 517 425 489 q 249 574 299 546 q 167 635 200 601 q 117 710 133 668 q 100 806 100 751 q 122 908 100 860 q 181 991 143 956 q 269 1047 218 1026 q 382 1067 321 1067 q 553 1019 482 1067 q 665 893 624 972 l 569 838 q 490 928 533 897 q 382 958 447 958 q 262 915 308 958 q 215 806 215 871 q 227 749 215 774 q 265 701 239 724 q 332 656 290 678 q 433 606 374 633 q 556 540 506 574 q 638 467 606 507 q 684 381 669 428 q 699 272 699 333 q 675 153 699 207 q 610 60 651 99 q 513 1 568 22 q 392 -19 457 -19 q 272 -1 326 -19 q 173 49 217 17 q 97 125 129 81 q 46 222 65 169 m 156 1313 l 232 1372 l 381 1247 l 528 1372 l 603 1313 l 381 1124 l 156 1313 z "},"Ş":{"ha":765,"x_min":46,"x_max":699,"o":"m 46 222 l 153 267 q 246 135 185 182 q 392 89 307 89 q 470 103 435 89 q 531 142 506 117 q 569 201 556 167 q 582 274 582 235 q 572 347 582 314 q 535 408 561 379 q 467 463 510 436 q 363 517 425 489 q 249 574 299 546 q 167 635 200 601 q 117 710 133 668 q 100 806 100 751 q 122 908 100 860 q 181 991 143 956 q 269 1047 218 1026 q 382 1067 321 1067 q 553 1019 482 1067 q 665 893 624 972 l 569 838 q 490 928 533 897 q 382 958 447 958 q 262 915 308 958 q 215 806 215 871 q 227 749 215 774 q 265 701 239 724 q 332 656 290 678 q 433 606 374 633 q 556 540 506 574 q 638 467 606 507 q 684 381 669 428 q 699 272 699 333 q 675 153 699 207 q 610 60 651 99 q 513 1 568 22 q 392 -19 457 -19 q 272 -1 326 -19 q 173 49 217 17 q 97 125 129 81 q 46 222 65 169 m 238 -254 l 369 -46 l 453 -96 l 304 -294 l 238 -254 z "},"Ŝ":{"ha":765,"x_min":46,"x_max":699,"o":"m 46 222 l 153 267 q 246 135 185 182 q 392 89 307 89 q 470 103 435 89 q 531 142 506 117 q 569 201 556 167 q 582 274 582 235 q 572 347 582 314 q 535 408 561 379 q 467 463 510 436 q 363 517 425 489 q 249 574 299 546 q 167 635 200 601 q 117 710 133 668 q 100 806 100 751 q 122 908 100 860 q 181 991 143 956 q 269 1047 218 1026 q 382 1067 321 1067 q 553 1019 482 1067 q 665 893 624 972 l 569 838 q 490 928 533 897 q 382 958 447 958 q 262 915 308 958 q 215 806 215 871 q 227 749 215 774 q 265 701 239 724 q 332 656 290 678 q 433 606 374 633 q 556 540 506 574 q 638 467 606 507 q 684 381 669 428 q 699 272 699 333 q 675 153 699 207 q 610 60 651 99 q 513 1 568 22 q 392 -19 457 -19 q 272 -1 326 -19 q 173 49 217 17 q 97 125 129 81 q 46 222 65 169 m 154 1188 l 378 1368 l 601 1188 l 525 1128 l 378 1243 l 231 1128 l 154 1188 z "},"Ș":{"ha":765,"x_min":46,"x_max":699,"o":"m 46 222 l 153 267 q 246 135 185 182 q 392 89 307 89 q 470 103 435 89 q 531 142 506 117 q 569 201 556 167 q 582 274 582 235 q 572 347 582 314 q 535 408 561 379 q 467 463 510 436 q 363 517 425 489 q 249 574 299 546 q 167 635 200 601 q 117 710 133 668 q 100 806 100 751 q 122 908 100 860 q 181 991 143 956 q 269 1047 218 1026 q 382 1067 321 1067 q 553 1019 482 1067 q 665 893 624 972 l 569 838 q 490 928 533 897 q 382 958 447 958 q 262 915 308 958 q 215 806 215 871 q 227 749 215 774 q 265 701 239 724 q 332 656 290 678 q 433 606 374 633 q 556 540 506 574 q 638 467 606 507 q 684 381 669 428 q 699 272 699 333 q 675 153 699 207 q 610 60 651 99 q 513 1 568 22 q 392 -19 457 -19 q 272 -1 326 -19 q 173 49 217 17 q 97 125 129 81 q 46 222 65 169 m 261 -303 l 360 -85 l 451 -128 l 335 -339 l 261 -303 z "},"ẞ":{"ha":1022,"x_min":106,"x_max":956,"o":"m 106 0 l 106 699 q 134 853 106 788 q 215 961 163 918 q 342 1026 268 1004 q 507 1047 415 1047 l 885 1047 l 885 1040 l 640 636 l 757 561 q 842 499 806 531 q 904 431 879 468 q 942 350 929 394 q 956 249 956 306 q 935 138 956 188 q 878 54 915 89 q 792 1 842 19 q 681 -18 742 -18 q 491 31 568 -18 q 374 171 414 81 l 476 225 q 561 124 508 157 q 681 90 614 90 q 795 136 751 90 q 839 251 839 182 q 831 318 839 288 q 801 377 822 349 q 746 434 781 406 q 660 494 711 463 l 504 592 l 504 601 l 714 942 l 507 942 q 295 884 369 942 q 221 700 221 826 l 221 0 l 106 0 z "},"Ə":{"ha":1214,"x_min":76,"x_max":1138,"o":"m 76 579 l 1019 579 q 975 732 1010 663 q 887 851 940 801 q 764 930 833 901 q 617 958 694 958 q 414 919 500 958 q 254 813 328 881 l 175 890 q 367 1017 258 967 q 618 1067 475 1067 q 819 1024 725 1067 q 985 909 914 982 q 1097 737 1056 836 q 1138 522 1138 638 q 1096 310 1138 408 q 983 138 1054 211 q 815 23 911 65 q 608 -19 718 -19 q 381 26 481 -19 q 215 151 282 71 q 112 340 147 231 q 76 576 76 449 l 76 579 m 610 89 q 760 118 689 89 q 885 198 831 147 q 976 319 940 249 q 1019 472 1011 389 l 201 472 q 240 319 208 389 q 324 198 272 249 q 449 118 376 147 q 610 89 521 89 z "},"T":{"ha":646,"x_min":13,"x_max":633,"o":"m 13 1047 l 633 1047 l 633 939 l 381 939 l 381 0 l 267 0 l 267 939 l 13 939 l 13 1047 z "},"Ŧ":{"ha":646,"x_min":13,"x_max":633,"o":"m 13 939 l 13 1047 l 633 1047 l 633 939 l 381 939 l 381 563 l 532 563 l 532 463 l 381 463 l 381 0 l 267 0 l 267 463 l 114 463 l 114 563 l 267 563 l 267 939 l 13 939 z "},"Ť":{"ha":646,"x_min":13,"x_max":633,"o":"m 13 1047 l 633 1047 l 633 939 l 381 939 l 381 0 l 267 0 l 267 939 l 13 939 l 13 1047 m 175 1372 l 324 1247 l 471 1372 l 546 1313 l 324 1124 l 99 1313 l 175 1372 z "},"Ţ":{"ha":646,"x_min":13,"x_max":633,"o":"m 633 1047 l 633 939 l 381 939 l 381 0 l 267 0 l 267 939 l 13 939 l 13 1047 l 633 1047 m 186 -254 l 318 -46 l 401 -96 l 253 -294 l 186 -254 z "},"Ț":{"ha":646,"x_min":13,"x_max":633,"o":"m 633 1047 l 633 939 l 381 939 l 381 0 l 267 0 l 267 939 l 13 939 l 13 1047 l 633 1047 m 210 -303 l 308 -85 l 400 -128 l 283 -339 l 210 -303 z "},"U":{"ha":953,"x_min":106,"x_max":846,"o":"m 106 1047 l 221 1047 l 221 382 q 240 253 221 308 q 292 163 258 199 q 372 108 325 126 q 476 90 419 90 q 662 163 592 90 q 732 386 732 235 l 732 1047 l 846 1047 l 846 371 q 818 207 846 279 q 742 84 790 135 q 625 7 693 33 q 476 -19 557 -19 q 327 8 396 -19 q 210 85 258 35 q 133 207 161 135 q 106 371 106 279 l 106 1047 z "},"Ú":{"ha":953,"x_min":106,"x_max":846,"o":"m 106 1047 l 221 1047 l 221 382 q 240 253 221 308 q 292 163 258 199 q 372 108 325 126 q 476 90 419 90 q 662 163 592 90 q 732 386 732 235 l 732 1047 l 846 1047 l 846 371 q 818 207 846 279 q 742 84 790 135 q 625 7 693 33 q 476 -19 557 -19 q 327 8 396 -19 q 210 85 258 35 q 133 207 161 135 q 106 371 106 279 l 106 1047 m 549 1381 l 649 1315 l 404 1126 l 346 1169 l 549 1381 z "},"Ŭ":{"ha":953,"x_min":106,"x_max":846,"o":"m 221 1047 l 221 382 q 240 253 221 308 q 292 163 258 199 q 372 108 325 126 q 476 90 419 90 q 662 163 592 90 q 732 386 732 235 l 732 1047 l 846 1047 l 846 371 q 818 207 846 279 q 742 84 790 135 q 625 7 693 33 q 476 -19 557 -19 q 327 8 396 -19 q 210 85 258 35 q 133 207 161 135 q 106 371 106 279 l 106 1047 l 221 1047 m 350 1340 q 391 1253 358 1282 q 476 1224 424 1224 q 604 1340 588 1224 l 696 1340 q 626 1186 685 1238 q 475 1135 568 1135 q 326 1188 385 1135 q 258 1340 268 1240 l 350 1340 z "},"Û":{"ha":953,"x_min":106,"x_max":846,"o":"m 221 1047 l 221 382 q 240 253 221 308 q 292 163 258 199 q 372 108 325 126 q 476 90 419 90 q 662 163 592 90 q 732 386 732 235 l 732 1047 l 846 1047 l 846 371 q 818 207 846 279 q 742 84 790 135 q 625 7 693 33 q 476 -19 557 -19 q 327 8 396 -19 q 210 85 258 35 q 133 207 161 135 q 106 371 106 279 l 106 1047 l 221 1047 m 253 1188 l 476 1368 l 700 1188 l 624 1128 l 476 1243 l 329 1128 l 253 1188 z "},"Ü":{"ha":953,"x_min":106,"x_max":846,"o":"m 106 1047 l 221 1047 l 221 382 q 240 253 221 308 q 292 163 258 199 q 372 108 325 126 q 476 90 419 90 q 662 163 592 90 q 732 386 732 235 l 732 1047 l 846 1047 l 846 371 q 818 207 846 279 q 742 84 790 135 q 625 7 693 33 q 476 -19 557 -19 q 327 8 396 -19 q 210 85 258 35 q 133 207 161 135 q 106 371 106 279 l 106 1047 m 614 1308 q 667 1287 644 1308 q 689 1235 689 1265 q 666 1182 689 1203 q 614 1161 643 1161 q 562 1182 583 1161 q 540 1235 540 1203 q 563 1288 540 1267 q 614 1308 586 1308 m 265 1235 q 288 1288 265 1267 q 339 1308 311 1308 q 390 1288 368 1308 q 413 1235 413 1267 q 390 1182 413 1203 q 339 1161 368 1161 q 287 1183 308 1161 q 265 1235 265 1204 z "},"Ù":{"ha":953,"x_min":106,"x_max":846,"o":"m 106 1047 l 221 1047 l 221 382 q 240 253 221 308 q 292 163 258 199 q 372 108 325 126 q 476 90 419 90 q 662 163 592 90 q 732 386 732 235 l 732 1047 l 846 1047 l 846 371 q 818 207 846 279 q 742 84 790 135 q 625 7 693 33 q 476 -19 557 -19 q 327 8 396 -19 q 210 85 258 35 q 133 207 161 135 q 106 371 106 279 l 106 1047 m 410 1382 l 614 1169 l 556 1125 l 311 1317 l 410 1382 z "},"Ű":{"ha":953,"x_min":106,"x_max":846,"o":"m 221 1047 l 221 382 q 240 253 221 308 q 292 163 258 199 q 372 108 325 126 q 476 90 419 90 q 662 163 592 90 q 732 386 732 235 l 732 1047 l 846 1047 l 846 371 q 818 207 846 279 q 742 84 790 135 q 625 7 693 33 q 476 -19 557 -19 q 327 8 396 -19 q 210 85 258 35 q 133 207 161 135 q 106 371 106 279 l 106 1047 l 221 1047 m 632 1397 l 739 1379 l 608 1142 l 549 1158 l 632 1397 m 403 1397 l 510 1379 l 393 1142 l 333 1158 l 403 1397 z "},"Ū":{"ha":953,"x_min":106,"x_max":846,"o":"m 221 1047 l 221 382 q 240 253 221 308 q 292 163 258 199 q 372 108 325 126 q 476 90 419 90 q 662 163 592 90 q 732 386 732 235 l 732 1047 l 846 1047 l 846 371 q 818 207 846 279 q 742 84 790 135 q 625 7 693 33 q 476 -19 557 -19 q 327 8 396 -19 q 210 85 258 35 q 133 207 161 135 q 106 371 106 279 l 106 1047 l 221 1047 m 283 1174 l 283 1261 l 669 1261 l 669 1174 l 283 1174 z "},"Ų":{"ha":953,"x_min":106,"x_max":846,"o":"m 221 1047 l 221 382 q 240 253 221 308 q 292 163 258 199 q 372 108 325 126 q 476 90 419 90 q 662 163 592 90 q 732 386 732 235 l 732 1047 l 846 1047 l 846 371 q 785 139 846 232 q 622 6 725 46 q 515 -73 542 -37 q 488 -143 488 -108 q 506 -189 488 -172 q 554 -206 524 -206 q 601 -199 579 -206 q 643 -183 624 -193 l 675 -254 q 621 -280 651 -269 q 543 -290 590 -290 q 442 -257 485 -290 q 399 -160 399 -224 q 416 -87 399 -124 q 475 -19 433 -51 q 326 8 394 -19 q 210 85 258 35 q 133 207 161 135 q 106 371 106 279 l 106 1047 l 221 1047 z "},"Ů":{"ha":953,"x_min":106,"x_max":846,"o":"m 106 1047 l 221 1047 l 221 382 q 240 253 221 308 q 292 163 258 199 q 372 108 325 126 q 476 90 419 90 q 662 163 592 90 q 732 386 732 235 l 732 1047 l 846 1047 l 846 371 q 818 207 846 279 q 742 84 790 135 q 625 7 693 33 q 476 -19 557 -19 q 327 8 396 -19 q 210 85 258 35 q 133 207 161 135 q 106 371 106 279 l 106 1047 m 332 1232 q 344 1290 332 1264 q 375 1335 356 1315 q 421 1365 394 1354 q 476 1375 447 1375 q 532 1365 506 1375 q 578 1335 558 1354 q 609 1290 597 1315 q 621 1232 621 1264 q 609 1174 621 1201 q 578 1128 597 1147 q 532 1099 558 1110 q 476 1088 506 1088 q 421 1099 447 1088 q 375 1128 394 1110 q 344 1174 356 1147 q 332 1232 332 1201 m 394 1232 q 419 1171 394 1193 q 476 1149 443 1149 q 535 1171 510 1149 q 560 1232 560 1193 q 535 1293 560 1271 q 476 1315 510 1315 q 419 1293 443 1315 q 394 1232 394 1271 z "},"Ũ":{"ha":953,"x_min":106,"x_max":846,"o":"m 221 1047 l 221 382 q 240 253 221 308 q 292 163 258 199 q 372 108 325 126 q 476 90 419 90 q 662 163 592 90 q 732 386 732 235 l 732 1047 l 846 1047 l 846 371 q 818 207 846 279 q 742 84 790 135 q 625 7 693 33 q 476 -19 557 -19 q 327 8 396 -19 q 210 85 258 35 q 133 207 161 135 q 106 371 106 279 l 106 1047 l 221 1047 m 228 1197 q 297 1285 264 1258 q 379 1313 329 1313 q 431 1301 404 1313 q 485 1274 458 1289 q 535 1248 511 1260 q 578 1236 560 1236 q 622 1257 601 1236 q 663 1313 643 1278 l 726 1261 q 662 1174 700 1204 q 574 1143 624 1143 q 522 1154 549 1143 q 469 1179 494 1165 q 418 1204 443 1193 q 372 1215 393 1215 q 328 1196 347 1215 q 293 1143 310 1176 l 228 1197 z "},"V":{"ha":868,"x_min":-6,"x_max":872,"o":"m -6 1047 l 121 1047 l 433 231 l 746 1047 l 872 1047 l 433 -56 l 431 -56 l -6 1047 z "},"W":{"ha":1450,"x_min":6,"x_max":1444,"o":"m 6 1047 l 131 1047 l 422 251 l 719 1081 l 722 1081 l 1017 251 l 1319 1047 l 1444 1047 l 1015 -47 l 1011 -47 l 721 779 l 424 -47 l 421 -47 l 6 1047 z "},"Ẃ":{"ha":1450,"x_min":6,"x_max":1444,"o":"m 6 1047 l 131 1047 l 422 251 l 719 1081 l 722 1081 l 1017 251 l 1319 1047 l 1444 1047 l 1015 -47 l 1011 -47 l 721 779 l 424 -47 l 421 -47 l 6 1047 m 793 1381 l 893 1315 l 649 1126 l 590 1169 l 793 1381 z "},"Ŵ":{"ha":1450,"x_min":6,"x_max":1444,"o":"m 6 1047 l 131 1047 l 422 251 l 719 1081 l 722 1081 l 1017 251 l 1319 1047 l 1444 1047 l 1015 -47 l 1011 -47 l 721 779 l 424 -47 l 421 -47 l 6 1047 m 721 1368 l 944 1188 l 868 1128 l 721 1243 l 574 1128 l 497 1188 l 721 1368 z "},"Ẅ":{"ha":1450,"x_min":6,"x_max":1444,"o":"m 6 1047 l 131 1047 l 422 251 l 719 1081 l 722 1081 l 1017 251 l 1319 1047 l 1444 1047 l 1015 -47 l 1011 -47 l 721 779 l 424 -47 l 421 -47 l 6 1047 m 858 1308 q 911 1287 889 1308 q 933 1235 933 1265 q 910 1182 933 1203 q 858 1161 888 1161 q 806 1182 828 1161 q 785 1235 785 1203 q 808 1288 785 1267 q 858 1308 831 1308 m 510 1235 q 533 1288 510 1267 q 583 1308 556 1308 q 635 1288 613 1308 q 657 1235 657 1267 q 635 1182 657 1203 q 583 1161 613 1161 q 531 1183 553 1161 q 510 1235 510 1204 z "},"Ẁ":{"ha":1450,"x_min":6,"x_max":1444,"o":"m 6 1047 l 131 1047 l 422 251 l 719 1081 l 722 1081 l 1017 251 l 1319 1047 l 1444 1047 l 1015 -47 l 1011 -47 l 721 779 l 424 -47 l 421 -47 l 6 1047 m 556 1317 l 654 1382 l 858 1169 l 800 1125 l 556 1317 z "},"X":{"ha":803,"x_min":15,"x_max":786,"o":"m 15 0 l 340 553 l 53 1047 l 183 1047 l 407 640 l 635 1047 l 767 1047 l 471 553 l 786 0 l 658 0 l 404 463 l 146 0 l 15 0 z "},"Y":{"ha":793,"x_min":-3,"x_max":796,"o":"m 129 1047 l 396 579 l 664 1047 l 796 1047 l 453 460 l 453 0 l 339 0 l 339 460 l -3 1047 l 129 1047 z "},"Ý":{"ha":793,"x_min":-3,"x_max":796,"o":"m 129 1047 l 396 579 l 664 1047 l 796 1047 l 453 460 l 453 0 l 339 0 l 339 460 l -3 1047 l 129 1047 m 265 1169 l 468 1381 l 568 1315 l 324 1126 l 265 1169 z "},"Ŷ":{"ha":793,"x_min":-3,"x_max":796,"o":"m -3 1047 l 129 1047 l 396 579 l 664 1047 l 796 1047 l 453 460 l 453 0 l 339 0 l 339 460 l -3 1047 m 172 1188 l 396 1368 l 619 1188 l 543 1128 l 396 1243 l 249 1128 l 172 1188 z "},"Ÿ":{"ha":793,"x_min":-3,"x_max":796,"o":"m 129 1047 l 396 579 l 664 1047 l 796 1047 l 453 460 l 453 0 l 339 0 l 339 460 l -3 1047 l 129 1047 m 460 1235 q 483 1288 460 1267 q 533 1308 506 1308 q 586 1287 564 1308 q 608 1235 608 1265 q 585 1182 608 1203 q 533 1161 563 1161 q 481 1182 503 1161 q 460 1235 460 1203 m 185 1235 q 208 1288 185 1267 q 258 1308 231 1308 q 310 1288 288 1308 q 332 1235 332 1267 q 310 1182 332 1203 q 258 1161 288 1161 q 206 1183 228 1161 q 185 1235 185 1204 z "},"Ỳ":{"ha":793,"x_min":-3,"x_max":796,"o":"m 129 1047 l 396 579 l 664 1047 l 796 1047 l 453 460 l 453 0 l 339 0 l 339 460 l -3 1047 l 129 1047 m 231 1317 l 329 1382 l 533 1169 l 475 1125 l 231 1317 z "},"Z":{"ha":821,"x_min":21,"x_max":783,"o":"m 21 0 l 21 3 l 594 939 l 101 939 l 101 1047 l 783 1047 l 783 1044 l 211 108 l 778 108 l 778 0 l 21 0 z "},"Ź":{"ha":821,"x_min":21,"x_max":783,"o":"m 368 1126 l 310 1169 l 513 1381 l 613 1315 l 368 1126 m 21 0 l 21 3 l 594 939 l 101 939 l 101 1047 l 783 1047 l 783 1044 l 211 108 l 778 108 l 778 0 l 21 0 z "},"Ž":{"ha":821,"x_min":21,"x_max":783,"o":"m 442 1124 l 217 1313 l 293 1372 l 442 1247 l 589 1372 l 664 1313 l 442 1124 m 21 0 l 21 3 l 594 939 l 101 939 l 101 1047 l 783 1047 l 783 1044 l 211 108 l 778 108 l 778 0 l 21 0 z "},"Ż":{"ha":821,"x_min":21,"x_max":783,"o":"m 594 939 l 101 939 l 101 1047 l 783 1047 l 783 1044 l 211 108 l 778 108 l 778 0 l 21 0 l 21 3 l 594 939 m 439 1313 q 494 1291 471 1313 q 517 1238 517 1269 q 494 1183 517 1206 q 440 1161 472 1161 q 386 1183 408 1161 q 364 1238 364 1206 q 386 1290 364 1268 q 439 1313 408 1313 z "},"a":{"ha":822,"x_min":51,"x_max":721,"o":"m 51 325 q 76 459 51 397 q 143 567 100 521 q 244 638 186 613 q 369 664 301 664 q 501 634 440 664 q 608 536 563 604 l 610 536 l 610 647 l 721 647 l 721 0 l 610 0 l 610 111 l 608 111 q 502 12 563 43 q 372 -19 442 -19 q 244 7 303 -19 q 142 80 185 33 q 76 190 100 126 q 51 325 51 253 m 164 325 q 180 227 164 272 q 226 149 196 182 q 297 99 256 117 q 389 81 339 81 q 481 99 439 81 q 553 149 522 117 q 601 226 583 182 q 618 324 618 271 q 601 420 618 376 q 553 497 583 464 q 481 547 522 529 q 389 565 439 565 q 299 547 340 565 q 227 496 257 528 q 181 419 197 464 q 164 325 164 375 z "},"á":{"ha":822,"x_min":51,"x_max":721,"o":"m 51 325 q 76 459 51 397 q 143 567 100 521 q 244 638 186 613 q 369 664 301 664 q 501 634 440 664 q 608 536 563 604 l 610 536 l 610 647 l 721 647 l 721 0 l 610 0 l 610 111 l 608 111 q 502 12 563 43 q 372 -19 442 -19 q 244 7 303 -19 q 142 80 185 33 q 76 190 100 126 q 51 325 51 253 m 389 81 q 481 99 439 81 q 553 149 522 117 q 601 226 583 182 q 618 324 618 271 q 601 420 618 376 q 553 497 583 464 q 481 547 522 529 q 389 565 439 565 q 299 547 340 565 q 227 496 257 528 q 181 419 197 464 q 164 325 164 375 q 180 227 164 272 q 226 149 196 182 q 297 99 256 117 q 389 81 339 81 m 288 813 l 478 1039 l 582 982 l 349 774 l 288 813 z "},"ă":{"ha":822,"x_min":51,"x_max":721,"o":"m 51 325 q 76 459 51 397 q 143 567 100 521 q 244 638 186 613 q 369 664 301 664 q 501 634 440 664 q 608 536 563 604 l 610 536 l 610 647 l 721 647 l 721 0 l 610 0 l 610 111 l 608 111 q 502 12 563 43 q 372 -19 442 -19 q 244 7 303 -19 q 142 80 185 33 q 76 190 100 126 q 51 325 51 253 m 389 81 q 481 99 439 81 q 553 149 522 117 q 601 226 583 182 q 618 324 618 271 q 601 420 618 376 q 553 497 583 464 q 481 547 522 529 q 389 565 439 565 q 299 547 340 565 q 227 496 257 528 q 181 419 197 464 q 164 325 164 375 q 180 227 164 272 q 226 149 196 182 q 297 99 256 117 q 389 81 339 81 m 275 981 q 316 892 283 922 q 401 863 349 863 q 529 981 513 863 l 621 981 q 551 826 610 876 q 400 775 493 775 q 251 828 310 775 q 183 981 193 881 l 275 981 z "},"â":{"ha":822,"x_min":51,"x_max":721,"o":"m 51 325 q 76 459 51 397 q 143 567 100 521 q 244 638 186 613 q 369 664 301 664 q 501 634 440 664 q 608 536 563 604 l 610 536 l 610 647 l 721 647 l 721 0 l 610 0 l 610 111 l 608 111 q 502 12 563 43 q 372 -19 442 -19 q 244 7 303 -19 q 142 80 185 33 q 76 190 100 126 q 51 325 51 253 m 389 81 q 481 99 439 81 q 553 149 522 117 q 601 226 583 182 q 618 324 618 271 q 601 420 618 376 q 553 497 583 464 q 481 547 522 529 q 389 565 439 565 q 299 547 340 565 q 227 496 257 528 q 181 419 197 464 q 164 325 164 375 q 180 227 164 272 q 226 149 196 182 q 297 99 256 117 q 389 81 339 81 m 401 1033 l 625 833 l 549 774 l 401 908 l 254 774 l 178 833 l 401 1033 z "},"ä":{"ha":822,"x_min":51,"x_max":721,"o":"m 51 325 q 76 459 51 397 q 143 567 100 521 q 244 638 186 613 q 369 664 301 664 q 501 634 440 664 q 608 536 563 604 l 610 536 l 610 647 l 721 647 l 721 0 l 610 0 l 610 111 l 608 111 q 502 12 563 43 q 372 -19 442 -19 q 244 7 303 -19 q 142 80 185 33 q 76 190 100 126 q 51 325 51 253 m 164 325 q 180 227 164 272 q 226 149 196 182 q 297 99 256 117 q 389 81 339 81 q 481 99 439 81 q 553 149 522 117 q 601 226 583 182 q 618 324 618 271 q 601 420 618 376 q 553 497 583 464 q 481 547 522 529 q 389 565 439 565 q 299 547 340 565 q 227 496 257 528 q 181 419 197 464 q 164 325 164 375 m 465 893 q 488 946 465 925 q 539 967 511 967 q 592 945 569 967 q 614 893 614 924 q 591 840 614 861 q 539 819 568 819 q 487 840 508 819 q 465 893 465 861 m 190 893 q 213 946 190 925 q 264 967 236 967 q 315 946 293 967 q 338 893 338 925 q 315 840 338 861 q 264 819 293 819 q 212 841 233 819 q 190 893 190 863 z "},"à":{"ha":822,"x_min":51,"x_max":721,"o":"m 51 325 q 76 459 51 397 q 143 567 100 521 q 244 638 186 613 q 369 664 301 664 q 501 634 440 664 q 608 536 563 604 l 610 536 l 610 647 l 721 647 l 721 0 l 610 0 l 610 111 l 608 111 q 502 12 563 43 q 372 -19 442 -19 q 244 7 303 -19 q 142 80 185 33 q 76 190 100 126 q 51 325 51 253 m 389 81 q 481 99 439 81 q 553 149 522 117 q 601 226 583 182 q 618 324 618 271 q 601 420 618 376 q 553 497 583 464 q 481 547 522 529 q 389 565 439 565 q 299 547 340 565 q 227 496 257 528 q 181 419 197 464 q 164 325 164 375 q 180 227 164 272 q 226 149 196 182 q 297 99 256 117 q 389 81 339 81 m 201 982 l 306 1039 l 496 813 l 433 774 l 201 982 z "},"ā":{"ha":822,"x_min":51,"x_max":721,"o":"m 51 325 q 76 459 51 397 q 143 567 100 521 q 244 638 186 613 q 369 664 301 664 q 501 634 440 664 q 608 536 563 604 l 610 536 l 610 647 l 721 647 l 721 0 l 610 0 l 610 111 l 608 111 q 502 12 563 43 q 372 -19 442 -19 q 244 7 303 -19 q 142 80 185 33 q 76 190 100 126 q 51 325 51 253 m 389 81 q 481 99 439 81 q 553 149 522 117 q 601 226 583 182 q 618 324 618 271 q 601 420 618 376 q 553 497 583 464 q 481 547 522 529 q 389 565 439 565 q 299 547 340 565 q 227 496 257 528 q 181 419 197 464 q 164 325 164 375 q 180 227 164 272 q 226 149 196 182 q 297 99 256 117 q 389 81 339 81 m 204 846 l 204 933 l 600 933 l 600 846 l 204 846 z "},"ą":{"ha":822,"x_min":51,"x_max":765,"o":"m 51 325 q 76 459 51 397 q 143 567 100 521 q 244 638 186 613 q 369 664 301 664 q 501 634 440 664 q 608 536 563 604 l 610 536 l 610 647 l 721 647 l 721 0 l 701 0 q 603 -76 628 -40 q 578 -143 578 -111 q 596 -189 578 -172 q 644 -206 614 -206 q 692 -199 669 -206 q 733 -183 714 -193 l 765 -254 q 711 -280 742 -269 q 633 -290 681 -290 q 532 -257 575 -290 q 489 -160 489 -224 q 516 -72 489 -115 q 610 8 543 -28 l 610 111 l 608 111 q 502 12 563 43 q 372 -19 442 -19 q 244 7 303 -19 q 142 80 185 33 q 76 190 100 126 q 51 325 51 253 m 389 81 q 481 99 439 81 q 553 149 522 117 q 601 226 583 182 q 618 324 618 271 q 601 420 618 376 q 553 497 583 464 q 481 547 522 529 q 389 565 439 565 q 299 547 340 565 q 227 496 257 528 q 181 419 197 464 q 164 325 164 375 q 180 227 164 272 q 226 149 196 182 q 297 99 256 117 q 389 81 339 81 z "},"å":{"ha":822,"x_min":51,"x_max":721,"o":"m 51 325 q 76 459 51 397 q 143 567 100 521 q 244 638 186 613 q 369 664 301 664 q 501 634 440 664 q 608 536 563 604 l 610 536 l 610 647 l 721 647 l 721 0 l 610 0 l 610 111 l 608 111 q 502 12 563 43 q 372 -19 442 -19 q 244 7 303 -19 q 142 80 185 33 q 76 190 100 126 q 51 325 51 253 m 389 81 q 481 99 439 81 q 553 149 522 117 q 601 226 583 182 q 618 324 618 271 q 601 420 618 376 q 553 497 583 464 q 481 547 522 529 q 389 565 439 565 q 299 547 340 565 q 227 496 257 528 q 181 419 197 464 q 164 325 164 375 q 180 227 164 272 q 226 149 196 182 q 297 99 256 117 q 389 81 339 81 m 246 922 q 258 984 246 956 q 292 1033 271 1013 q 342 1065 314 1053 q 401 1076 371 1076 q 461 1065 433 1076 q 510 1033 489 1053 q 543 984 531 1013 q 556 922 556 956 q 543 860 556 889 q 510 812 531 832 q 461 780 489 792 q 401 768 433 768 q 342 780 371 768 q 292 812 314 792 q 258 860 271 832 q 246 922 246 889 m 401 839 q 460 861 435 839 q 485 922 485 883 q 460 983 485 961 q 401 1006 435 1006 q 344 983 368 1006 q 319 922 319 961 q 344 861 319 883 q 401 839 368 839 z "},"ǻ":{"ha":822,"x_min":51,"x_max":721,"o":"m 51 325 q 76 459 51 397 q 143 567 100 521 q 244 638 186 613 q 369 664 301 664 q 501 634 440 664 q 608 536 563 604 l 610 536 l 610 647 l 721 647 l 721 0 l 610 0 l 610 111 l 608 111 q 502 12 563 43 q 372 -19 442 -19 q 244 7 303 -19 q 142 80 185 33 q 76 190 100 126 q 51 325 51 253 m 164 325 q 180 227 164 272 q 226 149 196 182 q 297 99 256 117 q 389 81 339 81 q 481 99 439 81 q 553 149 522 117 q 601 226 583 182 q 618 324 618 271 q 601 420 618 376 q 553 497 583 464 q 481 547 522 529 q 389 565 439 565 q 299 547 340 565 q 227 496 257 528 q 181 419 197 464 q 164 325 164 375 m 246 922 q 258 984 246 956 q 292 1033 271 1013 q 342 1065 314 1053 q 401 1076 371 1076 q 461 1065 433 1076 q 510 1033 489 1053 q 543 984 531 1013 q 556 922 556 956 q 543 860 556 889 q 510 812 531 832 q 461 780 489 792 q 401 768 433 768 q 342 780 371 768 q 292 812 314 792 q 258 860 271 832 q 246 922 246 889 m 278 1140 l 467 1367 l 571 1310 l 339 1101 l 278 1140 m 401 839 q 460 861 435 839 q 485 922 485 883 q 460 983 485 961 q 401 1006 435 1006 q 344 983 368 1006 q 319 922 319 961 q 344 861 319 883 q 401 839 368 839 z "},"ã":{"ha":822,"x_min":51,"x_max":721,"o":"m 369 664 q 501 634 440 664 q 608 536 563 604 l 610 536 l 610 647 l 721 647 l 721 0 l 610 0 l 610 111 l 608 111 q 502 12 563 43 q 372 -19 442 -19 q 244 7 303 -19 q 142 80 185 33 q 76 190 100 126 q 51 325 51 253 q 76 459 51 397 q 143 567 100 521 q 244 638 186 613 q 369 664 301 664 m 389 81 q 481 99 439 81 q 553 149 522 117 q 601 226 583 182 q 618 324 618 271 q 601 420 618 376 q 553 497 583 464 q 481 547 522 529 q 389 565 439 565 q 299 547 340 565 q 227 496 257 528 q 181 419 197 464 q 164 325 164 375 q 180 227 164 272 q 226 149 196 182 q 297 99 256 117 q 389 81 339 81 m 304 968 q 356 956 329 968 q 410 930 383 944 q 460 903 436 915 q 503 892 485 892 q 547 913 526 892 q 588 968 568 933 l 651 917 q 587 829 625 860 q 499 799 549 799 q 447 810 474 799 q 394 835 419 822 q 343 860 368 849 q 297 872 318 872 q 253 852 272 872 q 218 799 235 832 l 153 853 q 222 941 189 914 q 304 968 254 968 z "},"æ":{"ha":1149,"x_min":46,"x_max":1099,"o":"m 46 201 q 64 293 46 253 q 115 360 82 333 q 195 402 149 388 q 297 417 242 417 q 404 399 357 417 q 483 351 451 382 l 483 407 q 442 527 483 489 q 328 565 400 565 q 222 550 268 565 q 136 513 175 535 l 96 604 q 208 649 149 632 q 342 665 267 665 q 477 633 424 665 q 554 540 531 601 q 656 632 594 599 q 794 665 717 665 q 924 640 867 665 q 1019 570 981 615 q 1078 465 1058 525 q 1099 333 1099 404 l 1099 303 l 594 303 q 610 214 596 254 q 651 144 625 174 q 715 99 678 115 q 799 83 753 83 q 912 113 868 83 q 996 200 956 142 l 1085 146 q 968 25 1036 67 q 796 -17 900 -17 q 644 20 710 -17 q 540 124 578 57 q 436 15 504 47 q 288 -17 368 -17 q 190 -1 235 -17 q 114 42 146 14 q 64 110 82 69 q 46 201 46 150 m 311 69 q 435 106 386 69 q 485 207 485 143 q 436 300 485 269 q 314 331 388 331 q 253 322 282 331 q 204 298 225 314 q 171 258 183 282 q 158 200 158 233 q 201 101 158 133 q 311 69 244 69 m 985 394 q 928 516 978 467 q 796 565 878 565 q 666 518 717 565 q 601 394 615 471 l 985 394 z "},"ǽ":{"ha":1149,"x_min":46,"x_max":1099,"o":"m 46 201 q 64 293 46 253 q 115 360 82 333 q 195 402 149 388 q 297 417 242 417 q 404 399 357 417 q 483 351 451 382 l 483 407 q 442 527 483 489 q 328 565 400 565 q 222 550 268 565 q 136 513 175 535 l 96 604 q 208 649 149 632 q 342 665 267 665 q 477 633 424 665 q 554 540 531 601 q 656 632 594 599 q 794 665 717 665 q 924 640 867 665 q 1019 570 981 615 q 1078 465 1058 525 q 1099 333 1099 404 l 1099 303 l 594 303 q 610 214 596 254 q 651 144 625 174 q 715 99 678 115 q 799 83 753 83 q 912 113 868 83 q 996 200 956 142 l 1085 146 q 968 25 1036 67 q 796 -17 900 -17 q 644 20 710 -17 q 540 124 578 57 q 436 15 504 47 q 288 -17 368 -17 q 190 -1 235 -17 q 114 42 146 14 q 64 110 82 69 q 46 201 46 150 m 158 200 q 201 101 158 133 q 311 69 244 69 q 435 106 386 69 q 485 207 485 143 q 436 300 485 269 q 314 331 388 331 q 253 322 282 331 q 204 298 225 314 q 171 258 183 282 q 158 200 158 233 m 601 394 l 985 394 q 928 516 978 467 q 796 565 878 565 q 666 518 717 565 q 601 394 615 471 m 458 813 l 649 1039 l 753 982 l 519 774 l 458 813 z "},"b":{"ha":822,"x_min":100,"x_max":771,"o":"m 100 1139 l 211 1139 l 211 538 l 213 538 q 320 635 260 604 q 450 665 381 665 q 578 639 519 665 q 679 567 636 613 q 747 458 722 521 q 771 324 771 396 q 747 189 771 251 q 680 81 722 126 q 579 9 638 35 q 453 -17 521 -17 q 321 13 382 -17 q 213 111 260 43 l 211 111 l 211 0 l 100 0 l 100 1139 m 204 325 q 222 228 204 272 q 269 151 239 183 q 342 100 300 118 q 433 82 383 82 q 523 101 482 82 q 594 151 564 119 q 640 228 624 183 q 657 324 657 272 q 641 420 657 376 q 596 497 625 464 q 525 547 567 529 q 433 565 483 565 q 342 547 383 565 q 269 497 300 529 q 222 422 239 465 q 204 325 204 378 z "},"c":{"ha":643,"x_min":51,"x_max":576,"o":"m 51 322 q 76 458 51 396 q 147 567 101 521 q 256 639 192 613 q 397 665 319 665 q 499 651 453 665 q 576 617 544 638 l 576 490 q 495 547 538 528 q 394 565 453 565 q 299 547 342 565 q 226 496 257 528 q 180 419 196 464 q 164 324 164 375 q 179 227 164 272 q 224 150 194 182 q 295 99 253 118 q 392 81 338 81 q 492 99 449 81 q 576 153 536 117 l 576 32 q 497 -6 543 8 q 397 -19 450 -19 q 256 6 319 -19 q 147 78 192 32 q 76 186 101 124 q 51 322 51 249 z "},"ć":{"ha":643,"x_min":51,"x_max":576,"o":"m 51 322 q 76 458 51 396 q 147 567 101 521 q 256 639 192 613 q 397 665 319 665 q 499 651 453 665 q 576 617 544 638 l 576 490 q 495 547 538 528 q 394 565 453 565 q 299 547 342 565 q 226 496 257 528 q 180 419 196 464 q 164 324 164 375 q 179 227 164 272 q 224 150 194 182 q 295 99 253 118 q 392 81 338 81 q 492 99 449 81 q 576 153 536 117 l 576 32 q 497 -6 543 8 q 397 -19 450 -19 q 256 6 319 -19 q 147 78 192 32 q 76 186 101 124 q 51 322 51 249 m 268 813 l 458 1039 l 563 982 l 329 774 l 268 813 z "},"č":{"ha":643,"x_min":51,"x_max":606,"o":"m 51 322 q 76 458 51 396 q 147 567 101 521 q 256 639 192 613 q 397 665 319 665 q 499 651 453 665 q 576 617 544 638 l 576 490 q 495 547 538 528 q 394 565 453 565 q 299 547 342 565 q 226 496 257 528 q 180 419 196 464 q 164 324 164 375 q 179 227 164 272 q 224 150 194 182 q 295 99 253 118 q 392 81 338 81 q 492 99 449 81 q 576 153 536 117 l 576 32 q 497 -6 543 8 q 397 -19 450 -19 q 256 6 319 -19 q 147 78 192 32 q 76 186 101 124 q 51 322 51 249 m 235 1029 l 383 894 l 531 1029 l 606 971 l 383 771 l 158 971 l 235 1029 z "},"ç":{"ha":643,"x_min":51,"x_max":576,"o":"m 51 322 q 76 458 51 396 q 147 567 101 521 q 256 639 192 613 q 397 665 319 665 q 499 651 453 665 q 576 617 544 638 l 576 490 q 495 547 538 528 q 394 565 453 565 q 299 547 342 565 q 226 496 257 528 q 180 419 196 464 q 164 324 164 375 q 179 227 164 272 q 224 150 194 182 q 295 99 253 118 q 392 81 338 81 q 492 99 449 81 q 576 153 536 117 l 576 32 q 497 -6 543 8 q 397 -19 450 -19 q 256 6 319 -19 q 147 78 192 32 q 76 186 101 124 q 51 322 51 249 m 378 -46 l 461 -96 l 313 -294 l 246 -254 l 378 -46 z "},"ĉ":{"ha":643,"x_min":51,"x_max":606,"o":"m 51 322 q 76 458 51 396 q 147 567 101 521 q 256 639 192 613 q 397 665 319 665 q 499 651 453 665 q 576 617 544 638 l 576 490 q 495 547 538 528 q 394 565 453 565 q 299 547 342 565 q 226 496 257 528 q 180 419 196 464 q 164 324 164 375 q 179 227 164 272 q 224 150 194 182 q 295 99 253 118 q 392 81 338 81 q 492 99 449 81 q 576 153 536 117 l 576 32 q 497 -6 543 8 q 397 -19 450 -19 q 256 6 319 -19 q 147 78 192 32 q 76 186 101 124 q 51 322 51 249 m 382 1033 l 606 833 l 529 774 l 382 908 l 235 774 l 158 833 l 382 1033 z "},"ċ":{"ha":643,"x_min":51,"x_max":576,"o":"m 51 322 q 76 458 51 396 q 147 567 101 521 q 256 639 192 613 q 397 665 319 665 q 499 651 453 665 q 576 617 544 638 l 576 490 q 495 547 538 528 q 394 565 453 565 q 299 547 342 565 q 226 496 257 528 q 180 419 196 464 q 164 324 164 375 q 179 227 164 272 q 224 150 194 182 q 295 99 253 118 q 392 81 338 81 q 492 99 449 81 q 576 153 536 117 l 576 32 q 497 -6 543 8 q 397 -19 450 -19 q 256 6 319 -19 q 147 78 192 32 q 76 186 101 124 q 51 322 51 249 m 306 925 q 328 978 306 956 q 381 1000 350 1000 q 435 978 413 1000 q 458 925 458 957 q 436 871 458 893 q 382 849 414 849 q 328 871 350 849 q 306 925 306 893 z "},"d":{"ha":822,"x_min":51,"x_max":721,"o":"m 51 324 q 76 458 51 396 q 142 567 100 521 q 244 639 185 613 q 372 665 303 665 q 502 635 442 665 q 608 538 563 604 l 610 538 l 610 1139 l 721 1139 l 721 0 l 610 0 l 610 111 l 608 111 q 501 13 561 43 q 369 -17 440 -17 q 244 9 301 -17 q 143 81 186 35 q 76 189 100 126 q 51 324 51 251 m 164 324 q 181 228 164 272 q 227 151 197 183 q 299 101 257 119 q 389 82 340 82 q 481 100 439 82 q 553 151 522 118 q 601 228 583 183 q 618 325 618 272 q 601 422 618 378 q 553 497 583 465 q 481 547 522 529 q 389 565 439 565 q 297 547 339 565 q 226 497 256 529 q 180 420 196 464 q 164 324 164 376 z "},"ð":{"ha":788,"x_min":51,"x_max":736,"o":"m 393 664 q 492 646 443 664 q 574 594 542 628 q 483 760 539 682 q 349 904 426 839 l 182 817 l 140 889 l 275 960 q 182 1015 231 990 q 81 1060 133 1040 l 136 1147 q 261 1090 201 1124 q 378 1014 321 1056 l 528 1093 l 567 1018 l 447 956 q 566 826 513 896 q 657 681 619 757 q 715 526 694 606 q 736 364 736 446 q 711 199 736 271 q 641 78 686 126 q 533 6 596 31 q 396 -19 471 -19 q 260 6 324 -19 q 151 78 197 32 q 78 186 104 124 q 51 322 51 249 q 78 458 51 396 q 150 567 104 521 q 258 638 196 613 q 393 664 321 664 m 164 325 q 181 224 164 269 q 228 147 199 179 q 301 98 258 115 q 393 81 343 81 q 485 98 443 81 q 558 149 528 115 q 606 229 589 182 q 624 336 624 276 q 606 428 624 386 q 559 500 589 469 q 487 547 529 531 q 394 564 444 564 q 302 546 344 564 q 229 496 260 528 q 181 420 199 464 q 164 325 164 376 z "},"ď":{"ha":822,"x_min":51,"x_max":949,"o":"m 51 324 q 76 458 51 396 q 142 567 100 521 q 244 639 185 613 q 372 665 303 665 q 502 635 442 665 q 608 538 563 604 l 610 538 l 610 1139 l 721 1139 l 721 0 l 610 0 l 610 111 l 608 111 q 501 13 561 43 q 369 -17 440 -17 q 244 9 301 -17 q 143 81 186 35 q 76 189 100 126 q 51 324 51 251 m 389 82 q 481 100 439 82 q 553 151 522 118 q 601 228 583 183 q 618 325 618 272 q 601 422 618 378 q 553 497 583 465 q 481 547 522 529 q 389 565 439 565 q 297 547 339 565 q 226 497 256 529 q 180 420 196 464 q 164 324 164 376 q 181 228 164 272 q 227 151 197 183 q 299 101 257 119 q 389 82 340 82 m 781 842 l 842 1085 l 949 1051 l 850 822 l 781 842 z "},"đ":{"ha":822,"x_min":51,"x_max":829,"o":"m 372 665 q 502 635 442 665 q 608 538 563 604 l 610 538 l 610 886 l 413 886 l 413 961 l 610 961 l 610 1139 l 721 1139 l 721 961 l 829 961 l 829 886 l 721 886 l 721 0 l 610 0 l 610 111 l 608 111 q 501 13 561 43 q 369 -17 440 -17 q 244 9 301 -17 q 143 81 186 35 q 76 189 100 126 q 51 324 51 251 q 76 458 51 396 q 142 567 100 521 q 244 639 185 613 q 372 665 303 665 m 389 82 q 481 100 439 82 q 553 151 522 118 q 601 228 583 183 q 618 325 618 272 q 601 422 618 378 q 553 497 583 465 q 481 547 522 529 q 389 565 439 565 q 297 547 339 565 q 226 497 256 529 q 180 420 196 464 q 164 324 164 376 q 181 228 164 272 q 227 151 197 183 q 299 101 257 119 q 389 82 340 82 z "},"e":{"ha":721,"x_min":51,"x_max":671,"o":"m 367 665 q 496 640 439 665 q 592 570 553 615 q 651 465 631 525 q 671 333 671 404 l 671 303 l 167 303 q 183 213 168 254 q 225 143 199 172 q 289 97 251 114 q 374 81 326 81 q 485 110 440 81 q 564 194 531 139 l 656 139 q 542 22 611 64 q 369 -19 472 -19 q 239 6 297 -19 q 139 76 181 31 q 74 184 97 121 q 51 324 51 247 q 74 461 51 399 q 139 569 97 524 q 238 640 181 615 q 367 665 296 665 m 174 394 l 557 394 q 500 516 550 467 q 368 565 450 565 q 238 517 289 565 q 174 394 188 469 z "},"é":{"ha":721,"x_min":51,"x_max":671,"o":"m 367 665 q 496 640 439 665 q 592 570 553 615 q 651 465 631 525 q 671 333 671 404 l 671 303 l 167 303 q 183 213 168 254 q 225 143 199 172 q 289 97 251 114 q 374 81 326 81 q 485 110 440 81 q 564 194 531 139 l 656 139 q 542 22 611 64 q 369 -19 472 -19 q 239 6 297 -19 q 139 76 181 31 q 74 184 97 121 q 51 324 51 247 q 74 461 51 399 q 139 569 97 524 q 238 640 181 615 q 367 665 296 665 m 174 394 l 557 394 q 500 516 550 467 q 368 565 450 565 q 238 517 289 565 q 174 394 188 469 m 250 813 l 440 1039 l 544 982 l 311 774 l 250 813 z "},"ĕ":{"ha":721,"x_min":51,"x_max":671,"o":"m 51 324 q 74 461 51 399 q 139 569 97 524 q 238 640 181 615 q 367 665 296 665 q 496 640 439 665 q 592 570 553 615 q 651 465 631 525 q 671 333 671 404 l 671 303 l 167 303 q 183 213 168 254 q 225 143 199 172 q 289 97 251 114 q 374 81 326 81 q 485 110 440 81 q 564 194 531 139 l 656 139 q 542 22 611 64 q 369 -19 472 -19 q 239 6 297 -19 q 139 76 181 31 q 74 184 97 121 q 51 324 51 247 m 174 394 l 557 394 q 500 516 550 467 q 368 565 450 565 q 238 517 289 565 q 174 394 188 469 m 146 981 l 238 981 q 278 892 246 922 q 364 863 311 863 q 492 981 475 863 l 583 981 q 514 826 572 876 q 363 775 456 775 q 214 828 272 775 q 146 981 156 881 z "},"ě":{"ha":721,"x_min":51,"x_max":671,"o":"m 367 665 q 496 640 439 665 q 592 570 553 615 q 651 465 631 525 q 671 333 671 404 l 671 303 l 167 303 q 183 213 168 254 q 225 143 199 172 q 289 97 251 114 q 374 81 326 81 q 485 110 440 81 q 564 194 531 139 l 656 139 q 542 22 611 64 q 369 -19 472 -19 q 239 6 297 -19 q 139 76 181 31 q 74 184 97 121 q 51 324 51 247 q 74 461 51 399 q 139 569 97 524 q 238 640 181 615 q 367 665 296 665 m 557 394 q 500 516 550 467 q 368 565 450 565 q 238 517 289 565 q 174 394 188 469 l 557 394 m 217 1029 l 365 894 l 513 1029 l 588 971 l 365 771 l 140 971 l 217 1029 z "},"ê":{"ha":721,"x_min":51,"x_max":671,"o":"m 367 665 q 496 640 439 665 q 592 570 553 615 q 651 465 631 525 q 671 333 671 404 l 671 303 l 167 303 q 183 213 168 254 q 225 143 199 172 q 289 97 251 114 q 374 81 326 81 q 485 110 440 81 q 564 194 531 139 l 656 139 q 542 22 611 64 q 369 -19 472 -19 q 239 6 297 -19 q 139 76 181 31 q 74 184 97 121 q 51 324 51 247 q 74 461 51 399 q 139 569 97 524 q 238 640 181 615 q 367 665 296 665 m 557 394 q 500 516 550 467 q 368 565 450 565 q 238 517 289 565 q 174 394 188 469 l 557 394 m 364 1033 l 588 833 l 511 774 l 364 908 l 217 774 l 140 833 l 364 1033 z "},"ë":{"ha":721,"x_min":51,"x_max":671,"o":"m 51 324 q 74 461 51 399 q 139 569 97 524 q 238 640 181 615 q 367 665 296 665 q 496 640 439 665 q 592 570 553 615 q 651 465 631 525 q 671 333 671 404 l 671 303 l 167 303 q 183 213 168 254 q 225 143 199 172 q 289 97 251 114 q 374 81 326 81 q 485 110 440 81 q 564 194 531 139 l 656 139 q 542 22 611 64 q 369 -19 472 -19 q 239 6 297 -19 q 139 76 181 31 q 74 184 97 121 q 51 324 51 247 m 174 394 l 557 394 q 500 516 550 467 q 368 565 450 565 q 238 517 289 565 q 174 394 188 469 m 428 893 q 451 946 428 925 q 501 967 474 967 q 554 945 532 967 q 576 893 576 924 q 553 840 576 861 q 501 819 531 819 q 449 840 471 819 q 428 893 428 861 m 153 893 q 176 946 153 925 q 226 967 199 967 q 278 946 256 967 q 300 893 300 925 q 278 840 300 861 q 226 819 256 819 q 174 841 196 819 q 153 893 153 863 z "},"ė":{"ha":721,"x_min":51,"x_max":671,"o":"m 367 665 q 496 640 439 665 q 592 570 553 615 q 651 465 631 525 q 671 333 671 404 l 671 303 l 167 303 q 183 213 168 254 q 225 143 199 172 q 289 97 251 114 q 374 81 326 81 q 485 110 440 81 q 564 194 531 139 l 656 139 q 542 22 611 64 q 369 -19 472 -19 q 239 6 297 -19 q 139 76 181 31 q 74 184 97 121 q 51 324 51 247 q 74 461 51 399 q 139 569 97 524 q 238 640 181 615 q 367 665 296 665 m 174 394 l 557 394 q 500 516 550 467 q 368 565 450 565 q 238 517 289 565 q 174 394 188 469 m 364 1000 q 419 978 396 1000 q 442 925 442 957 q 419 871 442 893 q 365 849 397 849 q 311 871 333 849 q 289 925 289 893 q 311 978 289 956 q 364 1000 333 1000 z "},"è":{"ha":721,"x_min":51,"x_max":671,"o":"m 367 665 q 496 640 439 665 q 592 570 553 615 q 651 465 631 525 q 671 333 671 404 l 671 303 l 167 303 q 183 213 168 254 q 225 143 199 172 q 289 97 251 114 q 374 81 326 81 q 485 110 440 81 q 564 194 531 139 l 656 139 q 542 22 611 64 q 369 -19 472 -19 q 239 6 297 -19 q 139 76 181 31 q 74 184 97 121 q 51 324 51 247 q 74 461 51 399 q 139 569 97 524 q 238 640 181 615 q 367 665 296 665 m 174 394 l 557 394 q 500 516 550 467 q 368 565 450 565 q 238 517 289 565 q 174 394 188 469 m 268 1039 l 458 813 l 396 774 l 164 982 l 268 1039 z "},"ē":{"ha":721,"x_min":51,"x_max":671,"o":"m 51 324 q 74 461 51 399 q 139 569 97 524 q 238 640 181 615 q 367 665 296 665 q 496 640 439 665 q 592 570 553 615 q 651 465 631 525 q 671 333 671 404 l 671 303 l 167 303 q 183 213 168 254 q 225 143 199 172 q 289 97 251 114 q 374 81 326 81 q 485 110 440 81 q 564 194 531 139 l 656 139 q 542 22 611 64 q 369 -19 472 -19 q 239 6 297 -19 q 139 76 181 31 q 74 184 97 121 q 51 324 51 247 m 557 394 q 500 516 550 467 q 368 565 450 565 q 238 517 289 565 q 174 394 188 469 l 557 394 m 564 933 l 564 846 l 168 846 l 168 933 l 564 933 z "},"ę":{"ha":721,"x_min":51,"x_max":671,"o":"m 51 324 q 74 461 51 399 q 139 569 97 524 q 238 640 181 615 q 367 665 296 665 q 496 640 439 665 q 592 570 553 615 q 651 465 631 525 q 671 333 671 404 l 671 303 l 167 303 q 183 213 168 254 q 225 143 199 172 q 289 97 251 114 q 374 81 326 81 q 485 110 440 81 q 564 194 531 139 l 656 139 q 594 61 629 94 q 514 8 558 28 q 403 -72 432 -36 q 375 -143 375 -108 q 393 -189 375 -172 q 442 -206 411 -206 q 489 -199 467 -206 q 531 -183 511 -193 l 563 -254 q 508 -280 539 -269 q 431 -290 478 -290 q 329 -257 372 -290 q 286 -160 286 -224 q 303 -87 286 -124 q 363 -19 321 -51 q 235 8 292 -18 q 137 78 178 33 q 74 186 96 124 q 51 324 51 249 m 174 394 l 557 394 q 500 516 550 467 q 368 565 450 565 q 238 517 289 565 q 174 394 188 469 z "},"ə":{"ha":724,"x_min":54,"x_max":674,"o":"m 557 344 q 499 504 554 442 q 350 567 444 567 q 238 536 283 567 q 150 440 192 506 l 61 490 q 181 622 111 578 q 354 667 251 667 q 485 642 426 667 q 586 572 544 617 q 651 463 628 526 q 674 325 674 400 q 651 187 674 250 q 586 78 628 124 q 486 7 544 32 q 357 -18 428 -18 q 228 7 285 -18 q 133 77 172 32 q 74 183 94 122 q 54 314 54 243 l 54 344 l 557 344 m 168 253 q 224 131 175 181 q 357 82 274 82 q 487 130 436 82 q 550 253 538 178 l 168 253 z "},"f":{"ha":433,"x_min":18,"x_max":439,"o":"m 18 647 l 138 647 l 138 888 q 153 1010 138 960 q 197 1092 169 1061 q 263 1138 225 1124 q 344 1153 301 1153 q 439 1139 400 1153 l 439 1033 q 365 1049 404 1049 q 281 1010 314 1049 q 249 872 249 971 l 249 647 l 418 647 l 418 543 l 249 543 l 249 0 l 138 0 l 138 543 l 18 543 l 18 647 z "},"g":{"ha":813,"x_min":58,"x_max":711,"o":"m 358 664 q 497 631 438 664 q 599 536 557 597 l 600 536 l 600 647 l 711 647 l 711 -3 q 632 -272 711 -175 q 386 -369 553 -369 q 265 -353 321 -369 q 168 -306 210 -337 q 100 -224 126 -274 q 67 -108 74 -175 l 178 -99 q 247 -229 193 -190 q 388 -268 301 -268 q 547 -203 494 -268 q 600 -17 600 -139 l 600 111 l 599 111 q 499 16 558 51 q 361 -19 440 -19 q 240 7 296 -19 q 144 79 185 33 q 81 188 104 125 q 58 325 58 251 q 81 459 58 397 q 144 567 104 521 q 240 638 185 613 q 358 664 294 664 m 386 81 q 474 98 433 81 q 544 147 514 115 q 591 223 574 178 q 608 324 608 268 q 591 423 608 378 q 544 499 574 468 q 474 548 514 531 q 388 565 433 565 q 301 547 340 565 q 233 496 261 528 q 188 419 204 464 q 172 325 172 375 q 188 227 172 272 q 231 149 203 182 q 299 99 260 117 q 386 81 339 81 z "},"ǵ":{"ha":813,"x_min":58,"x_max":711,"o":"m 58 325 q 81 459 58 397 q 144 567 104 521 q 240 638 185 613 q 358 664 294 664 q 497 631 438 664 q 599 536 557 597 l 600 536 l 600 647 l 711 647 l 711 -3 q 632 -272 711 -175 q 386 -369 553 -369 q 265 -353 321 -369 q 168 -306 210 -337 q 100 -224 126 -274 q 67 -108 74 -175 l 178 -99 q 247 -229 193 -190 q 388 -268 301 -268 q 547 -203 494 -268 q 600 -17 600 -139 l 600 111 l 599 111 q 499 16 558 51 q 361 -19 440 -19 q 240 7 296 -19 q 144 79 185 33 q 81 188 104 125 q 58 325 58 251 m 172 325 q 188 227 172 272 q 231 149 203 182 q 299 99 260 117 q 386 81 339 81 q 474 98 433 81 q 544 147 514 115 q 591 223 574 178 q 608 324 608 268 q 591 423 608 378 q 544 499 574 468 q 474 548 514 531 q 388 565 433 565 q 301 547 340 565 q 233 496 261 528 q 188 419 204 464 q 172 325 172 375 m 275 813 l 465 1039 l 569 982 l 336 774 l 275 813 z "},"ğ":{"ha":813,"x_min":58,"x_max":711,"o":"m 58 325 q 81 459 58 397 q 144 567 104 521 q 240 638 185 613 q 358 664 294 664 q 497 631 438 664 q 599 536 557 597 l 600 536 l 600 647 l 711 647 l 711 -3 q 632 -272 711 -175 q 386 -369 553 -369 q 265 -353 321 -369 q 168 -306 210 -337 q 100 -224 126 -274 q 67 -108 74 -175 l 178 -99 q 247 -229 193 -190 q 388 -268 301 -268 q 547 -203 494 -268 q 600 -17 600 -139 l 600 111 l 599 111 q 499 16 558 51 q 361 -19 440 -19 q 240 7 296 -19 q 144 79 185 33 q 81 188 104 125 q 58 325 58 251 m 386 81 q 474 98 433 81 q 544 147 514 115 q 591 223 574 178 q 608 324 608 268 q 591 423 608 378 q 544 499 574 468 q 474 548 514 531 q 388 565 433 565 q 301 547 340 565 q 233 496 261 528 q 188 419 204 464 q 172 325 172 375 q 188 227 172 272 q 231 149 203 182 q 299 99 260 117 q 386 81 339 81 m 263 981 q 303 892 271 922 q 389 863 336 863 q 517 981 500 863 l 608 981 q 539 826 597 876 q 388 775 481 775 q 239 828 297 775 q 171 981 181 881 l 263 981 z "},"ĝ":{"ha":813,"x_min":58,"x_max":711,"o":"m 58 325 q 81 459 58 397 q 144 567 104 521 q 240 638 185 613 q 358 664 294 664 q 497 631 438 664 q 599 536 557 597 l 600 536 l 600 647 l 711 647 l 711 -3 q 632 -272 711 -175 q 386 -369 553 -369 q 265 -353 321 -369 q 168 -306 210 -337 q 100 -224 126 -274 q 67 -108 74 -175 l 178 -99 q 247 -229 193 -190 q 388 -268 301 -268 q 547 -203 494 -268 q 600 -17 600 -139 l 600 111 l 599 111 q 499 16 558 51 q 361 -19 440 -19 q 240 7 296 -19 q 144 79 185 33 q 81 188 104 125 q 58 325 58 251 m 172 325 q 188 227 172 272 q 231 149 203 182 q 299 99 260 117 q 386 81 339 81 q 474 98 433 81 q 544 147 514 115 q 591 223 574 178 q 608 324 608 268 q 591 423 608 378 q 544 499 574 468 q 474 548 514 531 q 388 565 433 565 q 301 547 340 565 q 233 496 261 528 q 188 419 204 464 q 172 325 172 375 m 389 1033 l 613 833 l 536 774 l 389 908 l 242 774 l 165 833 l 389 1033 z "},"ģ":{"ha":813,"x_min":58,"x_max":711,"o":"m 58 325 q 81 459 58 397 q 144 567 104 521 q 240 638 185 613 q 358 664 294 664 q 497 631 438 664 q 599 536 557 597 l 600 536 l 600 647 l 711 647 l 711 -3 q 632 -272 711 -175 q 386 -369 553 -369 q 265 -353 321 -369 q 168 -306 210 -337 q 100 -224 126 -274 q 67 -108 74 -175 l 178 -99 q 247 -229 193 -190 q 388 -268 301 -268 q 547 -203 494 -268 q 600 -17 600 -139 l 600 111 l 599 111 q 499 16 558 51 q 361 -19 440 -19 q 240 7 296 -19 q 144 79 185 33 q 81 188 104 125 q 58 325 58 251 m 172 325 q 188 227 172 272 q 231 149 203 182 q 299 99 260 117 q 386 81 339 81 q 474 98 433 81 q 544 147 514 115 q 591 223 574 178 q 608 324 608 268 q 591 423 608 378 q 544 499 574 468 q 474 548 514 531 q 388 565 433 565 q 301 547 340 565 q 233 496 261 528 q 188 419 204 464 q 172 325 172 375 m 439 1056 l 513 1021 l 414 793 l 310 838 l 439 1056 z "},"ġ":{"ha":813,"x_min":58,"x_max":711,"o":"m 58 325 q 81 459 58 397 q 144 567 104 521 q 240 638 185 613 q 358 664 294 664 q 497 631 438 664 q 599 536 557 597 l 600 536 l 600 647 l 711 647 l 711 -3 q 632 -272 711 -175 q 386 -369 553 -369 q 265 -353 321 -369 q 168 -306 210 -337 q 100 -224 126 -274 q 67 -108 74 -175 l 178 -99 q 247 -229 193 -190 q 388 -268 301 -268 q 547 -203 494 -268 q 600 -17 600 -139 l 600 111 l 599 111 q 499 16 558 51 q 361 -19 440 -19 q 240 7 296 -19 q 144 79 185 33 q 81 188 104 125 q 58 325 58 251 m 386 81 q 474 98 433 81 q 544 147 514 115 q 591 223 574 178 q 608 324 608 268 q 591 423 608 378 q 544 499 574 468 q 474 548 514 531 q 388 565 433 565 q 301 547 340 565 q 233 496 261 528 q 188 419 204 464 q 172 325 172 375 q 188 227 172 272 q 231 149 203 182 q 299 99 260 117 q 386 81 339 81 m 314 925 q 336 978 314 956 q 389 1000 358 1000 q 444 978 421 1000 q 467 925 467 957 q 444 871 467 893 q 390 849 422 849 q 336 871 358 849 q 314 925 314 893 z "},"h":{"ha":729,"x_min":100,"x_max":639,"o":"m 100 0 l 100 1139 l 211 1139 l 211 556 l 214 556 q 297 635 246 606 q 421 665 347 665 q 584 599 529 665 q 639 406 639 532 l 639 0 l 528 0 l 528 381 q 492 523 528 481 q 386 565 457 565 q 259 513 307 565 q 211 343 211 461 l 211 0 l 100 0 z "},"ħ":{"ha":729,"x_min":0,"x_max":639,"o":"m 0 886 l 0 961 l 100 961 l 100 1139 l 211 1139 l 211 961 l 426 961 l 426 886 l 211 886 l 211 556 l 214 556 q 297 635 246 606 q 421 665 347 665 q 584 599 529 665 q 639 406 639 532 l 639 0 l 528 0 l 528 381 q 492 523 528 481 q 386 565 457 565 q 259 513 307 565 q 211 343 211 461 l 211 0 l 100 0 l 100 886 l 0 886 z "},"ĥ":{"ha":729,"x_min":100,"x_max":639,"o":"m 100 0 l 100 1139 l 211 1139 l 211 556 l 214 556 q 297 635 246 606 q 421 665 347 665 q 584 599 529 665 q 639 406 639 532 l 639 0 l 528 0 l 528 381 q 492 523 528 481 q 386 565 457 565 q 259 513 307 565 q 211 343 211 461 l 211 0 l 100 0 m 347 1400 l 571 1219 l 494 1160 l 347 1275 l 200 1160 l 124 1219 l 347 1400 z "},"i":{"ha":313,"x_min":79,"x_max":232,"o":"m 211 647 l 211 0 l 100 0 l 100 647 l 211 647 m 79 925 q 101 978 79 956 q 156 1000 124 1000 q 210 978 188 1000 q 232 925 232 957 q 210 871 232 893 q 156 849 188 849 q 101 871 124 849 q 79 925 79 893 z "},"ı":{"ha":313,"x_min":100,"x_max":211,"o":"m 100 0 l 100 647 l 211 647 l 211 0 l 100 0 z "},"í":{"ha":313,"x_min":40,"x_max":335,"o":"m 101 774 l 40 813 l 231 1039 l 335 982 l 101 774 m 100 0 l 100 647 l 211 647 l 211 0 l 100 0 z "},"ĭ":{"ha":313,"x_min":-62,"x_max":375,"o":"m 100 647 l 211 647 l 211 0 l 100 0 l 100 647 m 29 981 q 70 892 38 922 q 156 863 103 863 q 283 981 267 863 l 375 981 q 306 826 364 876 q 154 775 247 775 q 6 828 64 775 q -62 981 -53 881 l 29 981 z "},"î":{"ha":313,"x_min":-68,"x_max":379,"o":"m 8 774 l -68 833 l 156 1033 l 379 833 l 303 774 l 156 908 l 8 774 m 100 0 l 100 647 l 211 647 l 211 0 l 100 0 z "},"ï":{"ha":313,"x_min":-56,"x_max":368,"o":"m 211 647 l 211 0 l 100 0 l 100 647 l 211 647 m 293 967 q 346 945 324 967 q 368 893 368 924 q 345 840 368 861 q 293 819 322 819 q 241 840 263 819 q 219 893 219 861 q 242 946 219 925 q 293 967 265 967 m -56 893 q -33 946 -56 925 q 18 967 -10 967 q 69 946 47 967 q 92 893 92 925 q 69 840 92 861 q 18 819 47 819 q -34 841 -12 819 q -56 893 -56 863 z "},"ì":{"ha":313,"x_min":-46,"x_max":249,"o":"m 186 774 l -46 982 l 58 1039 l 249 813 l 186 774 m 100 0 l 100 647 l 211 647 l 211 0 l 100 0 z "},"ĳ":{"ha":626,"x_min":79,"x_max":544,"o":"m 413 647 l 524 647 l 524 -364 l 413 -364 l 413 647 m 100 0 l 100 647 l 211 647 l 211 0 l 100 0 m 392 925 q 414 978 392 956 q 468 1000 436 1000 q 522 978 500 1000 q 544 925 544 957 q 522 871 544 893 q 468 849 500 849 q 414 871 436 849 q 392 925 392 893 m 79 925 q 101 978 79 956 q 156 1000 124 1000 q 210 978 188 1000 q 232 925 232 957 q 210 871 232 893 q 156 849 188 849 q 101 871 124 849 q 79 925 79 893 z "},"ī":{"ha":313,"x_min":-42,"x_max":354,"o":"m -42 846 l -42 933 l 354 933 l 354 846 l -42 846 m 100 0 l 100 647 l 211 647 l 211 0 l 100 0 z "},"į":{"ha":313,"x_min":-21,"x_max":256,"o":"m 100 7 l 100 647 l 211 647 l 211 0 l 192 0 q 93 -76 118 -40 q 68 -143 68 -111 q 86 -190 68 -174 q 135 -206 104 -206 q 182 -199 160 -206 q 224 -183 204 -193 l 256 -254 q 201 -280 232 -269 q 122 -290 169 -290 q 67 -282 93 -290 q 22 -257 42 -274 q -9 -216 3 -240 q -21 -160 -21 -192 q 6 -72 -21 -115 q 100 7 32 -29 m 79 925 q 101 978 79 956 q 156 1000 124 1000 q 210 978 188 1000 q 232 925 232 957 q 210 871 232 893 q 156 849 188 849 q 101 871 124 849 q 79 925 79 893 z "},"ĩ":{"ha":313,"x_min":-94,"x_max":404,"o":"m 211 647 l 211 0 l 100 0 l 100 647 l 211 647 m -94 853 q -26 941 -60 914 q 57 968 7 968 q 109 956 82 968 q 163 930 136 944 q 213 903 189 915 q 256 892 238 892 q 300 913 279 892 q 340 968 321 933 l 404 917 q 340 829 378 860 q 251 799 301 799 q 199 810 226 799 q 147 835 172 822 q 96 860 121 849 q 50 872 71 872 q 6 852 25 872 q -29 799 -12 832 l -94 853 z "},"j":{"ha":313,"x_min":79,"x_max":232,"o":"m 211 647 l 211 -364 l 100 -364 l 100 647 l 211 647 m 79 925 q 101 978 79 956 q 156 1000 124 1000 q 210 978 188 1000 q 232 925 232 957 q 210 871 232 893 q 156 849 188 849 q 101 871 124 849 q 79 925 79 893 z "},"ȷ":{"ha":313,"x_min":101,"x_max":213,"o":"m 101 -364 l 101 647 l 213 647 l 213 -364 l 101 -364 z "},"ĵ":{"ha":313,"x_min":-68,"x_max":379,"o":"m 8 774 l -68 833 l 156 1033 l 379 833 l 303 774 l 156 908 l 8 774 m 101 -364 l 101 647 l 213 647 l 213 -364 l 101 -364 z "},"k":{"ha":646,"x_min":100,"x_max":646,"o":"m 100 0 l 100 1139 l 211 1139 l 211 390 l 482 647 l 622 647 l 321 369 l 646 0 l 507 0 l 246 301 l 211 269 l 211 0 l 100 0 z "},"ķ":{"ha":646,"x_min":100,"x_max":646,"o":"m 100 0 l 100 1139 l 211 1139 l 211 390 l 482 647 l 622 647 l 321 369 l 646 0 l 507 0 l 246 301 l 211 269 l 211 0 l 100 0 m 315 -85 l 407 -128 l 290 -339 l 217 -303 l 315 -85 z "},"ĸ":{"ha":656,"x_min":100,"x_max":646,"o":"m 100 0 l 100 647 l 211 647 l 211 390 l 482 647 l 622 647 l 313 363 l 646 0 l 507 0 l 240 296 l 211 269 l 211 0 l 100 0 z "},"l":{"ha":313,"x_min":100,"x_max":211,"o":"m 100 0 l 100 1139 l 211 1139 l 211 0 l 100 0 z "},"ĺ":{"ha":313,"x_min":25,"x_max":328,"o":"m 83 1218 l 25 1261 l 228 1472 l 328 1407 l 83 1218 m 100 0 l 100 1139 l 211 1139 l 211 0 l 100 0 z "},"ľ":{"ha":313,"x_min":100,"x_max":435,"o":"m 100 0 l 100 1139 l 211 1139 l 211 0 l 100 0 m 336 822 l 267 842 l 328 1085 l 435 1051 l 336 822 z "},"ļ":{"ha":313,"x_min":43,"x_max":233,"o":"m 100 0 l 100 1139 l 211 1139 l 211 0 l 100 0 m 117 -339 l 43 -303 l 142 -85 l 233 -128 l 117 -339 z "},"ŀ":{"ha":422,"x_min":100,"x_max":444,"o":"m 211 1139 l 211 0 l 100 0 l 100 1139 l 211 1139 m 369 656 q 422 635 400 656 q 444 582 444 614 q 423 530 444 551 q 369 508 401 508 q 316 531 336 508 q 296 582 296 554 q 319 635 296 614 q 369 656 342 656 z "},"ł":{"ha":313,"x_min":-1,"x_max":313,"o":"m 100 560 l 100 1139 l 211 1139 l 211 636 l 313 707 l 313 621 l 211 549 l 211 0 l 100 0 l 100 474 l -1 401 l -1 488 l 100 560 z "},"m":{"ha":1089,"x_min":100,"x_max":1000,"o":"m 100 647 l 211 647 l 211 561 l 213 561 q 280 634 239 603 q 392 665 321 665 q 503 637 458 665 q 574 546 547 608 l 575 546 q 656 631 607 597 q 779 665 706 665 q 944 601 888 665 q 1000 407 1000 538 l 1000 0 l 889 0 l 889 378 q 856 522 889 478 q 754 565 824 565 q 642 513 679 565 q 606 364 606 461 l 606 0 l 494 0 l 494 388 q 363 565 494 565 q 249 513 288 565 q 211 360 211 460 l 211 0 l 100 0 l 100 647 z "},"n":{"ha":729,"x_min":100,"x_max":639,"o":"m 211 647 l 211 554 l 214 554 q 294 634 246 603 q 419 665 343 665 q 583 599 528 665 q 639 406 639 532 l 639 0 l 528 0 l 528 381 q 492 522 528 479 q 385 565 456 565 q 258 513 306 565 q 211 344 211 460 l 211 0 l 100 0 l 100 647 l 211 647 z "},"ń":{"ha":729,"x_min":100,"x_max":639,"o":"m 100 0 l 100 647 l 211 647 l 211 554 l 214 554 q 294 634 246 603 q 419 665 343 665 q 583 599 528 665 q 639 406 639 532 l 639 0 l 528 0 l 528 381 q 492 522 528 479 q 385 565 456 565 q 258 513 306 565 q 211 344 211 460 l 211 0 l 100 0 m 438 1039 l 542 982 l 308 774 l 247 813 l 438 1039 z "},"ŉ":{"ha":758,"x_min":-92,"x_max":668,"o":"m 240 647 l 240 554 l 243 554 q 324 634 275 603 q 449 665 372 665 q 613 599 557 665 q 668 406 668 532 l 668 0 l 557 0 l 557 381 q 521 522 557 479 q 414 565 485 565 q 288 513 335 565 q 240 344 240 460 l 240 0 l 129 0 l 129 647 l 240 647 m -92 728 l 42 1083 l 144 1044 l -15 697 l -92 728 z "},"ň":{"ha":729,"x_min":100,"x_max":639,"o":"m 100 0 l 100 647 l 211 647 l 211 554 l 214 554 q 294 634 246 603 q 419 665 343 665 q 583 599 528 665 q 639 406 639 532 l 639 0 l 528 0 l 528 381 q 492 522 528 479 q 385 565 456 565 q 258 513 306 565 q 211 344 211 460 l 211 0 l 100 0 m 139 971 l 215 1029 l 364 894 l 511 1029 l 586 971 l 364 771 l 139 971 z "},"ņ":{"ha":729,"x_min":100,"x_max":639,"o":"m 211 647 l 211 554 l 214 554 q 294 634 246 603 q 419 665 343 665 q 583 599 528 665 q 639 406 639 532 l 639 0 l 528 0 l 528 381 q 492 522 528 479 q 385 565 456 565 q 258 513 306 565 q 211 344 211 460 l 211 0 l 100 0 l 100 647 l 211 647 m 349 -85 l 440 -128 l 324 -339 l 250 -303 l 349 -85 z "},"ŋ":{"ha":729,"x_min":100,"x_max":639,"o":"m 211 647 l 211 554 l 214 554 q 294 634 246 603 q 419 665 343 665 q 583 599 528 665 q 639 406 639 532 l 639 -137 q 625 -249 639 -204 q 586 -322 611 -294 q 528 -360 561 -349 q 454 -371 494 -371 q 361 -351 404 -371 l 361 -239 q 440 -264 407 -264 q 480 -257 464 -264 q 507 -233 496 -250 q 523 -186 518 -215 q 528 -112 528 -157 l 528 381 q 492 522 528 479 q 385 565 456 565 q 258 513 306 565 q 211 344 211 460 l 211 0 l 100 0 l 100 647 l 211 647 z "},"ñ":{"ha":729,"x_min":100,"x_max":639,"o":"m 100 647 l 211 647 l 211 554 l 214 554 q 294 634 246 603 q 419 665 343 665 q 583 599 528 665 q 639 406 639 532 l 639 0 l 528 0 l 528 381 q 492 522 528 479 q 385 565 456 565 q 258 513 306 565 q 211 344 211 460 l 211 0 l 100 0 l 100 647 m 113 853 q 181 941 149 914 q 264 968 214 968 q 316 956 289 968 q 369 930 343 944 q 420 903 396 915 q 463 892 444 892 q 507 913 486 892 q 547 968 528 933 l 611 917 q 547 829 585 860 q 458 799 508 799 q 406 810 433 799 q 353 835 379 822 q 303 860 328 849 q 257 872 278 872 q 213 852 232 872 q 178 799 194 832 l 113 853 z "},"o":{"ha":788,"x_min":51,"x_max":736,"o":"m 51 326 q 76 458 51 396 q 147 565 101 519 q 255 638 192 611 q 393 665 318 665 q 531 639 468 665 q 640 567 594 613 q 710 458 685 521 q 736 324 736 396 q 711 188 736 251 q 640 79 686 125 q 531 7 594 33 q 392 -19 468 -19 q 254 7 317 -19 q 147 80 192 33 q 76 190 101 126 q 51 326 51 253 m 164 325 q 181 226 164 271 q 228 148 197 181 q 301 98 258 115 q 393 81 343 81 q 485 98 443 81 q 558 148 528 115 q 606 225 589 181 q 624 324 624 269 q 606 420 624 376 q 558 497 589 464 q 485 547 528 529 q 393 565 443 565 q 301 547 343 565 q 228 497 258 529 q 181 420 199 464 q 164 325 164 376 z "},"ó":{"ha":788,"x_min":51,"x_max":736,"o":"m 51 326 q 76 458 51 396 q 147 565 101 519 q 255 638 192 611 q 393 665 318 665 q 531 639 468 665 q 640 567 594 613 q 710 458 685 521 q 736 324 736 396 q 711 188 736 251 q 640 79 686 125 q 531 7 594 33 q 392 -19 468 -19 q 254 7 317 -19 q 147 80 192 33 q 76 190 101 126 q 51 326 51 253 m 393 81 q 485 98 443 81 q 558 148 528 115 q 606 225 589 181 q 624 324 624 269 q 606 420 624 376 q 558 497 589 464 q 485 547 528 529 q 393 565 443 565 q 301 547 343 565 q 228 497 258 529 q 181 420 199 464 q 164 325 164 376 q 181 226 164 271 q 228 148 197 181 q 301 98 258 115 q 393 81 343 81 m 279 814 l 469 1040 l 574 983 l 340 775 l 279 814 z "},"ŏ":{"ha":788,"x_min":51,"x_max":736,"o":"m 393 665 q 531 639 468 665 q 640 567 594 613 q 710 458 685 521 q 736 324 736 396 q 711 188 736 251 q 640 79 686 125 q 531 7 594 33 q 392 -19 468 -19 q 254 7 317 -19 q 147 80 192 33 q 76 190 101 126 q 51 326 51 253 q 76 458 51 396 q 147 565 101 519 q 255 638 192 611 q 393 665 318 665 m 393 81 q 485 98 443 81 q 558 148 528 115 q 606 225 589 181 q 624 324 624 269 q 606 420 624 376 q 558 497 589 464 q 485 547 528 529 q 393 565 443 565 q 301 547 343 565 q 228 497 258 529 q 181 420 199 464 q 164 325 164 376 q 181 226 164 271 q 228 148 197 181 q 301 98 258 115 q 393 81 343 81 m 267 982 q 308 894 275 924 q 393 864 340 864 q 521 982 504 864 l 613 982 q 543 827 601 878 q 392 776 485 776 q 243 829 301 776 q 175 982 185 882 l 267 982 z "},"ô":{"ha":788,"x_min":51,"x_max":736,"o":"m 51 326 q 76 458 51 396 q 147 565 101 519 q 255 638 192 611 q 393 665 318 665 q 531 639 468 665 q 640 567 594 613 q 710 458 685 521 q 736 324 736 396 q 711 188 736 251 q 640 79 686 125 q 531 7 594 33 q 392 -19 468 -19 q 254 7 317 -19 q 147 80 192 33 q 76 190 101 126 q 51 326 51 253 m 164 325 q 181 226 164 271 q 228 148 197 181 q 301 98 258 115 q 393 81 343 81 q 485 98 443 81 q 558 148 528 115 q 606 225 589 181 q 624 324 624 269 q 606 420 624 376 q 558 497 589 464 q 485 547 528 529 q 393 565 443 565 q 301 547 343 565 q 228 497 258 529 q 181 420 199 464 q 164 325 164 376 m 393 1035 l 617 835 l 540 775 l 393 910 l 246 775 l 169 835 l 393 1035 z "},"ö":{"ha":788,"x_min":51,"x_max":736,"o":"m 51 326 q 76 458 51 396 q 147 565 101 519 q 255 638 192 611 q 393 665 318 665 q 531 639 468 665 q 640 567 594 613 q 710 458 685 521 q 736 324 736 396 q 711 188 736 251 q 640 79 686 125 q 531 7 594 33 q 392 -19 468 -19 q 254 7 317 -19 q 147 80 192 33 q 76 190 101 126 q 51 326 51 253 m 164 325 q 181 226 164 271 q 228 148 197 181 q 301 98 258 115 q 393 81 343 81 q 485 98 443 81 q 558 148 528 115 q 606 225 589 181 q 624 324 624 269 q 606 420 624 376 q 558 497 589 464 q 485 547 528 529 q 393 565 443 565 q 301 547 343 565 q 228 497 258 529 q 181 420 199 464 q 164 325 164 376 m 531 968 q 583 947 561 968 q 606 894 606 925 q 583 842 606 863 q 531 821 560 821 q 478 842 500 821 q 457 894 457 863 q 480 947 457 926 q 531 968 503 968 m 182 894 q 205 947 182 926 q 256 968 228 968 q 307 947 285 968 q 329 894 329 926 q 307 842 329 863 q 256 821 285 821 q 203 842 225 821 q 182 894 182 864 z "},"ò":{"ha":788,"x_min":51,"x_max":736,"o":"m 51 326 q 76 458 51 396 q 147 565 101 519 q 255 638 192 611 q 393 665 318 665 q 531 639 468 665 q 640 567 594 613 q 710 458 685 521 q 736 324 736 396 q 711 188 736 251 q 640 79 686 125 q 531 7 594 33 q 392 -19 468 -19 q 254 7 317 -19 q 147 80 192 33 q 76 190 101 126 q 51 326 51 253 m 393 81 q 485 98 443 81 q 558 148 528 115 q 606 225 589 181 q 624 324 624 269 q 606 420 624 376 q 558 497 589 464 q 485 547 528 529 q 393 565 443 565 q 301 547 343 565 q 228 497 258 529 q 181 420 199 464 q 164 325 164 376 q 181 226 164 271 q 228 148 197 181 q 301 98 258 115 q 393 81 343 81 m 193 983 l 297 1040 l 488 814 l 425 775 l 193 983 z "},"ő":{"ha":788,"x_min":51,"x_max":736,"o":"m 51 326 q 76 458 51 396 q 147 565 101 519 q 255 638 192 611 q 393 665 318 665 q 531 639 468 665 q 640 567 594 613 q 710 458 685 521 q 736 324 736 396 q 711 188 736 251 q 640 79 686 125 q 531 7 594 33 q 392 -19 468 -19 q 254 7 317 -19 q 147 80 192 33 q 76 190 101 126 q 51 326 51 253 m 393 81 q 485 98 443 81 q 558 148 528 115 q 606 225 589 181 q 624 324 624 269 q 606 420 624 376 q 558 497 589 464 q 485 547 528 529 q 393 565 443 565 q 301 547 343 565 q 228 497 258 529 q 181 420 199 464 q 164 325 164 376 q 181 226 164 271 q 228 148 197 181 q 301 98 258 115 q 393 81 343 81 m 540 1043 l 647 1024 l 517 768 l 457 786 l 540 1043 m 311 1043 l 418 1024 l 301 768 l 242 786 l 311 1043 z "},"ō":{"ha":788,"x_min":51,"x_max":736,"o":"m 51 326 q 76 458 51 396 q 147 565 101 519 q 255 638 192 611 q 393 665 318 665 q 531 639 468 665 q 640 567 594 613 q 710 458 685 521 q 736 324 736 396 q 711 188 736 251 q 640 79 686 125 q 531 7 594 33 q 392 -19 468 -19 q 254 7 317 -19 q 147 80 192 33 q 76 190 101 126 q 51 326 51 253 m 393 81 q 485 98 443 81 q 558 148 528 115 q 606 225 589 181 q 624 324 624 269 q 606 420 624 376 q 558 497 589 464 q 485 547 528 529 q 393 565 443 565 q 301 547 343 565 q 228 497 258 529 q 181 420 199 464 q 164 325 164 376 q 181 226 164 271 q 228 148 197 181 q 301 98 258 115 q 393 81 343 81 m 197 933 l 593 933 l 593 846 l 197 846 l 197 933 z "},"ø":{"ha":788,"x_min":26,"x_max":761,"o":"m 26 4 l 125 104 q 51 326 51 194 q 76 458 51 396 q 147 565 101 519 q 255 638 192 611 q 393 665 318 665 q 512 647 457 665 q 611 593 567 628 l 710 692 l 761 639 l 664 540 q 717 441 699 496 q 736 324 736 386 q 711 188 736 251 q 640 79 686 125 q 531 7 594 33 q 392 -19 468 -19 q 275 -1 329 -19 q 178 51 221 18 l 79 -49 l 26 4 m 203 181 l 536 518 q 472 553 508 540 q 393 565 435 565 q 301 547 343 565 q 228 497 258 529 q 181 420 197 464 q 164 325 164 376 q 203 181 164 242 m 393 81 q 485 98 443 81 q 558 148 528 115 q 606 225 589 181 q 624 324 624 269 q 586 463 624 401 l 253 126 q 393 81 311 81 z "},"ǿ":{"ha":788,"x_min":26,"x_max":761,"o":"m 125 104 q 51 326 51 194 q 76 458 51 396 q 147 565 101 519 q 255 638 192 611 q 393 665 318 665 q 512 647 457 665 q 611 593 567 628 l 710 692 l 761 639 l 664 540 q 717 441 699 496 q 736 324 736 386 q 711 188 736 251 q 640 79 686 125 q 531 7 594 33 q 392 -19 468 -19 q 275 -1 329 -19 q 178 51 221 18 l 79 -49 l 26 4 l 125 104 m 203 181 l 536 518 q 472 553 508 540 q 393 565 435 565 q 301 547 343 565 q 228 497 258 529 q 181 420 197 464 q 164 325 164 376 q 203 181 164 242 m 393 81 q 485 98 443 81 q 558 148 528 115 q 606 225 589 181 q 624 324 624 269 q 586 463 624 401 l 253 126 q 393 81 311 81 m 481 1039 l 585 982 l 351 774 l 290 813 l 481 1039 z "},"õ":{"ha":788,"x_min":51,"x_max":736,"o":"m 51 326 q 76 458 51 396 q 147 565 101 519 q 255 638 192 611 q 393 665 318 665 q 531 639 468 665 q 640 567 594 613 q 710 458 685 521 q 736 324 736 396 q 711 188 736 251 q 640 79 686 125 q 531 7 594 33 q 392 -19 468 -19 q 254 7 317 -19 q 147 80 192 33 q 76 190 101 126 q 51 326 51 253 m 164 325 q 181 226 164 271 q 228 148 197 181 q 301 98 258 115 q 393 81 343 81 q 485 98 443 81 q 558 148 528 115 q 606 225 589 181 q 624 324 624 269 q 606 420 624 376 q 558 497 589 464 q 485 547 528 529 q 393 565 443 565 q 301 547 343 565 q 228 497 258 529 q 181 420 199 464 q 164 325 164 376 m 296 969 q 348 958 321 969 q 401 931 375 946 q 452 905 428 917 q 494 893 476 893 q 539 914 518 893 q 579 969 560 935 l 643 918 q 578 831 617 861 q 490 800 540 800 q 438 812 465 800 q 385 837 411 824 q 335 862 360 850 q 289 874 310 874 q 245 853 264 874 q 210 800 226 833 l 144 854 q 213 942 181 915 q 296 969 246 969 z "},"œ":{"ha":1290,"x_min":51,"x_max":1239,"o":"m 393 665 q 560 622 488 665 q 674 507 633 579 q 779 622 711 579 q 935 665 847 665 q 1064 640 1007 665 q 1160 570 1121 615 q 1219 465 1199 525 q 1239 333 1239 404 l 1239 303 l 736 303 q 752 213 738 254 q 793 143 767 172 q 857 97 819 114 q 940 81 894 81 q 1049 110 1006 81 q 1133 197 1093 139 l 1224 143 q 1106 22 1175 64 q 936 -19 1036 -19 q 778 23 844 -19 q 674 138 711 65 q 560 23 632 65 q 392 -19 488 -19 q 254 7 317 -19 q 147 80 192 33 q 76 190 101 126 q 51 326 51 253 q 76 458 51 396 q 147 565 101 519 q 255 638 192 611 q 393 665 318 665 m 164 325 q 181 226 164 271 q 228 148 197 181 q 301 98 258 115 q 393 81 343 81 q 485 98 443 81 q 558 148 528 115 q 606 225 589 181 q 624 324 624 269 q 607 420 624 376 q 560 497 590 464 q 487 547 529 529 q 393 565 444 565 q 301 547 343 565 q 228 497 258 529 q 181 420 197 464 q 164 325 164 376 m 1125 394 q 1068 516 1118 467 q 935 565 1018 565 q 807 518 857 565 q 743 394 757 471 l 1125 394 z "},"p":{"ha":822,"x_min":101,"x_max":771,"o":"m 213 647 l 213 538 l 214 538 q 320 635 260 604 q 450 667 381 667 q 578 640 519 667 q 680 567 638 614 q 747 458 722 521 q 771 324 771 396 q 747 189 771 251 q 680 81 722 126 q 579 9 638 35 q 454 -17 521 -17 q 322 13 382 -17 q 214 111 261 43 l 213 111 l 213 -364 l 101 -364 l 101 647 l 213 647 m 433 82 q 524 101 482 82 q 595 151 565 119 q 642 228 625 183 q 658 324 658 272 q 642 421 658 376 q 597 497 626 465 q 526 548 567 529 q 435 567 485 567 q 343 549 385 567 q 270 499 301 531 q 222 422 239 467 q 204 325 204 378 q 222 228 204 272 q 269 151 239 183 q 342 100 300 118 q 433 82 385 82 z "},"þ":{"ha":822,"x_min":100,"x_max":771,"o":"m 211 1139 l 211 538 l 213 538 q 320 635 260 604 q 450 667 381 667 q 578 640 519 667 q 680 567 638 614 q 747 458 722 521 q 771 324 771 396 q 747 189 771 251 q 680 81 722 126 q 579 9 638 35 q 453 -17 521 -17 q 321 13 382 -17 q 213 111 260 43 l 211 111 l 211 -364 l 100 -364 l 100 1139 l 211 1139 m 433 82 q 524 101 482 82 q 595 151 565 119 q 642 228 625 183 q 658 324 658 272 q 642 421 658 376 q 597 497 626 465 q 525 548 567 529 q 433 567 483 567 q 342 549 383 567 q 269 499 300 531 q 222 422 239 467 q 204 325 204 378 q 222 228 204 272 q 269 151 239 183 q 342 100 300 118 q 433 82 383 82 z "},"q":{"ha":822,"x_min":51,"x_max":721,"o":"m 372 667 q 502 635 442 667 q 608 538 563 604 l 610 538 l 610 647 l 721 647 l 721 -364 l 610 -364 l 610 111 l 608 111 q 501 13 563 43 q 369 -17 440 -17 q 244 9 301 -17 q 143 81 186 35 q 76 189 100 126 q 51 324 51 251 q 76 458 51 396 q 142 567 100 521 q 244 640 185 614 q 372 667 303 667 m 164 324 q 181 228 164 272 q 227 151 197 183 q 299 101 257 119 q 389 82 340 82 q 481 100 439 82 q 553 151 522 118 q 601 228 583 183 q 618 325 618 272 q 601 422 618 378 q 553 499 583 467 q 481 549 522 531 q 389 567 439 567 q 297 548 339 567 q 226 497 256 529 q 180 421 196 465 q 164 324 164 376 z "},"r":{"ha":471,"x_min":100,"x_max":467,"o":"m 100 647 l 211 647 l 211 567 l 214 567 q 277 639 244 613 q 360 665 310 665 q 467 633 411 665 l 415 532 q 339 557 381 557 q 246 507 281 557 q 211 353 211 457 l 211 0 l 100 0 l 100 647 z "},"ŕ":{"ha":471,"x_min":100,"x_max":467,"o":"m 211 647 l 211 567 l 214 567 q 277 639 244 613 q 360 665 310 665 q 467 633 411 665 l 415 532 q 339 557 381 557 q 246 507 281 557 q 211 353 211 457 l 211 0 l 100 0 l 100 647 l 211 647 m 321 1039 l 425 982 l 192 774 l 131 813 l 321 1039 z "},"ř":{"ha":471,"x_min":22,"x_max":469,"o":"m 100 647 l 211 647 l 211 567 l 214 567 q 277 639 244 613 q 360 665 310 665 q 467 633 411 665 l 415 532 q 339 557 381 557 q 246 507 281 557 q 211 353 211 457 l 211 0 l 100 0 l 100 647 m 22 971 l 99 1029 l 247 894 l 394 1029 l 469 971 l 247 771 l 22 971 z "},"ŗ":{"ha":471,"x_min":38,"x_max":467,"o":"m 100 647 l 211 647 l 211 567 l 214 567 q 277 639 244 613 q 360 665 310 665 q 467 633 411 665 l 415 532 q 339 557 381 557 q 246 507 281 557 q 211 353 211 457 l 211 0 l 100 0 l 100 647 m 136 -85 l 228 -128 l 111 -339 l 38 -303 l 136 -85 z "},"s":{"ha":517,"x_min":28,"x_max":471,"o":"m 28 122 l 113 185 q 169 110 133 138 q 258 82 206 82 q 337 108 310 82 q 364 175 364 135 q 357 213 364 196 q 333 244 350 229 q 290 273 317 258 q 222 306 263 288 q 101 385 138 343 q 64 493 64 428 q 79 565 64 533 q 120 619 94 597 q 181 653 146 642 q 257 665 217 665 q 372 638 324 665 q 447 568 421 611 l 365 503 q 321 547 350 528 q 256 565 292 565 q 195 547 219 565 q 171 496 171 529 q 178 467 171 479 q 201 441 185 454 q 246 414 218 428 q 317 382 274 400 q 437 297 403 343 q 471 183 471 251 q 413 37 471 93 q 258 -19 354 -19 q 110 22 168 -19 q 28 122 51 64 z "},"ś":{"ha":517,"x_min":28,"x_max":471,"o":"m 28 122 l 113 185 q 169 110 133 138 q 258 82 206 82 q 337 108 310 82 q 364 175 364 135 q 357 213 364 196 q 333 244 350 229 q 290 273 317 258 q 222 306 263 288 q 101 385 138 343 q 64 493 64 428 q 79 565 64 533 q 120 619 94 597 q 181 653 146 642 q 257 665 217 665 q 372 638 324 665 q 447 568 421 611 l 365 503 q 321 547 350 528 q 256 565 292 565 q 195 547 219 565 q 171 496 171 529 q 178 467 171 479 q 201 441 185 454 q 246 414 218 428 q 317 382 274 400 q 437 297 403 343 q 471 183 471 251 q 413 37 471 93 q 258 -19 354 -19 q 110 22 168 -19 q 28 122 51 64 m 139 817 l 329 1043 l 433 986 l 200 778 l 139 817 z "},"š":{"ha":517,"x_min":28,"x_max":478,"o":"m 28 122 l 113 185 q 169 110 133 138 q 258 82 206 82 q 337 108 310 82 q 364 175 364 135 q 357 213 364 196 q 333 244 350 229 q 290 273 317 258 q 222 306 263 288 q 101 385 138 343 q 64 493 64 428 q 79 565 64 533 q 120 619 94 597 q 181 653 146 642 q 257 665 217 665 q 372 638 324 665 q 447 568 421 611 l 365 503 q 321 547 350 528 q 256 565 292 565 q 195 547 219 565 q 171 496 171 529 q 178 467 171 479 q 201 441 185 454 q 246 414 218 428 q 317 382 274 400 q 437 297 403 343 q 471 183 471 251 q 413 37 471 93 q 258 -19 354 -19 q 110 22 168 -19 q 28 122 51 64 m 107 1033 l 256 899 l 403 1033 l 478 975 l 256 775 l 31 975 l 107 1033 z "},"ş":{"ha":517,"x_min":28,"x_max":471,"o":"m 28 122 l 113 185 q 169 110 133 138 q 258 82 206 82 q 337 108 310 82 q 364 175 364 135 q 357 213 364 196 q 333 244 350 229 q 290 273 317 258 q 222 306 263 288 q 101 385 138 343 q 64 493 64 428 q 79 565 64 533 q 120 619 94 597 q 181 653 146 642 q 257 665 217 665 q 372 638 324 665 q 447 568 421 611 l 365 503 q 321 547 350 528 q 256 565 292 565 q 195 547 219 565 q 171 496 171 529 q 178 467 171 479 q 201 441 185 454 q 246 414 218 428 q 317 382 274 400 q 437 297 403 343 q 471 183 471 251 q 413 37 471 93 q 258 -19 354 -19 q 110 22 168 -19 q 28 122 51 64 m 118 -254 l 250 -46 l 333 -96 l 185 -294 l 118 -254 z "},"ŝ":{"ha":517,"x_min":28,"x_max":478,"o":"m 28 122 l 113 185 q 169 110 133 138 q 258 82 206 82 q 337 108 310 82 q 364 175 364 135 q 357 213 364 196 q 333 244 350 229 q 290 273 317 258 q 222 306 263 288 q 101 385 138 343 q 64 493 64 428 q 79 565 64 533 q 120 619 94 597 q 181 653 146 642 q 257 665 217 665 q 372 638 324 665 q 447 568 421 611 l 365 503 q 321 547 350 528 q 256 565 292 565 q 195 547 219 565 q 171 496 171 529 q 178 467 171 479 q 201 441 185 454 q 246 414 218 428 q 317 382 274 400 q 437 297 403 343 q 471 183 471 251 q 413 37 471 93 q 258 -19 354 -19 q 110 22 168 -19 q 28 122 51 64 m 254 1038 l 478 838 l 401 778 l 254 913 l 107 778 l 31 838 l 254 1038 z "},"ș":{"ha":517,"x_min":28,"x_max":471,"o":"m 28 122 l 113 185 q 169 110 133 138 q 258 82 206 82 q 337 108 310 82 q 364 175 364 135 q 357 213 364 196 q 333 244 350 229 q 290 273 317 258 q 222 306 263 288 q 101 385 138 343 q 64 493 64 428 q 79 565 64 533 q 120 619 94 597 q 181 653 146 642 q 257 665 217 665 q 372 638 324 665 q 447 568 421 611 l 365 503 q 321 547 350 528 q 256 565 292 565 q 195 547 219 565 q 171 496 171 529 q 178 467 171 479 q 201 441 185 454 q 246 414 218 428 q 317 382 274 400 q 437 297 403 343 q 471 183 471 251 q 413 37 471 93 q 258 -19 354 -19 q 110 22 168 -19 q 28 122 51 64 m 142 -303 l 240 -85 l 332 -128 l 215 -339 l 142 -303 z "},"ß":{"ha":857,"x_min":18,"x_max":806,"o":"m 18 647 l 138 647 l 138 840 q 160 977 138 918 q 221 1075 182 1036 q 315 1133 260 1114 q 433 1153 369 1153 q 550 1134 496 1153 q 644 1080 604 1115 q 706 994 683 1044 q 728 881 728 944 q 692 741 728 799 q 582 656 656 683 q 750 539 694 619 q 806 346 806 458 q 779 203 806 269 q 703 88 753 138 q 583 10 654 39 q 424 -18 513 -18 l 418 -18 l 418 86 l 424 86 q 535 108 486 88 q 620 163 585 128 q 674 244 656 197 q 693 346 693 290 q 628 519 693 453 q 424 594 563 585 l 424 696 q 567 747 515 697 q 618 878 618 797 q 567 1003 618 954 q 433 1053 515 1053 q 296 999 343 1053 q 249 840 249 944 l 249 0 l 138 0 l 138 543 l 18 543 l 18 647 z "},"t":{"ha":382,"x_min":22,"x_max":360,"o":"m 131 647 l 131 886 l 242 886 l 242 647 l 360 647 l 360 543 l 242 543 l 242 0 l 131 0 l 131 543 l 22 543 l 22 647 l 131 647 z "},"ŧ":{"ha":382,"x_min":22,"x_max":360,"o":"m 22 543 l 22 647 l 131 647 l 131 886 l 242 886 l 242 647 l 360 647 l 360 543 l 242 543 l 242 347 l 310 347 l 310 271 l 242 271 l 242 0 l 131 0 l 131 271 l 49 271 l 49 347 l 131 347 l 131 543 l 22 543 z "},"ť":{"ha":382,"x_min":22,"x_max":479,"o":"m 22 543 l 22 647 l 131 647 l 131 886 l 242 886 l 242 647 l 360 647 l 360 543 l 242 543 l 242 0 l 131 0 l 131 543 l 22 543 m 372 1064 l 479 1031 l 381 801 l 311 821 l 372 1064 z "},"ţ":{"ha":382,"x_min":22,"x_max":360,"o":"m 131 647 l 131 886 l 242 886 l 242 647 l 360 647 l 360 543 l 242 543 l 242 0 l 131 0 l 131 543 l 22 543 l 22 647 l 131 647 m 54 -254 l 186 -46 l 269 -96 l 121 -294 l 54 -254 z "},"ț":{"ha":382,"x_min":22,"x_max":360,"o":"m 131 647 l 131 886 l 242 886 l 242 647 l 360 647 l 360 543 l 242 543 l 242 0 l 131 0 l 131 543 l 22 543 l 22 647 l 131 647 m 78 -303 l 176 -85 l 268 -128 l 151 -339 l 78 -303 z "},"u":{"ha":703,"x_min":90,"x_max":614,"o":"m 90 647 l 201 647 l 201 272 q 236 130 201 178 q 351 82 271 82 q 467 131 431 82 q 503 272 503 181 l 503 647 l 614 647 l 614 268 q 598 150 614 203 q 549 60 582 97 q 467 2 517 22 q 351 -18 418 -18 q 158 53 225 -18 q 90 268 90 125 l 90 647 z "},"ú":{"ha":703,"x_min":90,"x_max":614,"o":"m 90 647 l 201 647 l 201 272 q 236 130 201 178 q 351 82 271 82 q 467 131 431 82 q 503 272 503 181 l 503 647 l 614 647 l 614 268 q 598 150 614 203 q 549 60 582 97 q 467 2 517 22 q 351 -18 418 -18 q 158 53 225 -18 q 90 268 90 125 l 90 647 m 428 1039 l 532 982 l 299 774 l 238 813 l 428 1039 z "},"ŭ":{"ha":703,"x_min":90,"x_max":614,"o":"m 201 647 l 201 272 q 236 130 201 178 q 351 82 271 82 q 467 131 431 82 q 503 272 503 181 l 503 647 l 614 647 l 614 268 q 598 150 614 203 q 549 60 582 97 q 467 2 517 22 q 351 -18 418 -18 q 158 53 225 -18 q 90 268 90 125 l 90 647 l 201 647 m 225 981 q 266 892 233 922 q 351 863 299 863 q 479 981 463 863 l 571 981 q 501 826 560 876 q 350 775 443 775 q 201 828 260 775 q 133 981 143 881 l 225 981 z "},"û":{"ha":703,"x_min":90,"x_max":614,"o":"m 90 647 l 201 647 l 201 272 q 236 130 201 178 q 351 82 271 82 q 467 131 431 82 q 503 272 503 181 l 503 647 l 614 647 l 614 268 q 598 150 614 203 q 549 60 582 97 q 467 2 517 22 q 351 -18 418 -18 q 158 53 225 -18 q 90 268 90 125 l 90 647 m 351 1033 l 575 833 l 499 774 l 351 908 l 204 774 l 128 833 l 351 1033 z "},"ü":{"ha":703,"x_min":90,"x_max":614,"o":"m 90 647 l 201 647 l 201 272 q 236 130 201 178 q 351 82 271 82 q 467 131 431 82 q 503 272 503 181 l 503 647 l 614 647 l 614 268 q 598 150 614 203 q 549 60 582 97 q 467 2 517 22 q 351 -18 418 -18 q 158 53 225 -18 q 90 268 90 125 l 90 647 m 489 967 q 542 945 519 967 q 564 893 564 924 q 541 840 564 861 q 489 819 518 819 q 437 840 458 819 q 415 893 415 861 q 438 946 415 925 q 489 967 461 967 m 214 967 q 265 946 243 967 q 288 893 288 925 q 265 840 288 861 q 214 819 243 819 q 162 841 183 819 q 140 893 140 863 q 163 946 140 925 q 214 967 186 967 z "},"ù":{"ha":703,"x_min":90,"x_max":614,"o":"m 90 647 l 201 647 l 201 272 q 236 130 201 178 q 351 82 271 82 q 467 131 431 82 q 503 272 503 181 l 503 647 l 614 647 l 614 268 q 598 150 614 203 q 549 60 582 97 q 467 2 517 22 q 351 -18 418 -18 q 158 53 225 -18 q 90 268 90 125 l 90 647 m 151 982 l 256 1039 l 446 813 l 383 774 l 151 982 z "},"ű":{"ha":703,"x_min":90,"x_max":614,"o":"m 201 647 l 201 272 q 236 130 201 178 q 351 82 271 82 q 467 131 431 82 q 503 272 503 181 l 503 647 l 614 647 l 614 268 q 598 150 614 203 q 549 60 582 97 q 467 2 517 22 q 351 -18 418 -18 q 158 53 225 -18 q 90 268 90 125 l 90 647 l 201 647 m 499 1042 l 606 1022 l 475 767 l 415 785 l 499 1042 m 200 785 l 269 1042 l 376 1022 l 260 767 l 200 785 z "},"ū":{"ha":703,"x_min":90,"x_max":614,"o":"m 201 647 l 201 272 q 236 130 201 178 q 351 82 271 82 q 467 131 431 82 q 503 272 503 181 l 503 647 l 614 647 l 614 268 q 598 150 614 203 q 549 60 582 97 q 467 2 517 22 q 351 -18 418 -18 q 158 53 225 -18 q 90 268 90 125 l 90 647 l 201 647 m 550 933 l 550 846 l 154 846 l 154 933 l 550 933 z "},"ų":{"ha":703,"x_min":90,"x_max":614,"o":"m 90 647 l 201 647 l 201 272 q 236 130 201 178 q 351 82 271 82 q 467 131 431 82 q 503 272 503 181 l 503 647 l 614 647 l 614 268 q 579 103 614 171 q 472 4 544 35 q 384 -68 407 -35 q 361 -132 361 -101 q 379 -178 361 -161 q 428 -194 397 -194 q 475 -188 453 -194 q 517 -172 497 -182 l 549 -243 q 494 -269 525 -258 q 417 -279 464 -279 q 315 -246 358 -279 q 272 -149 272 -212 q 287 -82 272 -115 q 338 -18 301 -49 q 154 58 218 -14 q 90 268 90 129 l 90 647 z "},"ů":{"ha":703,"x_min":90,"x_max":614,"o":"m 90 647 l 201 647 l 201 272 q 236 130 201 178 q 351 82 271 82 q 467 131 431 82 q 503 272 503 181 l 503 647 l 614 647 l 614 268 q 598 150 614 203 q 549 60 582 97 q 467 2 517 22 q 351 -18 418 -18 q 158 53 225 -18 q 90 268 90 125 l 90 647 m 351 1076 q 411 1065 383 1076 q 460 1033 439 1053 q 493 984 481 1013 q 506 922 506 956 q 493 860 506 889 q 460 812 481 832 q 411 780 439 792 q 351 768 383 768 q 292 780 321 768 q 242 812 264 792 q 208 860 221 832 q 196 922 196 889 q 208 984 196 956 q 242 1033 221 1013 q 292 1065 264 1053 q 351 1076 321 1076 m 269 922 q 294 861 269 883 q 351 839 318 839 q 410 861 385 839 q 435 922 435 883 q 410 983 435 961 q 351 1006 385 1006 q 294 983 318 1006 q 269 922 269 961 z "},"ũ":{"ha":703,"x_min":90,"x_max":614,"o":"m 201 647 l 201 272 q 236 130 201 178 q 351 82 271 82 q 467 131 431 82 q 503 272 503 181 l 503 647 l 614 647 l 614 268 q 598 150 614 203 q 549 60 582 97 q 467 2 517 22 q 351 -18 418 -18 q 158 53 225 -18 q 90 268 90 125 l 90 647 l 201 647 m 103 853 q 172 941 139 914 q 254 968 204 968 q 306 956 279 968 q 360 930 333 944 q 410 903 386 915 q 453 892 435 892 q 497 913 476 892 q 538 968 518 933 l 601 917 q 537 829 575 860 q 449 799 499 799 q 397 810 424 799 q 344 835 369 822 q 293 860 318 849 q 247 872 268 872 q 203 852 222 872 q 168 799 185 832 l 103 853 z "},"v":{"ha":631,"x_min":-6,"x_max":636,"o":"m -6 647 l 119 647 l 315 194 l 511 647 l 636 647 l 315 -36 l 313 -36 l -6 647 z "},"w":{"ha":1031,"x_min":1,"x_max":1029,"o":"m 1 647 l 126 647 l 318 201 l 515 693 l 517 693 l 715 201 l 906 647 l 1029 647 l 714 -37 l 711 -37 l 517 446 l 321 -39 l 318 -39 l 1 647 z "},"ẃ":{"ha":1031,"x_min":1,"x_max":1029,"o":"m 1 647 l 126 647 l 318 201 l 515 693 l 517 693 l 715 201 l 906 647 l 1029 647 l 714 -37 l 711 -37 l 517 446 l 321 -39 l 318 -39 l 1 647 m 400 813 l 590 1039 l 694 982 l 461 774 l 400 813 z "},"ŵ":{"ha":1031,"x_min":1,"x_max":1029,"o":"m 1 647 l 126 647 l 318 201 l 515 693 l 517 693 l 715 201 l 906 647 l 1029 647 l 714 -37 l 711 -37 l 517 446 l 321 -39 l 318 -39 l 1 647 m 292 833 l 515 1033 l 739 833 l 663 774 l 515 908 l 368 774 l 292 833 z "},"ẅ":{"ha":1031,"x_min":1,"x_max":1029,"o":"m 1 647 l 126 647 l 318 201 l 515 693 l 517 693 l 715 201 l 906 647 l 1029 647 l 714 -37 l 711 -37 l 517 446 l 321 -39 l 318 -39 l 1 647 m 653 967 q 706 945 683 967 q 728 893 728 924 q 705 840 728 861 q 653 819 682 819 q 601 840 622 819 q 579 893 579 861 q 602 946 579 925 q 653 967 625 967 m 304 893 q 327 946 304 925 q 378 967 350 967 q 429 946 407 967 q 451 893 451 925 q 429 840 451 861 q 378 819 407 819 q 326 841 347 819 q 304 893 304 863 z "},"ẁ":{"ha":1031,"x_min":1,"x_max":1029,"o":"m 126 647 l 318 201 l 515 693 l 517 693 l 715 201 l 906 647 l 1029 647 l 714 -37 l 711 -37 l 517 446 l 321 -39 l 318 -39 l 1 647 l 126 647 m 314 982 l 418 1039 l 608 813 l 546 774 l 314 982 z "},"x":{"ha":685,"x_min":10,"x_max":675,"o":"m 281 346 l 51 647 l 183 647 l 347 429 l 511 647 l 647 647 l 413 344 l 675 0 l 543 0 l 344 264 l 146 0 l 10 0 l 281 346 z "},"y":{"ha":668,"x_min":-6,"x_max":674,"o":"m 124 647 l 343 215 l 549 647 l 674 647 l 181 -364 l 56 -364 l 286 97 l -6 647 l 124 647 z "},"ý":{"ha":668,"x_min":-6,"x_max":674,"o":"m 124 647 l 343 215 l 549 647 l 674 647 l 181 -364 l 56 -364 l 286 97 l -6 647 l 124 647 m 219 813 l 410 1039 l 514 982 l 281 774 l 219 813 z "},"ŷ":{"ha":668,"x_min":-6,"x_max":674,"o":"m -6 647 l 124 647 l 343 215 l 549 647 l 674 647 l 181 -364 l 56 -364 l 286 97 l -6 647 m 110 833 l 333 1033 l 557 833 l 481 774 l 333 908 l 186 774 l 110 833 z "},"ÿ":{"ha":668,"x_min":-6,"x_max":674,"o":"m 124 647 l 343 215 l 549 647 l 674 647 l 181 -364 l 56 -364 l 286 97 l -6 647 l 124 647 m 471 967 q 524 945 501 967 q 546 893 546 924 q 523 840 546 861 q 471 819 500 819 q 419 840 440 819 q 397 893 397 861 q 420 946 397 925 q 471 967 443 967 m 122 893 q 145 946 122 925 q 196 967 168 967 q 247 946 225 967 q 269 893 269 925 q 247 840 269 861 q 196 819 225 819 q 144 841 165 819 q 122 893 122 863 z "},"ỳ":{"ha":668,"x_min":-6,"x_max":674,"o":"m 124 647 l 343 215 l 549 647 l 674 647 l 181 -364 l 56 -364 l 286 97 l -6 647 l 124 647 m 236 1039 l 426 813 l 364 774 l 132 982 l 236 1039 z "},"z":{"ha":707,"x_min":18,"x_max":671,"o":"m 18 0 l 18 3 l 447 543 l 78 543 l 78 647 l 667 647 l 667 646 l 238 106 l 671 106 l 671 0 l 18 0 z "},"ź":{"ha":707,"x_min":18,"x_max":671,"o":"m 313 774 l 251 813 l 442 1039 l 546 982 l 313 774 m 18 0 l 18 3 l 447 543 l 78 543 l 78 647 l 667 647 l 667 646 l 238 106 l 671 106 l 671 0 l 18 0 z "},"ž":{"ha":707,"x_min":18,"x_max":671,"o":"m 367 771 l 142 971 l 218 1029 l 367 894 l 514 1029 l 589 971 l 367 771 m 18 0 l 18 3 l 447 543 l 78 543 l 78 647 l 667 647 l 667 646 l 238 106 l 671 106 l 671 0 l 18 0 z "},"ż":{"ha":707,"x_min":18,"x_max":671,"o":"m 447 543 l 78 543 l 78 647 l 667 647 l 667 646 l 238 106 l 671 106 l 671 0 l 18 0 l 18 3 l 447 543 m 365 1000 q 420 978 397 1000 q 443 925 443 957 q 421 871 443 893 q 367 849 399 849 q 313 871 335 849 q 290 925 290 893 q 313 978 290 956 q 365 1000 335 1000 z "},"ﬀ":{"ha":806,"x_min":18,"x_max":811,"o":"m 18 543 l 18 647 l 138 647 l 138 869 q 156 989 138 938 q 206 1075 174 1040 q 283 1128 239 1110 q 381 1146 328 1146 q 478 1124 435 1146 q 550 1060 522 1103 q 620 1131 578 1110 q 717 1153 663 1153 q 811 1139 772 1153 l 811 1033 q 738 1049 776 1049 q 653 1010 686 1049 q 621 872 621 971 l 621 647 l 790 647 l 790 543 l 621 543 l 621 0 l 510 0 l 510 543 l 249 543 l 249 0 l 138 0 l 138 543 l 18 543 m 510 647 l 510 879 q 474 1001 510 963 q 379 1039 438 1039 q 285 999 322 1039 q 249 869 249 958 l 249 647 l 510 647 z "},"ﬃ":{"ha":1093,"x_min":18,"x_max":993,"o":"m 18 543 l 18 647 l 138 647 l 138 869 q 156 989 138 938 q 206 1075 174 1040 q 283 1128 239 1110 q 381 1146 328 1146 q 483 1122 439 1146 q 554 1050 526 1099 q 636 1128 585 1103 q 753 1153 688 1153 q 849 1135 806 1153 q 925 1084 893 1118 q 975 999 957 1050 q 993 882 993 949 l 993 835 l 882 835 l 882 882 q 845 1008 882 969 q 751 1046 808 1046 q 658 1008 694 1046 q 621 882 621 969 l 621 647 l 783 647 l 783 543 l 621 543 l 621 0 l 510 0 l 510 543 l 249 543 l 249 0 l 138 0 l 138 543 l 18 543 m 249 647 l 510 647 l 510 879 q 474 1001 510 963 q 379 1039 438 1039 q 285 999 322 1039 q 249 869 249 958 l 249 647 m 882 647 l 993 647 l 993 0 l 882 0 l 882 647 z "},"﬌":{"ha":1093,"x_min":18,"x_max":993,"o":"m 18 647 l 138 647 l 138 869 q 156 989 138 938 q 206 1075 174 1040 q 283 1128 239 1110 q 381 1146 328 1146 q 483 1122 439 1146 q 554 1050 526 1099 q 636 1128 585 1103 q 753 1153 688 1153 q 849 1135 806 1153 q 925 1084 893 1118 q 975 999 957 1050 q 993 882 993 949 l 993 835 l 882 835 l 882 882 q 845 1008 882 969 q 751 1046 808 1046 q 658 1008 694 1046 q 621 882 621 969 l 621 647 l 783 647 l 783 543 l 621 543 l 621 0 l 510 0 l 510 543 l 249 543 l 249 0 l 138 0 l 138 543 l 18 543 l 18 647 m 993 647 l 993 -364 l 882 -364 l 882 647 l 993 647 m 249 647 l 510 647 l 510 879 q 474 1001 510 963 q 379 1039 438 1039 q 285 999 322 1039 q 249 869 249 958 l 249 647 z "},"ﬄ":{"ha":1093,"x_min":18,"x_max":993,"o":"m 18 647 l 138 647 l 138 869 q 156 989 138 938 q 206 1075 174 1040 q 283 1128 239 1110 q 381 1146 328 1146 q 483 1122 439 1146 q 554 1050 526 1099 q 636 1128 585 1103 q 753 1153 688 1153 q 849 1135 806 1153 q 925 1084 893 1118 q 975 999 957 1050 q 993 882 993 949 l 993 0 l 882 0 l 882 882 q 845 1008 882 969 q 751 1046 808 1046 q 658 1008 694 1046 q 621 882 621 969 l 621 647 l 783 647 l 783 543 l 621 543 l 621 0 l 510 0 l 510 543 l 249 543 l 249 0 l 138 0 l 138 543 l 18 543 l 18 647 m 510 647 l 510 879 q 474 1001 510 963 q 379 1039 438 1039 q 285 999 322 1039 q 249 869 249 958 l 249 647 l 510 647 z "},"﬋":{"ha":721,"x_min":18,"x_max":621,"o":"m 18 543 l 18 647 l 138 647 l 138 874 q 156 995 138 943 q 206 1082 174 1047 q 283 1135 239 1117 q 381 1153 328 1153 q 477 1135 433 1153 q 553 1082 521 1117 q 603 995 585 1047 q 621 874 621 943 l 621 826 l 510 826 l 510 874 q 474 1006 510 965 q 379 1046 438 1046 q 285 1006 322 1046 q 249 874 249 965 l 249 647 l 411 647 l 411 543 l 249 543 l 249 0 l 138 0 l 138 543 l 18 543 m 621 647 l 621 -364 l 510 -364 l 510 647 l 621 647 z "},"ﬁ":{"ha":721,"x_min":18,"x_max":621,"o":"m 18 647 l 138 647 l 138 874 q 156 995 138 943 q 206 1082 174 1047 q 283 1135 239 1117 q 381 1153 328 1153 q 477 1135 433 1153 q 553 1082 521 1117 q 603 995 585 1047 q 621 874 621 943 l 621 826 l 510 826 l 510 874 q 474 1006 510 965 q 379 1046 438 1046 q 285 1006 322 1046 q 249 874 249 965 l 249 647 l 411 647 l 411 543 l 249 543 l 249 0 l 138 0 l 138 543 l 18 543 l 18 647 m 510 0 l 510 647 l 621 647 l 621 0 l 510 0 z "},"ﬂ":{"ha":721,"x_min":18,"x_max":621,"o":"m 18 543 l 18 647 l 138 647 l 138 874 q 156 995 138 943 q 206 1082 174 1047 q 283 1135 239 1117 q 381 1153 328 1153 q 477 1135 433 1153 q 553 1082 521 1117 q 603 995 585 1047 q 621 874 621 943 l 621 0 l 510 0 l 510 874 q 474 1006 510 965 q 379 1046 438 1046 q 285 1006 322 1046 q 249 874 249 965 l 249 647 l 411 647 l 411 543 l 249 543 l 249 0 l 138 0 l 138 543 l 18 543 z "},"ª":{"ha":518,"x_min":29,"x_max":461,"o":"m 29 847 q 44 930 29 892 q 84 996 58 968 q 146 1040 110 1024 q 225 1057 182 1057 q 315 1035 278 1057 q 374 978 351 1014 l 375 978 l 375 1047 l 461 1047 l 461 647 l 375 647 l 375 721 l 374 721 q 313 660 350 683 q 224 636 276 636 q 144 653 181 636 q 83 698 108 669 q 43 765 57 726 q 29 847 29 804 m 118 847 q 154 747 118 786 q 247 708 190 708 q 340 748 301 708 q 378 847 378 788 q 340 947 378 908 q 247 985 301 985 q 154 946 190 985 q 118 847 118 907 z "},"º":{"ha":507,"x_min":29,"x_max":478,"o":"m 29 847 q 47 933 29 894 q 94 999 64 972 q 166 1042 125 1026 q 253 1057 207 1057 q 340 1042 299 1057 q 411 999 381 1026 q 460 933 442 972 q 478 847 478 894 q 460 760 478 799 q 413 693 443 721 q 341 651 382 665 q 253 636 300 636 q 166 651 207 636 q 94 693 125 665 q 47 760 64 721 q 29 847 29 799 m 118 847 q 156 749 118 788 q 253 710 194 710 q 350 749 311 710 q 389 847 389 788 q 350 945 389 906 q 253 985 311 985 q 156 945 194 985 q 118 847 118 906 z "},"ⁿ":{"ha":467,"x_min":57,"x_max":414,"o":"m 57 1047 l 144 1047 l 144 985 l 147 985 q 197 1038 167 1017 q 276 1058 226 1058 q 378 1017 343 1058 q 414 901 414 975 l 414 647 l 325 647 l 325 881 q 305 956 325 929 q 243 983 285 983 q 169 947 192 983 q 146 861 146 911 l 146 647 l 57 647 l 57 1047 z "},"А":{"ha":953,"x_min":-7,"x_max":960,"o":"m 482 1103 l 486 1103 l 960 0 l 833 0 l 710 296 l 243 296 l 117 0 l -7 0 l 482 1103 m 665 404 l 574 624 q 527 736 550 681 q 481 849 504 792 q 432 735 457 790 q 383 622 407 679 l 290 404 l 665 404 z "},"Б":{"ha":764,"x_min":118,"x_max":701,"o":"m 606 1047 l 606 944 l 233 944 l 233 599 l 344 599 q 606 525 511 599 q 701 300 701 451 q 605 73 701 146 q 340 0 508 0 l 118 0 l 118 1047 l 606 1047 m 233 100 l 331 100 q 433 110 386 100 q 513 144 479 121 q 566 206 547 168 q 585 299 585 244 q 566 392 585 354 q 514 455 547 431 q 434 490 481 479 q 331 500 388 500 l 233 500 l 233 100 z "},"В":{"ha":799,"x_min":118,"x_max":729,"o":"m 118 0 l 118 1047 l 286 1047 q 549 976 458 1047 q 639 775 639 906 q 597 637 639 696 q 493 551 556 578 l 493 550 q 667 461 606 528 q 729 294 729 394 q 630 75 729 150 q 357 0 531 0 l 118 0 m 367 108 q 477 123 431 108 q 553 163 524 138 q 597 224 583 189 q 611 299 611 258 q 597 373 611 339 q 551 432 583 407 q 469 471 519 457 q 346 485 419 485 l 233 485 l 233 108 l 367 108 m 313 582 q 472 635 419 582 q 524 771 524 688 q 472 898 524 854 q 308 942 419 942 l 233 942 l 233 582 l 313 582 z "},"Г":{"ha":615,"x_min":118,"x_max":603,"o":"m 118 0 l 118 1047 l 603 1047 l 603 943 l 233 943 l 233 0 l 118 0 z "},"Ѓ":{"ha":615,"x_min":118,"x_max":603,"o":"m 297 1126 l 239 1169 l 442 1381 l 542 1315 l 297 1126 m 118 0 l 118 1047 l 603 1047 l 603 943 l 233 943 l 233 0 l 118 0 z "},"Ґ":{"ha":619,"x_min":118,"x_max":607,"o":"m 118 0 l 118 1047 l 501 1047 l 501 1263 l 607 1263 l 607 943 l 233 943 l 233 0 l 118 0 z "},"Д":{"ha":1038,"x_min":13,"x_max":1001,"o":"m 13 -260 l 13 103 l 36 103 q 123 129 89 103 q 180 206 157 156 q 218 331 203 257 q 247 501 233 406 l 326 1047 l 867 1047 l 867 103 l 1001 103 l 1001 -260 l 893 -260 l 893 0 l 122 0 l 122 -260 l 13 -260 m 222 103 l 751 103 l 751 944 l 425 944 l 358 486 q 330 318 344 386 q 299 207 315 250 q 263 140 282 164 q 222 103 244 115 z "},"Е":{"ha":763,"x_min":118,"x_max":663,"o":"m 663 1047 l 663 939 l 233 939 l 233 626 l 649 626 l 649 518 l 233 518 l 233 108 l 663 108 l 663 0 l 118 0 l 118 1047 l 663 1047 z "},"Ѐ":{"ha":763,"x_min":118,"x_max":663,"o":"m 663 1047 l 663 939 l 233 939 l 233 626 l 649 626 l 649 518 l 233 518 l 233 108 l 663 108 l 663 0 l 118 0 l 118 1047 l 663 1047 m 236 1317 l 335 1382 l 539 1169 l 481 1125 l 236 1317 z "},"Ё":{"ha":763,"x_min":118,"x_max":663,"o":"m 118 0 l 118 1047 l 663 1047 l 663 939 l 233 939 l 233 626 l 649 626 l 649 518 l 233 518 l 233 108 l 663 108 l 663 0 l 118 0 m 465 1235 q 488 1288 465 1267 q 539 1308 511 1308 q 592 1287 569 1308 q 614 1235 614 1265 q 591 1182 614 1203 q 539 1161 568 1161 q 487 1182 508 1161 q 465 1235 465 1203 m 190 1235 q 213 1288 190 1267 q 264 1308 236 1308 q 315 1288 293 1308 q 338 1235 338 1267 q 315 1182 338 1203 q 264 1161 293 1161 q 212 1183 233 1161 q 190 1235 190 1204 z "},"Ж":{"ha":1307,"x_min":15,"x_max":1290,"o":"m 15 0 l 478 574 l 28 1047 l 171 1047 l 596 596 l 596 1047 l 711 1047 l 711 596 l 1135 1047 l 1278 1047 l 829 574 l 1290 0 l 1146 0 l 749 501 l 711 468 l 711 0 l 596 0 l 596 468 l 558 501 l 160 0 l 15 0 z "},"З":{"ha":824,"x_min":46,"x_max":754,"o":"m 46 217 l 139 279 q 178 202 154 238 q 235 140 201 167 q 311 99 268 114 q 407 83 354 83 q 501 99 458 83 q 574 142 543 114 q 622 210 604 171 q 639 296 639 249 q 617 391 639 353 q 558 453 594 429 q 476 486 522 476 q 379 496 429 496 l 315 496 l 315 601 l 375 601 q 469 616 428 601 q 540 656 511 631 q 583 716 568 682 q 599 789 599 750 q 551 916 599 867 q 417 965 504 965 q 274 927 329 965 q 185 828 218 889 l 111 903 q 233 1022 156 975 q 417 1069 310 1069 q 540 1051 485 1069 q 633 997 594 1032 q 692 911 671 961 q 713 799 713 861 q 666 649 713 711 q 536 560 619 586 q 698 469 642 539 q 754 299 754 400 q 728 163 754 222 q 655 62 701 103 q 545 0 608 21 q 407 -21 482 -21 q 272 -1 332 -21 q 167 53 213 19 q 92 128 122 86 q 46 217 63 171 z "},"И":{"ha":1119,"x_min":118,"x_max":1001,"o":"m 997 1103 l 1001 1103 l 1001 0 l 886 0 l 886 819 l 122 -50 l 118 -50 l 118 1047 l 233 1047 l 233 232 l 997 1103 z "},"Й":{"ha":1119,"x_min":118,"x_max":1001,"o":"m 118 1047 l 233 1047 l 233 232 l 997 1103 l 1001 1103 l 1001 0 l 886 0 l 886 819 l 122 -50 l 118 -50 l 118 1047 m 310 1333 l 399 1363 q 452 1272 413 1308 q 558 1236 492 1236 q 665 1272 625 1236 q 718 1363 704 1308 l 807 1333 q 719 1200 783 1250 q 558 1150 656 1150 q 397 1200 461 1150 q 310 1333 333 1250 z "},"Ѝ":{"ha":1119,"x_min":118,"x_max":1001,"o":"m 694 1169 l 636 1125 l 392 1317 l 490 1382 l 694 1169 m 997 1103 l 1001 1103 l 1001 0 l 886 0 l 886 819 l 122 -50 l 118 -50 l 118 1047 l 233 1047 l 233 232 l 997 1103 z "},"К":{"ha":844,"x_min":118,"x_max":844,"o":"m 118 0 l 118 1047 l 233 1047 l 233 604 l 683 1047 l 832 1047 l 351 585 l 844 0 l 694 0 l 272 510 l 233 476 l 233 0 l 118 0 z "},"Ќ":{"ha":844,"x_min":118,"x_max":844,"o":"m 233 1047 l 233 604 l 683 1047 l 832 1047 l 351 585 l 844 0 l 694 0 l 272 510 l 233 476 l 233 0 l 118 0 l 118 1047 l 233 1047 m 522 1381 l 622 1315 l 378 1126 l 319 1169 l 522 1381 z "},"Л":{"ha":981,"x_min":0,"x_max":863,"o":"m 19 107 q 72 100 44 100 q 163 141 132 100 q 206 289 193 182 l 297 1047 l 863 1047 l 863 0 l 747 0 l 747 944 l 404 944 l 319 279 q 292 145 311 200 q 242 56 272 90 q 170 7 211 22 q 76 -8 129 -8 q 33 -6 51 -8 q 0 4 15 -3 l 19 107 z "},"М":{"ha":1232,"x_min":42,"x_max":1190,"o":"m 42 0 l 257 1111 l 261 1111 l 618 224 l 986 1111 l 990 1111 l 1190 0 l 1071 0 l 943 753 l 618 -39 l 615 -39 l 299 754 l 161 0 l 42 0 z "},"Н":{"ha":982,"x_min":118,"x_max":865,"o":"m 233 1047 l 233 622 l 749 622 l 749 1047 l 865 1047 l 865 0 l 749 0 l 749 514 l 233 514 l 233 0 l 118 0 l 118 1047 l 233 1047 z "},"О":{"ha":1238,"x_min":76,"x_max":1161,"o":"m 76 526 q 120 738 76 639 q 238 909 164 836 q 411 1024 313 982 q 621 1067 510 1067 q 828 1024 731 1067 q 1001 909 926 982 q 1118 737 1075 836 q 1161 522 1161 638 q 1117 310 1161 408 q 999 138 1074 211 q 826 23 925 65 q 615 -19 726 -19 q 410 22 507 -19 q 238 137 313 64 q 120 310 164 210 q 76 526 76 410 m 193 525 q 228 351 193 431 q 321 213 263 271 q 456 123 379 156 q 615 90 532 90 q 783 124 704 90 q 919 215 861 157 q 1012 353 978 274 q 1046 524 1046 432 q 1012 697 1046 617 q 920 835 978 776 q 785 926 863 893 q 619 958 707 958 q 456 925 533 958 q 319 833 378 892 q 227 696 261 775 q 193 525 193 617 z "},"П":{"ha":965,"x_min":118,"x_max":847,"o":"m 847 1047 l 847 0 l 732 0 l 732 944 l 233 944 l 233 0 l 118 0 l 118 1047 l 847 1047 z "},"Р":{"ha":710,"x_min":118,"x_max":664,"o":"m 276 1047 q 435 1032 364 1047 q 557 981 506 1017 q 636 889 608 946 q 664 749 664 832 q 639 621 664 676 q 568 526 614 565 q 458 467 522 488 q 317 447 394 447 l 233 447 l 233 0 l 118 0 l 118 1047 l 276 1047 m 233 554 l 307 554 q 488 603 425 554 q 551 750 551 651 q 486 895 551 849 q 299 942 421 942 l 233 942 l 233 554 z "},"С":{"ha":1007,"x_min":76,"x_max":919,"o":"m 76 521 q 118 734 76 635 q 233 908 160 833 q 407 1024 307 982 q 624 1067 507 1067 q 783 1042 708 1067 q 919 978 857 1018 l 919 842 q 780 927 857 896 q 617 958 703 958 q 450 924 528 958 q 315 832 372 890 q 224 694 257 774 q 192 522 192 614 q 224 351 192 431 q 315 214 257 272 q 450 122 372 156 q 617 89 528 89 q 778 117 708 89 q 919 210 847 146 l 919 71 q 778 4 854 28 q 615 -19 703 -19 q 403 22 501 -19 q 232 137 304 64 q 118 308 160 210 q 76 521 76 407 z "},"Т":{"ha":646,"x_min":13,"x_max":633,"o":"m 13 1047 l 633 1047 l 633 939 l 381 939 l 381 0 l 267 0 l 267 939 l 13 939 l 13 1047 z "},"У":{"ha":840,"x_min":7,"x_max":847,"o":"m 133 1047 l 457 407 l 729 1047 l 847 1047 l 489 210 q 434 103 461 146 q 377 33 407 60 q 313 -3 347 7 q 235 -14 278 -14 q 125 8 172 -14 q 40 67 78 31 l 106 153 q 163 110 132 126 q 235 93 194 93 q 277 100 258 93 q 314 125 296 107 q 351 175 332 143 q 392 256 369 207 l 404 283 l 7 1047 l 133 1047 z "},"Ў":{"ha":840,"x_min":7,"x_max":847,"o":"m 133 1047 l 457 407 l 729 1047 l 847 1047 l 489 210 q 434 103 461 146 q 377 33 407 60 q 313 -3 347 7 q 235 -14 278 -14 q 125 8 172 -14 q 40 67 78 31 l 106 153 q 163 110 132 126 q 235 93 194 93 q 277 100 258 93 q 314 125 296 107 q 351 175 332 143 q 392 256 369 207 l 404 283 l 7 1047 l 133 1047 m 281 1363 q 335 1273 294 1310 q 440 1236 375 1236 q 547 1273 507 1236 q 600 1363 586 1310 l 689 1333 q 601 1200 665 1250 q 440 1150 538 1150 q 279 1200 343 1150 q 192 1333 215 1250 l 281 1363 z "},"Ф":{"ha":1229,"x_min":69,"x_max":1160,"o":"m 558 989 l 558 1074 l 669 1074 l 669 989 q 868 947 778 982 q 1023 851 958 911 q 1124 710 1088 792 q 1160 528 1160 628 q 1124 347 1160 429 q 1023 206 1088 265 q 868 110 958 146 q 669 67 778 75 l 669 -25 l 558 -25 l 558 67 q 361 109 451 74 q 206 204 271 144 q 106 347 142 264 q 69 532 69 431 q 105 710 69 629 q 205 850 140 790 q 360 945 269 910 q 558 989 450 981 m 669 168 q 826 204 757 175 q 944 281 896 233 q 1019 391 993 328 q 1044 529 1044 454 q 1018 668 1044 606 q 943 777 992 731 q 825 851 894 824 q 669 886 756 879 l 669 168 m 185 529 q 212 390 185 453 q 288 279 239 326 q 405 203 336 232 q 558 168 474 175 l 558 886 q 403 850 472 879 q 286 774 335 821 q 211 666 238 728 q 185 529 185 604 z "},"Х":{"ha":803,"x_min":15,"x_max":786,"o":"m 15 0 l 340 553 l 53 1047 l 183 1047 l 407 640 l 635 1047 l 767 1047 l 471 553 l 786 0 l 658 0 l 404 463 l 146 0 l 15 0 z "},"Ч":{"ha":900,"x_min":106,"x_max":783,"o":"m 106 714 l 106 1047 l 222 1047 l 222 725 q 264 562 222 618 q 408 506 306 506 q 556 519 488 506 q 667 547 625 532 l 667 1047 l 783 1047 l 783 0 l 667 0 l 667 447 q 616 431 646 439 q 549 417 586 424 q 472 406 513 410 q 389 401 431 401 q 273 419 325 401 q 183 474 221 436 q 126 571 146 511 q 106 714 106 631 z "},"Ц":{"ha":1026,"x_min":118,"x_max":992,"o":"m 118 1047 l 233 1047 l 233 103 l 735 103 l 735 1047 l 850 1047 l 850 103 l 992 103 l 992 -260 l 882 -260 l 882 0 l 118 0 l 118 1047 z "},"Ш":{"ha":1413,"x_min":118,"x_max":1294,"o":"m 233 1047 l 233 103 l 649 103 l 649 1047 l 764 1047 l 764 103 l 1179 103 l 1179 1047 l 1294 1047 l 1294 0 l 118 0 l 118 1047 l 233 1047 z "},"Щ":{"ha":1471,"x_min":118,"x_max":1436,"o":"m 233 1047 l 233 103 l 649 103 l 649 1047 l 764 1047 l 764 103 l 1179 103 l 1179 1047 l 1294 1047 l 1294 103 l 1436 103 l 1436 -260 l 1328 -260 l 1328 0 l 118 0 l 118 1047 l 233 1047 z "},"Џ":{"ha":969,"x_min":118,"x_max":851,"o":"m 118 1047 l 233 1047 l 233 103 l 736 103 l 736 1047 l 851 1047 l 851 0 l 540 0 l 540 -260 l 431 -260 l 431 0 l 118 0 l 118 1047 z "},"Ь":{"ha":742,"x_min":118,"x_max":696,"o":"m 233 1047 l 233 614 l 344 614 q 489 595 424 614 q 600 538 554 576 q 671 442 646 500 q 696 306 696 383 q 604 77 696 154 q 338 0 513 0 l 118 0 l 118 1047 l 233 1047 m 233 101 l 324 101 q 425 112 378 101 q 506 147 472 122 q 560 210 540 171 q 579 306 579 249 q 512 465 579 415 q 322 514 444 514 l 233 514 l 233 101 z "},"Ъ":{"ha":892,"x_min":13,"x_max":846,"o":"m 382 1047 l 382 614 l 496 614 q 640 595 575 614 q 750 538 704 576 q 821 442 796 500 q 846 306 846 383 q 753 77 846 154 q 485 0 660 0 l 267 0 l 267 944 l 13 944 l 13 1047 l 382 1047 m 474 101 q 575 112 528 101 q 656 147 622 122 q 710 210 690 171 q 729 306 729 249 q 662 465 729 415 q 472 514 594 514 l 382 514 l 382 101 l 474 101 z "},"Ы":{"ha":1061,"x_min":118,"x_max":943,"o":"m 233 1047 l 233 614 l 336 614 q 481 595 415 614 q 592 538 546 576 q 663 442 638 500 q 688 306 688 383 q 594 77 688 154 q 326 0 501 0 l 118 0 l 118 1047 l 233 1047 m 315 100 q 417 110 369 100 q 498 145 464 121 q 551 209 532 169 q 571 306 571 249 q 503 465 571 415 q 314 514 436 514 l 233 514 l 233 100 l 315 100 m 828 0 l 828 1047 l 943 1047 l 943 0 l 828 0 z "},"Љ":{"ha":1332,"x_min":0,"x_max":1286,"o":"m 19 107 q 72 100 44 100 q 163 141 132 100 q 206 289 193 182 l 297 1047 l 831 1047 l 831 614 l 935 614 q 1079 595 1014 614 q 1190 538 1144 576 q 1261 442 1236 500 q 1286 306 1286 383 q 1192 77 1286 154 q 925 0 1099 0 l 715 0 l 715 944 l 404 944 l 319 279 q 292 145 311 200 q 242 56 272 90 q 170 7 211 22 q 76 -8 129 -8 q 33 -6 51 -8 q 0 4 15 -3 l 19 107 m 831 100 l 914 100 q 1015 110 968 100 q 1097 145 1063 121 q 1150 209 1131 169 q 1169 306 1169 249 q 1102 465 1169 415 q 913 514 1035 514 l 831 514 l 831 100 z "},"Њ":{"ha":1329,"x_min":118,"x_max":1283,"o":"m 233 1047 l 233 610 l 708 610 l 708 1047 l 824 1047 l 824 610 l 929 610 q 1190 535 1096 610 q 1283 306 1283 460 q 1194 77 1283 154 q 922 0 1104 0 l 708 0 l 708 510 l 233 510 l 233 0 l 118 0 l 118 1047 l 233 1047 m 822 101 l 913 101 q 1013 112 967 101 q 1094 146 1060 122 q 1147 208 1128 169 q 1167 303 1167 246 q 1100 462 1167 414 q 911 510 1033 510 l 822 510 l 822 101 z "},"Ѕ":{"ha":765,"x_min":46,"x_max":699,"o":"m 46 222 l 153 267 q 246 135 185 182 q 392 89 307 89 q 470 103 435 89 q 531 142 506 117 q 569 201 556 167 q 582 274 582 235 q 572 347 582 314 q 535 408 561 379 q 467 463 510 436 q 363 517 425 489 q 249 574 299 546 q 167 635 200 601 q 117 710 133 668 q 100 806 100 751 q 122 908 100 860 q 181 991 143 956 q 269 1047 218 1026 q 382 1067 321 1067 q 553 1019 482 1067 q 665 893 624 972 l 569 838 q 490 928 533 897 q 382 958 447 958 q 262 915 308 958 q 215 806 215 871 q 227 749 215 774 q 265 701 239 724 q 332 656 290 678 q 433 606 374 633 q 556 540 506 574 q 638 467 606 507 q 684 381 669 428 q 699 272 699 333 q 675 153 699 207 q 610 60 651 99 q 513 1 568 22 q 392 -19 457 -19 q 272 -1 326 -19 q 173 49 217 17 q 97 125 129 81 q 46 222 65 169 z "},"Є":{"ha":972,"x_min":76,"x_max":885,"o":"m 76 521 q 118 734 76 635 q 233 908 160 833 q 405 1024 306 982 q 619 1067 504 1067 q 757 1049 692 1067 q 883 997 822 1031 l 883 861 q 754 933 821 908 q 613 958 688 958 q 460 930 532 958 q 334 851 389 901 q 243 731 279 800 q 197 581 207 661 l 706 581 l 706 479 l 194 479 q 238 325 203 396 q 328 202 272 254 q 457 120 385 150 q 613 90 529 90 q 688 96 653 90 q 755 113 722 101 q 819 144 788 125 q 885 190 850 164 l 885 51 q 755 -1 822 17 q 611 -19 688 -19 q 401 22 499 -19 q 231 137 303 64 q 117 308 158 210 q 76 521 76 407 z "},"Э":{"ha":972,"x_min":86,"x_max":894,"o":"m 353 1067 q 567 1024 468 1067 q 740 908 667 982 q 853 734 813 833 q 894 521 894 635 q 853 308 894 407 q 740 137 811 210 q 571 22 668 64 q 361 -19 474 -19 q 219 -1 286 -19 q 89 51 151 17 l 89 190 q 218 114 157 138 q 358 90 279 90 q 515 120 442 90 q 643 202 588 150 q 734 325 699 254 q 778 479 769 396 l 265 479 l 265 581 l 775 581 q 729 731 765 661 q 638 851 693 800 q 511 930 582 901 q 360 958 440 958 q 216 934 283 958 q 86 861 149 910 l 86 997 q 213 1049 149 1031 q 353 1067 278 1067 z "},"І":{"ha":350,"x_min":118,"x_max":233,"o":"m 118 0 l 118 1047 l 233 1047 l 233 0 l 118 0 z "},"Ї":{"ha":350,"x_min":-36,"x_max":388,"o":"m 233 1047 l 233 0 l 118 0 l 118 1047 l 233 1047 m 313 1308 q 365 1287 343 1308 q 388 1235 388 1265 q 365 1182 388 1203 q 313 1161 342 1161 q 260 1182 282 1161 q 239 1235 239 1203 q 262 1288 239 1267 q 313 1308 285 1308 m -36 1235 q -13 1288 -36 1267 q 38 1308 10 1308 q 89 1288 67 1308 q 111 1235 111 1267 q 89 1182 111 1203 q 38 1161 67 1161 q -15 1183 7 1161 q -36 1235 -36 1204 z "},"Ј":{"ha":524,"x_min":0,"x_max":417,"o":"m 58 154 q 119 108 88 125 q 186 92 150 92 q 274 128 246 92 q 301 257 301 165 l 301 1047 l 417 1047 l 417 257 q 362 49 417 114 q 194 -17 307 -17 q 88 4 136 -17 q 0 61 39 25 l 58 154 z "},"Ћ":{"ha":976,"x_min":13,"x_max":871,"o":"m 13 1047 l 618 1047 l 618 944 l 351 944 l 351 592 q 445 616 388 606 q 574 626 503 626 q 691 612 636 626 q 785 564 746 597 q 848 476 825 531 q 871 344 871 422 l 871 0 l 754 0 l 754 335 q 708 478 754 433 q 554 524 661 524 q 439 513 492 524 q 351 489 386 503 l 351 0 l 236 0 l 236 944 l 13 944 l 13 1047 z "},"Ю":{"ha":1532,"x_min":118,"x_max":1456,"o":"m 233 1047 l 233 590 l 403 590 q 458 780 414 693 q 571 931 501 867 q 731 1032 640 996 q 928 1068 822 1068 q 1138 1026 1042 1068 q 1306 910 1235 983 q 1416 737 1376 836 q 1456 524 1456 638 q 1417 310 1456 410 q 1308 138 1378 211 q 1140 22 1238 64 q 928 -21 1043 -21 q 726 17 819 -21 q 563 124 633 56 q 449 285 492 192 q 400 490 407 379 l 233 490 l 233 0 l 118 0 l 118 1047 l 233 1047 m 928 90 q 1095 126 1019 90 q 1225 222 1171 161 q 1308 360 1279 282 q 1338 526 1338 439 q 1307 692 1338 614 q 1222 830 1276 771 q 1092 924 1168 889 q 926 958 1017 958 q 763 924 838 958 q 633 830 688 889 q 547 692 578 771 q 517 526 517 614 q 547 360 517 439 q 631 221 576 281 q 760 126 685 161 q 928 90 836 90 z "},"Я":{"ha":733,"x_min":13,"x_max":615,"o":"m 13 0 l 307 457 q 135 563 194 483 q 75 749 75 643 q 102 880 75 824 q 177 973 129 936 q 293 1028 225 1010 q 442 1047 361 1047 l 615 1047 l 615 0 l 500 0 l 500 447 l 424 447 l 153 0 l 13 0 m 443 542 l 500 542 l 500 946 l 454 946 q 257 899 326 946 q 188 747 188 851 q 253 592 188 643 q 443 542 318 542 z "},"Ђ":{"ha":944,"x_min":13,"x_max":896,"o":"m 618 1047 l 618 944 l 351 944 l 351 586 q 455 616 393 604 q 575 628 517 628 q 715 605 654 628 q 815 540 775 582 q 876 441 856 499 q 896 314 896 383 q 876 184 896 243 q 817 83 856 125 q 723 16 779 40 q 594 -8 667 -8 q 536 -3 567 -8 q 485 13 506 1 l 488 113 q 534 97 511 101 q 581 92 557 92 q 724 149 668 92 q 779 313 779 206 q 723 472 779 417 q 565 528 667 528 q 449 515 507 528 q 351 485 390 503 l 351 0 l 236 0 l 236 944 l 13 944 l 13 1047 l 618 1047 z "},"Ғ":{"ha":663,"x_min":17,"x_max":650,"o":"m 17 497 l 17 586 l 165 586 l 165 1047 l 650 1047 l 650 943 l 281 943 l 281 586 l 532 586 l 532 497 l 281 497 l 281 0 l 165 0 l 165 497 l 17 497 z "},"Җ":{"ha":1353,"x_min":15,"x_max":1336,"o":"m 1226 -260 l 1226 0 l 1146 0 l 749 510 l 711 476 l 711 0 l 596 0 l 596 476 l 558 510 l 160 0 l 15 0 l 476 582 l 28 1047 l 171 1047 l 596 604 l 596 1047 l 711 1047 l 711 604 l 1135 1047 l 1278 1047 l 829 582 l 1211 103 l 1336 103 l 1336 -260 l 1226 -260 z "},"Қ":{"ha":894,"x_min":118,"x_max":878,"o":"m 233 1047 l 233 604 l 679 1047 l 832 1047 l 351 585 l 760 103 l 878 103 l 878 -260 l 769 -260 l 769 0 l 690 0 l 271 510 l 233 476 l 233 0 l 118 0 l 118 1047 l 233 1047 z "},"Ҝ":{"ha":888,"x_min":118,"x_max":888,"o":"m 118 0 l 118 1047 l 233 1047 l 233 608 l 318 608 l 318 815 l 400 815 l 400 608 l 410 608 l 726 1047 l 867 1047 l 510 564 l 888 0 l 749 0 l 417 506 l 400 506 l 400 299 l 318 299 l 318 506 l 233 506 l 233 0 l 118 0 z "},"Ң":{"ha":1032,"x_min":118,"x_max":997,"o":"m 233 1047 l 233 617 l 750 617 l 750 1047 l 865 1047 l 865 103 l 997 103 l 997 -260 l 889 -260 l 889 0 l 750 0 l 750 515 l 233 515 l 233 0 l 118 0 l 118 1047 l 233 1047 z "},"Ү":{"ha":793,"x_min":-3,"x_max":796,"o":"m 129 1047 l 396 579 l 664 1047 l 796 1047 l 453 460 l 453 0 l 339 0 l 339 460 l -3 1047 l 129 1047 z "},"Ұ":{"ha":793,"x_min":-3,"x_max":796,"o":"m -3 1047 l 129 1047 l 397 579 l 664 1047 l 796 1047 l 453 460 l 453 404 l 654 404 l 654 315 l 453 315 l 453 0 l 339 0 l 339 315 l 139 315 l 139 404 l 339 404 l 339 460 l -3 1047 z "},"Ҳ":{"ha":861,"x_min":15,"x_max":853,"o":"m 15 0 l 340 553 l 54 1047 l 189 1047 l 410 651 l 629 1047 l 764 1047 l 472 553 l 728 103 l 853 103 l 853 -260 l 743 -260 l 743 0 l 658 0 l 403 451 l 147 0 l 15 0 z "},"Ҹ":{"ha":925,"x_min":106,"x_max":807,"o":"m 106 1047 l 222 1047 l 222 725 q 266 577 222 631 q 417 517 310 524 l 417 722 l 500 722 l 500 517 q 611 529 563 519 q 692 550 660 539 l 692 1047 l 807 1047 l 807 0 l 692 0 l 692 446 q 612 426 660 436 q 500 414 564 417 l 500 204 l 417 204 l 417 411 q 290 431 347 413 q 192 488 233 450 q 128 582 151 525 q 106 715 106 639 l 106 1047 z "},"Һ":{"ha":900,"x_min":118,"x_max":794,"o":"m 118 1047 l 233 1047 l 233 611 q 343 633 274 624 q 492 643 413 643 q 616 626 560 643 q 712 573 672 610 q 773 479 751 536 q 794 342 794 422 l 794 0 l 679 0 l 679 331 q 633 487 679 433 q 472 540 588 540 q 337 531 400 540 q 233 508 274 522 l 233 0 l 118 0 l 118 1047 z "},"Ӏ":{"ha":350,"x_min":118,"x_max":233,"o":"m 118 0 l 118 1047 l 233 1047 l 233 0 l 118 0 z "},"Ә":{"ha":1214,"x_min":76,"x_max":1138,"o":"m 76 579 l 1019 579 q 975 732 1010 663 q 887 851 940 801 q 764 930 833 901 q 617 958 694 958 q 414 919 500 958 q 254 813 328 881 l 175 890 q 367 1017 258 967 q 618 1067 475 1067 q 819 1024 725 1067 q 985 909 914 982 q 1097 737 1056 836 q 1138 522 1138 638 q 1096 310 1138 408 q 983 138 1054 211 q 815 23 911 65 q 608 -19 718 -19 q 381 26 481 -19 q 215 151 282 71 q 112 340 147 231 q 76 576 76 449 l 76 579 m 610 89 q 760 118 689 89 q 885 198 831 147 q 976 319 940 249 q 1019 472 1011 389 l 201 472 q 240 319 208 389 q 324 198 272 249 q 449 118 376 147 q 610 89 521 89 z "},"Ө":{"ha":1238,"x_min":76,"x_max":1161,"o":"m 76 526 q 120 738 76 639 q 238 909 164 836 q 411 1024 313 982 q 621 1067 510 1067 q 828 1024 731 1067 q 1001 909 926 982 q 1118 737 1075 836 q 1161 522 1161 638 q 1117 310 1161 408 q 999 138 1074 211 q 826 23 925 65 q 615 -19 726 -19 q 410 22 507 -19 q 238 137 313 64 q 120 310 164 210 q 76 526 76 410 m 615 90 q 772 119 699 90 q 903 200 846 149 q 998 323 961 251 q 1043 478 1035 394 l 196 478 q 242 322 204 393 q 336 199 279 250 q 465 119 393 147 q 615 90 538 90 m 1043 579 q 996 732 1033 663 q 902 851 958 801 q 773 930 846 901 q 619 958 700 958 q 467 930 539 958 q 338 851 394 901 q 243 731 281 800 q 196 579 206 661 l 1043 579 z "},"а":{"ha":822,"x_min":51,"x_max":721,"o":"m 51 325 q 76 459 51 397 q 143 567 100 521 q 244 638 186 613 q 369 664 301 664 q 501 634 440 664 q 608 536 563 604 l 610 536 l 610 647 l 721 647 l 721 0 l 610 0 l 610 111 l 608 111 q 502 12 563 43 q 372 -19 442 -19 q 244 7 303 -19 q 142 80 185 33 q 76 190 100 126 q 51 325 51 253 m 164 325 q 180 227 164 272 q 226 149 196 182 q 297 99 256 117 q 389 81 339 81 q 481 99 439 81 q 553 149 522 117 q 601 226 583 182 q 618 324 618 271 q 601 420 618 376 q 553 497 583 464 q 481 547 522 529 q 389 565 439 565 q 299 547 340 565 q 227 496 257 528 q 181 419 197 464 q 164 325 164 375 z "},"б":{"ha":818,"x_min":61,"x_max":768,"o":"m 61 450 q 74 659 61 563 q 115 833 86 756 q 193 967 144 911 q 314 1054 242 1024 q 415 1090 363 1075 q 517 1116 467 1104 q 615 1138 568 1128 q 701 1160 663 1149 l 725 1053 q 635 1031 683 1040 q 539 1010 588 1021 q 444 988 490 1000 q 357 957 397 975 q 278 904 313 936 q 219 822 243 872 q 180 696 194 771 q 161 513 165 621 l 163 513 q 267 624 196 581 q 439 667 338 667 q 572 641 511 667 q 676 569 632 615 q 744 460 719 524 q 768 324 768 397 q 742 189 768 251 q 671 80 717 126 q 563 7 625 33 q 426 -19 500 -19 q 157 101 253 -19 q 61 450 61 221 m 424 79 q 518 97 475 79 q 592 147 561 115 q 641 224 624 179 q 658 325 658 269 q 641 426 658 381 q 593 503 624 471 q 520 552 563 535 q 428 569 478 569 q 326 553 372 569 q 245 507 279 538 q 192 433 211 476 q 174 335 174 389 q 192 231 174 278 q 243 150 210 183 q 322 98 276 117 q 424 79 368 79 z "},"в":{"ha":657,"x_min":100,"x_max":613,"o":"m 100 0 l 100 649 l 340 649 q 500 608 443 649 q 557 486 557 568 q 533 399 557 433 q 475 346 510 364 q 526 328 501 340 q 570 297 551 315 q 601 251 589 278 q 613 192 613 225 q 593 101 613 138 q 540 42 574 64 q 464 10 507 19 q 372 0 421 0 l 100 0 m 358 88 q 458 115 419 88 q 497 196 497 142 q 486 244 497 225 q 456 274 475 263 q 412 290 438 285 q 358 294 386 294 l 211 294 l 211 88 l 358 88 m 342 375 q 420 399 388 375 q 453 469 453 422 q 420 539 453 518 q 329 560 388 560 l 211 560 l 211 375 l 342 375 z "},"г":{"ha":500,"x_min":100,"x_max":478,"o":"m 100 0 l 100 649 l 478 649 l 478 549 l 211 549 l 211 0 l 100 0 z "},"ѓ":{"ha":500,"x_min":100,"x_max":478,"o":"m 244 775 l 183 814 l 374 1040 l 478 983 l 244 775 m 100 0 l 100 649 l 478 649 l 478 549 l 211 549 l 211 0 l 100 0 z "},"ґ":{"ha":499,"x_min":100,"x_max":476,"o":"m 100 0 l 100 649 l 378 649 l 378 853 l 476 853 l 476 549 l 211 549 l 211 0 l 100 0 z "},"д":{"ha":726,"x_min":4,"x_max":696,"o":"m 4 -204 l 4 97 l 28 97 q 91 115 68 99 q 127 163 114 132 q 147 238 140 193 q 158 338 153 282 l 193 649 l 600 649 l 600 99 l 696 99 l 696 -204 l 597 -204 l 597 0 l 104 0 l 104 -204 l 4 -204 m 490 99 l 490 551 l 290 551 l 265 322 q 253 238 260 274 q 235 176 246 203 q 211 132 225 150 q 176 99 197 114 l 490 99 z "},"е":{"ha":721,"x_min":51,"x_max":671,"o":"m 367 665 q 496 640 439 665 q 592 570 553 615 q 651 465 631 525 q 671 333 671 404 l 671 303 l 167 303 q 183 213 168 254 q 225 143 199 172 q 289 97 251 114 q 374 81 326 81 q 485 110 440 81 q 564 194 531 139 l 656 139 q 542 22 611 64 q 369 -19 472 -19 q 239 6 297 -19 q 139 76 181 31 q 74 184 97 121 q 51 324 51 247 q 74 461 51 399 q 139 569 97 524 q 238 640 181 615 q 367 665 296 665 m 174 394 l 557 394 q 500 516 550 467 q 368 565 450 565 q 238 517 289 565 q 174 394 188 469 z "},"ѐ":{"ha":721,"x_min":51,"x_max":671,"o":"m 367 665 q 496 640 439 665 q 592 570 553 615 q 651 465 631 525 q 671 333 671 404 l 671 303 l 167 303 q 183 213 168 254 q 225 143 199 172 q 289 97 251 114 q 374 81 326 81 q 485 110 440 81 q 564 194 531 139 l 656 139 q 542 22 611 64 q 369 -19 472 -19 q 239 6 297 -19 q 139 76 181 31 q 74 184 97 121 q 51 324 51 247 q 74 461 51 399 q 139 569 97 524 q 238 640 181 615 q 367 665 296 665 m 174 394 l 557 394 q 500 516 550 467 q 368 565 450 565 q 238 517 289 565 q 174 394 188 469 m 268 1039 l 458 813 l 396 774 l 164 982 l 268 1039 z "},"ё":{"ha":721,"x_min":51,"x_max":671,"o":"m 51 324 q 74 461 51 399 q 139 569 97 524 q 238 640 181 615 q 367 665 296 665 q 496 640 439 665 q 592 570 553 615 q 651 465 631 525 q 671 333 671 404 l 671 303 l 167 303 q 183 213 168 254 q 225 143 199 172 q 289 97 251 114 q 374 81 326 81 q 485 110 440 81 q 564 194 531 139 l 656 139 q 542 22 611 64 q 369 -19 472 -19 q 239 6 297 -19 q 139 76 181 31 q 74 184 97 121 q 51 324 51 247 m 174 394 l 557 394 q 500 516 550 467 q 368 565 450 565 q 238 517 289 565 q 174 394 188 469 m 428 893 q 451 946 428 925 q 501 967 474 967 q 554 945 532 967 q 576 893 576 924 q 553 840 576 861 q 501 819 531 819 q 449 840 471 819 q 428 893 428 861 m 153 893 q 176 946 153 925 q 226 967 199 967 q 278 946 256 967 q 300 893 300 925 q 278 840 300 861 q 226 819 256 819 q 174 841 196 819 q 153 893 153 863 z "},"ж":{"ha":947,"x_min":-6,"x_max":953,"o":"m -6 0 l 317 357 l 18 647 l 150 647 l 421 381 l 421 647 l 526 647 l 526 381 l 799 647 l 929 647 l 631 357 l 953 0 l 819 0 l 561 292 l 526 260 l 526 0 l 421 0 l 421 260 l 386 292 l 128 0 l -6 0 z "},"з":{"ha":600,"x_min":28,"x_max":550,"o":"m 28 97 l 101 164 q 181 98 135 124 q 290 72 226 72 q 399 101 358 72 q 440 189 440 131 q 426 240 440 219 q 390 274 413 261 q 340 292 368 286 q 282 297 311 297 l 207 297 l 207 382 l 274 382 q 323 388 299 382 q 367 407 347 394 q 398 438 386 419 q 410 481 410 456 q 378 552 410 529 q 292 575 346 575 q 131 508 196 575 l 63 571 q 163 642 106 617 q 294 668 219 668 q 381 658 340 668 q 451 626 421 647 q 499 572 481 604 q 517 496 517 539 q 486 404 517 443 q 413 350 456 365 q 511 292 472 335 q 550 189 550 250 q 531 98 550 138 q 476 32 511 58 q 394 -8 442 6 q 290 -21 346 -21 q 135 12 199 -21 q 28 97 71 44 z "},"и":{"ha":764,"x_min":100,"x_max":664,"o":"m 651 671 l 664 671 l 664 0 l 554 0 l 554 435 l 111 -22 l 100 -22 l 100 649 l 211 649 l 211 214 l 651 671 z "},"й":{"ha":764,"x_min":100,"x_max":664,"o":"m 100 649 l 211 649 l 211 214 l 651 671 l 664 671 l 664 0 l 554 0 l 554 435 l 111 -22 l 100 -22 l 100 649 m 242 1022 q 296 932 256 968 q 401 896 336 896 q 508 932 468 896 q 561 1022 549 968 l 650 993 q 563 860 626 910 q 401 810 499 810 q 240 860 304 810 q 153 993 176 910 l 242 1022 z "},"ѝ":{"ha":764,"x_min":100,"x_max":664,"o":"m 494 814 l 432 775 l 200 983 l 304 1040 l 494 814 m 651 671 l 664 671 l 664 0 l 554 0 l 554 435 l 111 -22 l 100 -22 l 100 649 l 211 649 l 211 214 l 651 671 z "},"к":{"ha":656,"x_min":100,"x_max":646,"o":"m 100 0 l 100 647 l 211 647 l 211 390 l 482 647 l 622 647 l 313 363 l 646 0 l 507 0 l 240 296 l 211 269 l 211 0 l 100 0 z "},"ќ":{"ha":656,"x_min":100,"x_max":646,"o":"m 100 647 l 211 647 l 211 390 l 482 647 l 622 647 l 313 363 l 646 0 l 507 0 l 240 296 l 211 269 l 211 0 l 100 0 l 100 647 m 213 813 l 403 1039 l 507 982 l 274 774 l 213 813 z "},"л":{"ha":719,"x_min":1,"x_max":629,"o":"m 18 103 q 39 95 26 99 q 65 92 51 92 q 101 99 86 92 q 126 124 115 106 q 143 176 136 143 q 156 261 150 210 l 199 649 l 629 649 l 629 0 l 519 0 l 519 549 l 297 549 l 265 249 q 244 129 257 178 q 210 51 232 81 q 155 8 188 21 q 76 -4 122 -4 q 36 -1 57 -4 q 1 8 15 3 l 18 103 z "},"м":{"ha":876,"x_min":36,"x_max":840,"o":"m 165 667 l 174 667 l 438 168 l 703 667 l 713 667 l 840 0 l 731 0 l 665 415 l 443 -15 l 435 -15 l 211 415 l 147 0 l 36 0 l 165 667 z "},"н":{"ha":743,"x_min":100,"x_max":643,"o":"m 211 649 l 211 386 l 533 386 l 533 649 l 643 649 l 643 0 l 533 0 l 533 288 l 211 288 l 211 0 l 100 0 l 100 649 l 211 649 z "},"о":{"ha":788,"x_min":51,"x_max":736,"o":"m 51 326 q 76 458 51 396 q 147 565 101 519 q 255 638 192 611 q 393 665 318 665 q 531 639 468 665 q 640 567 594 613 q 710 458 685 521 q 736 324 736 396 q 711 188 736 251 q 640 79 686 125 q 531 7 594 33 q 392 -19 468 -19 q 254 7 317 -19 q 147 80 192 33 q 76 190 101 126 q 51 326 51 253 m 164 325 q 181 226 164 271 q 228 148 197 181 q 301 98 258 115 q 393 81 343 81 q 485 98 443 81 q 558 148 528 115 q 606 225 589 181 q 624 324 624 269 q 606 420 624 376 q 558 497 589 464 q 485 547 528 529 q 393 565 443 565 q 301 547 343 565 q 228 497 258 529 q 181 420 199 464 q 164 325 164 376 z "},"п":{"ha":736,"x_min":100,"x_max":635,"o":"m 635 649 l 635 0 l 525 0 l 525 550 l 211 550 l 211 0 l 100 0 l 100 649 l 635 649 z "},"р":{"ha":822,"x_min":101,"x_max":771,"o":"m 213 647 l 213 538 l 214 538 q 320 635 260 604 q 450 667 381 667 q 578 640 519 667 q 680 567 638 614 q 747 458 722 521 q 771 324 771 396 q 747 189 771 251 q 680 81 722 126 q 579 9 638 35 q 454 -17 521 -17 q 322 13 382 -17 q 214 111 261 43 l 213 111 l 213 -364 l 101 -364 l 101 647 l 213 647 m 433 82 q 524 101 482 82 q 595 151 565 119 q 642 228 625 183 q 658 324 658 272 q 642 421 658 376 q 597 497 626 465 q 526 548 567 529 q 435 567 485 567 q 343 549 385 567 q 270 499 301 531 q 222 422 239 467 q 204 325 204 378 q 222 228 204 272 q 269 151 239 183 q 342 100 300 118 q 433 82 385 82 z "},"с":{"ha":643,"x_min":51,"x_max":576,"o":"m 51 322 q 76 458 51 396 q 147 567 101 521 q 256 639 192 613 q 397 665 319 665 q 499 651 453 665 q 576 617 544 638 l 576 490 q 495 547 538 528 q 394 565 453 565 q 299 547 342 565 q 226 496 257 528 q 180 419 196 464 q 164 324 164 375 q 179 227 164 272 q 224 150 194 182 q 295 99 253 118 q 392 81 338 81 q 492 99 449 81 q 576 153 536 117 l 576 32 q 497 -6 543 8 q 397 -19 450 -19 q 256 6 319 -19 q 147 78 192 32 q 76 186 101 124 q 51 322 51 249 z "},"т":{"ha":550,"x_min":22,"x_max":528,"o":"m 22 649 l 528 649 l 528 550 l 331 550 l 331 0 l 221 0 l 221 550 l 22 550 l 22 649 z "},"у":{"ha":668,"x_min":-6,"x_max":674,"o":"m 124 647 l 343 215 l 549 647 l 674 647 l 181 -364 l 56 -364 l 286 97 l -6 647 l 124 647 z "},"ў":{"ha":668,"x_min":-6,"x_max":674,"o":"m -6 647 l 124 647 l 343 215 l 549 647 l 674 647 l 181 -364 l 56 -364 l 286 97 l -6 647 m 86 992 l 175 1021 q 229 931 189 967 q 335 894 269 894 q 442 931 401 894 q 494 1021 482 967 l 583 992 q 496 858 560 908 q 335 808 432 808 q 174 858 238 808 q 86 992 110 908 z "},"ф":{"ha":940,"x_min":51,"x_max":889,"o":"m 51 324 q 81 467 51 404 q 159 574 110 531 q 274 641 208 618 q 415 664 340 664 l 415 1140 l 525 1140 l 525 664 q 667 640 601 664 q 783 573 733 617 q 860 466 832 529 q 889 324 889 403 q 860 180 889 243 q 783 73 832 117 q 667 6 733 29 q 525 -18 601 -18 l 525 -364 l 415 -364 l 415 -18 q 274 6 340 -18 q 158 73 208 29 q 80 180 108 117 q 51 324 51 243 m 417 78 l 417 569 q 319 553 365 569 q 238 507 272 538 q 184 431 204 476 q 164 324 164 385 q 184 217 164 263 q 239 140 204 171 q 319 93 274 108 q 417 78 365 78 m 524 569 l 524 78 q 622 94 576 78 q 703 141 668 110 q 757 218 738 172 q 776 324 776 264 q 756 431 776 385 q 702 507 736 476 q 622 553 668 538 q 524 569 576 569 z "},"х":{"ha":685,"x_min":10,"x_max":675,"o":"m 281 346 l 51 647 l 183 647 l 347 429 l 511 647 l 647 647 l 413 344 l 675 0 l 543 0 l 344 264 l 146 0 l 10 0 l 281 346 z "},"ч":{"ha":708,"x_min":83,"x_max":608,"o":"m 83 432 l 83 649 l 190 649 l 190 446 q 226 344 190 371 q 338 317 263 317 q 424 328 385 317 q 499 357 464 339 l 499 649 l 608 649 l 608 0 l 499 0 l 499 267 q 419 238 464 251 q 318 224 374 224 q 142 271 200 224 q 83 432 83 318 z "},"ц":{"ha":764,"x_min":100,"x_max":733,"o":"m 100 649 l 211 649 l 211 99 l 524 99 l 524 649 l 635 649 l 635 99 l 733 99 l 733 -206 l 636 -206 l 636 0 l 100 0 l 100 649 z "},"ш":{"ha":1063,"x_min":100,"x_max":961,"o":"m 211 649 l 211 99 l 476 99 l 476 649 l 586 649 l 586 99 l 851 99 l 851 649 l 961 649 l 961 0 l 100 0 l 100 649 l 211 649 z "},"щ":{"ha":1093,"x_min":100,"x_max":1063,"o":"m 211 649 l 211 99 l 476 99 l 476 649 l 586 649 l 586 99 l 851 99 l 851 649 l 961 649 l 961 99 l 1063 99 l 1063 -206 l 965 -206 l 965 0 l 100 0 l 100 649 l 211 649 z "},"џ":{"ha":736,"x_min":100,"x_max":635,"o":"m 100 649 l 211 649 l 211 99 l 525 99 l 525 649 l 635 649 l 635 0 l 417 0 l 417 -204 l 319 -204 l 319 0 l 100 0 l 100 649 z "},"ь":{"ha":628,"x_min":100,"x_max":578,"o":"m 211 649 l 211 406 l 329 406 q 513 358 449 406 q 578 203 578 311 q 512 51 578 103 q 329 0 446 0 l 100 0 l 100 649 l 211 649 m 211 89 l 325 89 q 427 115 386 89 q 468 201 468 140 q 431 290 468 263 q 324 317 394 317 l 211 317 l 211 89 z "},"ъ":{"ha":736,"x_min":22,"x_max":685,"o":"m 318 649 l 318 406 l 436 406 q 620 358 556 406 q 685 203 685 311 q 619 51 685 103 q 436 0 553 0 l 208 0 l 208 549 l 22 549 l 22 649 l 318 649 m 432 89 q 535 115 494 89 q 575 201 575 140 q 538 290 575 263 q 431 317 501 317 l 318 317 l 318 89 l 432 89 z "},"ы":{"ha":894,"x_min":100,"x_max":794,"o":"m 211 649 l 211 406 l 329 406 q 513 358 449 406 q 578 203 578 311 q 512 51 578 103 q 329 0 446 0 l 100 0 l 100 649 l 211 649 m 683 0 l 683 649 l 794 649 l 794 0 l 683 0 m 325 89 q 427 115 386 89 q 468 201 468 140 q 431 290 468 263 q 324 317 394 317 l 211 317 l 211 89 l 325 89 z "},"љ":{"ha":997,"x_min":1,"x_max":947,"o":"m 18 103 q 39 95 26 99 q 65 92 51 92 q 101 99 86 92 q 126 124 115 106 q 143 176 136 143 q 156 261 150 210 l 199 649 l 601 649 l 601 406 l 699 406 q 883 358 818 406 q 947 203 947 311 q 881 51 947 103 q 699 0 815 0 l 492 0 l 492 549 l 297 549 l 265 249 q 244 129 257 178 q 210 51 232 81 q 155 8 188 21 q 76 -4 122 -4 q 36 -1 57 -4 q 1 8 15 3 l 18 103 m 601 89 l 694 89 q 797 115 756 89 q 838 201 838 140 q 800 290 838 263 q 692 317 763 317 l 601 317 l 601 89 z "},"њ":{"ha":1043,"x_min":100,"x_max":993,"o":"m 211 649 l 211 397 l 525 397 l 525 649 l 635 649 l 635 397 l 750 397 q 931 351 868 397 q 993 200 993 304 q 929 50 993 100 q 750 0 865 0 l 525 0 l 525 300 l 211 300 l 211 0 l 100 0 l 100 649 l 211 649 m 746 89 q 844 114 806 89 q 883 197 883 139 q 848 281 883 256 q 744 307 813 307 l 635 307 l 635 89 l 746 89 z "},"ѕ":{"ha":517,"x_min":28,"x_max":471,"o":"m 28 122 l 113 185 q 169 110 133 138 q 258 82 206 82 q 337 108 310 82 q 364 175 364 135 q 357 213 364 196 q 333 244 350 229 q 290 273 317 258 q 222 306 263 288 q 101 385 138 343 q 64 493 64 428 q 79 565 64 533 q 120 619 94 597 q 181 653 146 642 q 257 665 217 665 q 372 638 324 665 q 447 568 421 611 l 365 503 q 321 547 350 528 q 256 565 292 565 q 195 547 219 565 q 171 496 171 529 q 178 467 171 479 q 201 441 185 454 q 246 414 218 428 q 317 382 274 400 q 437 297 403 343 q 471 183 471 251 q 413 37 471 93 q 258 -19 354 -19 q 110 22 168 -19 q 28 122 51 64 z "},"є":{"ha":622,"x_min":51,"x_max":578,"o":"m 397 665 q 499 651 453 665 q 578 617 546 638 l 578 490 q 495 547 538 528 q 394 565 453 565 q 243 512 303 565 q 168 375 183 458 l 483 375 l 483 286 l 167 286 q 236 139 178 197 q 392 81 294 81 q 492 99 449 81 q 578 153 536 117 l 578 32 q 497 -6 544 8 q 397 -19 450 -19 q 257 6 321 -19 q 147 78 193 32 q 76 186 101 124 q 51 322 51 249 q 76 458 51 396 q 147 567 101 521 q 257 639 193 613 q 397 665 321 665 z "},"э":{"ha":643,"x_min":67,"x_max":593,"o":"m 67 151 q 152 98 110 115 q 251 81 194 81 q 408 139 350 81 q 478 286 467 197 l 161 286 l 161 375 l 476 375 q 401 512 461 458 q 250 565 340 565 q 148 546 192 565 q 67 490 104 526 l 67 617 q 144 651 97 636 q 246 665 192 665 q 388 639 324 665 q 497 567 451 613 q 568 458 543 521 q 593 321 593 394 q 568 186 593 249 q 497 78 543 124 q 388 6 451 32 q 247 -19 325 -19 q 148 -6 194 -19 q 67 31 101 8 l 67 151 z "},"і":{"ha":313,"x_min":79,"x_max":232,"o":"m 211 647 l 211 0 l 100 0 l 100 647 l 211 647 m 79 925 q 101 978 79 956 q 156 1000 124 1000 q 210 978 188 1000 q 232 925 232 957 q 210 871 232 893 q 156 849 188 849 q 101 871 124 849 q 79 925 79 893 z "},"ї":{"ha":313,"x_min":-56,"x_max":368,"o":"m 211 647 l 211 0 l 100 0 l 100 647 l 211 647 m 293 967 q 346 945 324 967 q 368 893 368 924 q 345 840 368 861 q 293 819 322 819 q 241 840 263 819 q 219 893 219 861 q 242 946 219 925 q 293 967 265 967 m -56 893 q -33 946 -56 925 q 18 967 -10 967 q 69 946 47 967 q 92 893 92 925 q 69 840 92 861 q 18 819 47 819 q -34 841 -12 819 q -56 893 -56 863 z "},"ј":{"ha":313,"x_min":79,"x_max":232,"o":"m 211 647 l 211 -364 l 100 -364 l 100 647 l 211 647 m 79 925 q 101 978 79 956 q 156 1000 124 1000 q 210 978 188 1000 q 232 925 232 957 q 210 871 232 893 q 156 849 188 849 q 101 871 124 849 q 79 925 79 893 z "},"ћ":{"ha":729,"x_min":0,"x_max":639,"o":"m 0 886 l 0 961 l 100 961 l 100 1139 l 211 1139 l 211 961 l 426 961 l 426 886 l 211 886 l 211 556 l 214 556 q 297 635 246 606 q 421 665 347 665 q 584 599 529 665 q 639 406 639 532 l 639 0 l 528 0 l 528 381 q 492 523 528 481 q 386 565 457 565 q 259 513 307 565 q 211 343 211 461 l 211 0 l 100 0 l 100 886 l 0 886 z "},"ю":{"ha":1064,"x_min":100,"x_max":1013,"o":"m 211 649 l 211 379 l 332 379 q 371 496 342 443 q 445 587 400 549 q 548 646 490 625 q 671 667 606 667 q 807 640 744 667 q 915 568 869 614 q 987 460 961 522 q 1013 324 1013 397 q 986 187 1013 250 q 914 78 960 124 q 806 6 868 32 q 671 -21 743 -21 q 544 1 603 -21 q 440 64 485 24 q 366 160 394 104 q 331 282 338 215 l 211 282 l 211 0 l 100 0 l 100 649 l 211 649 m 671 81 q 761 100 719 81 q 834 152 803 119 q 883 229 865 185 q 901 324 901 274 q 883 418 901 374 q 834 495 865 463 q 760 547 803 528 q 669 565 718 565 q 580 547 622 565 q 506 495 538 528 q 457 419 475 463 q 439 324 439 375 q 457 229 439 274 q 506 152 475 185 q 580 100 538 119 q 671 81 622 81 z "},"я":{"ha":651,"x_min":40,"x_max":550,"o":"m 40 0 l 244 263 q 122 322 169 275 q 75 453 75 369 q 140 599 75 550 q 317 649 204 649 l 550 649 l 550 0 l 440 0 l 440 257 l 357 257 l 172 0 l 40 0 m 311 344 l 440 344 l 440 560 l 313 560 q 218 535 254 560 q 182 453 182 511 q 217 372 182 400 q 311 344 251 344 z "},"ђ":{"ha":746,"x_min":0,"x_max":657,"o":"m 0 886 l 0 961 l 118 961 l 118 1139 l 229 1139 l 229 961 l 428 961 l 428 886 l 229 886 l 229 556 l 232 556 q 315 635 264 606 q 438 665 365 665 q 601 599 546 665 q 657 406 657 532 l 657 -183 q 622 -315 657 -269 q 515 -361 586 -361 q 463 -357 486 -361 q 421 -346 439 -353 l 421 -250 q 447 -260 435 -257 q 474 -262 458 -262 q 547 -160 547 -262 l 546 381 q 510 523 546 481 q 403 565 474 565 q 276 513 324 565 q 229 343 229 461 l 229 0 l 118 0 l 118 886 l 0 886 z "},"ғ":{"ha":558,"x_min":19,"x_max":522,"o":"m 19 363 l 142 363 l 142 649 l 522 649 l 522 549 l 251 549 l 251 363 l 440 363 l 440 281 l 251 281 l 251 0 l 142 0 l 142 281 l 19 281 l 19 363 z "},"җ":{"ha":964,"x_min":10,"x_max":958,"o":"m 10 0 l 317 339 l 33 649 l 157 649 l 418 364 l 418 649 l 525 649 l 525 364 l 786 649 l 910 649 l 629 339 l 854 99 l 958 99 l 958 -206 l 861 -206 l 861 0 l 806 0 l 561 274 l 525 240 l 525 0 l 418 0 l 418 242 l 385 275 l 138 0 l 10 0 z "},"қ":{"ha":675,"x_min":100,"x_max":669,"o":"m 100 0 l 100 647 l 211 647 l 211 350 l 493 647 l 622 647 l 321 339 l 560 99 l 669 99 l 669 -206 l 571 -206 l 571 0 l 507 0 l 211 311 l 211 0 l 100 0 z "},"ҝ":{"ha":746,"x_min":100,"x_max":736,"o":"m 100 649 l 210 649 l 210 386 l 263 386 l 263 524 l 336 524 l 336 386 l 351 386 l 574 649 l 708 649 l 443 342 l 736 0 l 600 0 l 356 288 l 336 288 l 336 149 l 263 149 l 263 288 l 210 288 l 210 0 l 100 0 l 100 649 z "},"ң":{"ha":776,"x_min":100,"x_max":746,"o":"m 211 649 l 211 386 l 533 386 l 533 649 l 643 649 l 643 99 l 746 99 l 746 -206 l 647 -206 l 647 0 l 533 0 l 533 288 l 211 288 l 211 0 l 100 0 l 100 649 l 211 649 z "},"ү":{"ha":631,"x_min":-6,"x_max":635,"o":"m 118 647 l 315 128 l 513 647 l 635 647 l 369 -6 l 369 -364 l 260 -364 l 260 -6 l -6 647 l 118 647 z "},"ұ":{"ha":631,"x_min":-6,"x_max":635,"o":"m -6 647 l 118 647 l 315 128 l 513 647 l 635 647 l 369 -6 l 369 -28 l 525 -28 l 525 -110 l 369 -110 l 369 -364 l 260 -364 l 260 -110 l 104 -110 l 104 -28 l 260 -28 l 260 -6 l -6 647 z "},"ҳ":{"ha":729,"x_min":10,"x_max":724,"o":"m 10 0 l 292 351 l 61 649 l 193 649 l 358 429 l 525 649 l 660 649 l 424 353 l 624 99 l 724 99 l 724 -206 l 625 -206 l 625 0 l 568 0 l 351 275 l 146 0 l 10 0 z "},"ҹ":{"ha":708,"x_min":83,"x_max":608,"o":"m 83 649 l 190 649 l 190 446 q 219 350 190 378 q 310 318 249 322 l 310 460 l 383 460 l 383 319 q 444 333 415 324 q 499 357 472 343 l 499 649 l 608 649 l 608 0 l 499 0 l 499 267 q 446 246 475 256 q 383 229 417 236 l 383 82 l 310 82 l 310 224 q 140 272 196 225 q 83 432 83 319 l 83 649 z "},"һ":{"ha":729,"x_min":100,"x_max":639,"o":"m 100 0 l 100 1139 l 211 1139 l 211 556 l 214 556 q 297 635 246 606 q 421 665 347 665 q 584 599 529 665 q 639 406 639 532 l 639 0 l 528 0 l 528 381 q 492 523 528 481 q 386 565 457 565 q 259 513 307 565 q 211 343 211 461 l 211 0 l 100 0 z "},"ӏ":{"ha":313,"x_min":100,"x_max":211,"o":"m 100 0 l 100 1139 l 211 1139 l 211 0 l 100 0 z "},"ә":{"ha":724,"x_min":54,"x_max":674,"o":"m 557 344 q 499 504 554 442 q 350 567 444 567 q 238 536 283 567 q 150 440 192 506 l 61 490 q 181 622 111 578 q 354 667 251 667 q 485 642 426 667 q 586 572 544 617 q 651 463 628 526 q 674 325 674 400 q 651 187 674 250 q 586 78 628 124 q 486 7 544 32 q 357 -18 428 -18 q 228 7 285 -18 q 133 77 172 32 q 74 183 94 122 q 54 314 54 243 l 54 344 l 557 344 m 168 253 q 224 131 175 181 q 357 82 274 82 q 487 130 436 82 q 550 253 538 178 l 168 253 z "},"ө":{"ha":788,"x_min":51,"x_max":736,"o":"m 51 326 q 76 458 51 396 q 147 565 101 519 q 255 638 192 611 q 393 665 318 665 q 531 639 468 665 q 640 567 594 613 q 710 458 685 521 q 736 324 736 396 q 711 188 736 251 q 640 79 686 125 q 531 7 594 33 q 392 -19 468 -19 q 254 7 317 -19 q 147 80 192 33 q 76 190 101 126 q 51 326 51 253 m 167 283 q 240 136 179 192 q 393 81 301 81 q 547 136 485 81 q 621 283 608 192 l 167 283 m 167 365 l 621 365 q 594 446 614 410 q 545 509 575 482 q 477 551 515 536 q 393 565 439 565 q 310 551 349 565 q 241 509 271 536 q 192 446 211 482 q 167 365 174 410 z "},"Α":{"ha":953,"x_min":-7,"x_max":960,"o":"m 482 1103 l 486 1103 l 960 0 l 833 0 l 710 296 l 243 296 l 117 0 l -7 0 l 482 1103 m 665 404 l 574 624 q 527 736 550 681 q 481 849 504 792 q 432 735 457 790 q 383 622 407 679 l 290 404 l 665 404 z "},"Β":{"ha":799,"x_min":118,"x_max":729,"o":"m 118 0 l 118 1047 l 286 1047 q 549 976 458 1047 q 639 775 639 906 q 597 637 639 696 q 493 551 556 578 l 493 550 q 667 461 606 528 q 729 294 729 394 q 630 75 729 150 q 357 0 531 0 l 118 0 m 367 108 q 477 123 431 108 q 553 163 524 138 q 597 224 583 189 q 611 299 611 258 q 597 373 611 339 q 551 432 583 407 q 469 471 519 457 q 346 485 419 485 l 233 485 l 233 108 l 367 108 m 313 582 q 472 635 419 582 q 524 771 524 688 q 472 898 524 854 q 308 942 419 942 l 233 942 l 233 582 l 313 582 z "},"Γ":{"ha":615,"x_min":118,"x_max":603,"o":"m 118 0 l 118 1047 l 603 1047 l 603 943 l 233 943 l 233 0 l 118 0 z "},"Δ":{"ha":971,"x_min":1,"x_max":969,"o":"m 492 1103 l 494 1103 l 969 0 l 1 0 l 492 1103 m 796 108 l 551 697 q 520 774 536 736 q 489 847 504 811 q 458 771 474 808 q 425 693 442 733 l 174 108 l 796 108 z "},"Ε":{"ha":763,"x_min":118,"x_max":663,"o":"m 663 1047 l 663 939 l 233 939 l 233 626 l 649 626 l 649 518 l 233 518 l 233 108 l 663 108 l 663 0 l 118 0 l 118 1047 l 663 1047 z "},"Ζ":{"ha":821,"x_min":21,"x_max":783,"o":"m 21 0 l 21 3 l 594 939 l 101 939 l 101 1047 l 783 1047 l 783 1044 l 211 108 l 778 108 l 778 0 l 21 0 z "},"Η":{"ha":982,"x_min":118,"x_max":865,"o":"m 233 1047 l 233 622 l 749 622 l 749 1047 l 865 1047 l 865 0 l 749 0 l 749 514 l 233 514 l 233 0 l 118 0 l 118 1047 l 233 1047 z "},"Θ":{"ha":1238,"x_min":76,"x_max":1161,"o":"m 76 526 q 120 738 76 639 q 238 909 164 836 q 411 1024 313 982 q 621 1067 510 1067 q 828 1024 731 1067 q 1001 909 926 982 q 1118 737 1075 836 q 1161 522 1161 638 q 1117 310 1161 408 q 999 138 1074 211 q 826 23 925 65 q 615 -19 726 -19 q 410 22 507 -19 q 238 137 313 64 q 120 310 164 210 q 76 526 76 410 m 615 90 q 783 124 704 90 q 919 215 861 157 q 1012 353 978 274 q 1046 524 1046 432 q 1012 697 1046 617 q 920 835 978 776 q 785 926 863 893 q 619 958 707 958 q 456 925 533 958 q 319 833 378 892 q 227 696 261 775 q 193 525 193 617 q 228 351 193 431 q 321 213 263 271 q 456 123 379 156 q 615 90 532 90 m 864 575 l 864 474 l 374 474 l 374 575 l 864 575 z "},"Ι":{"ha":350,"x_min":118,"x_max":233,"o":"m 118 0 l 118 1047 l 233 1047 l 233 0 l 118 0 z "},"Κ":{"ha":844,"x_min":118,"x_max":844,"o":"m 118 0 l 118 1047 l 233 1047 l 233 604 l 683 1047 l 832 1047 l 351 585 l 844 0 l 694 0 l 272 510 l 233 476 l 233 0 l 118 0 z "},"Λ":{"ha":932,"x_min":-7,"x_max":939,"o":"m 467 1103 l 471 1103 l 939 0 l 814 0 l 465 849 l 117 0 l -7 0 l 467 1103 z "},"Μ":{"ha":1232,"x_min":42,"x_max":1190,"o":"m 42 0 l 257 1111 l 261 1111 l 618 224 l 986 1111 l 990 1111 l 1190 0 l 1071 0 l 943 753 l 618 -39 l 615 -39 l 299 754 l 161 0 l 42 0 z "},"Ν":{"ha":1119,"x_min":118,"x_max":1001,"o":"m 886 1047 l 1001 1047 l 1001 -50 l 997 -50 l 233 819 l 233 0 l 118 0 l 118 1103 l 122 1103 l 886 232 l 886 1047 z "},"Ξ":{"ha":897,"x_min":100,"x_max":799,"o":"m 114 942 l 114 1047 l 785 1047 l 785 942 l 114 942 m 163 476 l 163 579 l 744 579 l 744 476 l 163 476 m 100 0 l 100 106 l 799 106 l 799 0 l 100 0 z "},"Ο":{"ha":1238,"x_min":76,"x_max":1161,"o":"m 76 526 q 120 738 76 639 q 238 909 164 836 q 411 1024 313 982 q 621 1067 510 1067 q 828 1024 731 1067 q 1001 909 926 982 q 1118 737 1075 836 q 1161 522 1161 638 q 1117 310 1161 408 q 999 138 1074 211 q 826 23 925 65 q 615 -19 726 -19 q 410 22 507 -19 q 238 137 313 64 q 120 310 164 210 q 76 526 76 410 m 193 525 q 228 351 193 431 q 321 213 263 271 q 456 123 379 156 q 615 90 532 90 q 783 124 704 90 q 919 215 861 157 q 1012 353 978 274 q 1046 524 1046 432 q 1012 697 1046 617 q 920 835 978 776 q 785 926 863 893 q 619 958 707 958 q 456 925 533 958 q 319 833 378 892 q 227 696 261 775 q 193 525 193 617 z "},"Π":{"ha":976,"x_min":118,"x_max":858,"o":"m 858 1047 l 858 0 l 743 0 l 743 944 l 233 944 l 233 0 l 118 0 l 118 1047 l 858 1047 z "},"Ρ":{"ha":710,"x_min":118,"x_max":664,"o":"m 276 1047 q 435 1032 364 1047 q 557 981 506 1017 q 636 889 608 946 q 664 749 664 832 q 639 621 664 676 q 568 526 614 565 q 458 467 522 488 q 317 447 394 447 l 233 447 l 233 0 l 118 0 l 118 1047 l 276 1047 m 233 554 l 307 554 q 488 603 425 554 q 551 750 551 651 q 486 895 551 849 q 299 942 421 942 l 233 942 l 233 554 z "},"Σ":{"ha":767,"x_min":21,"x_max":715,"o":"m 21 0 l 356 525 l 26 1047 l 715 1047 l 715 943 l 218 943 l 482 525 l 214 104 l 714 104 l 714 0 l 21 0 z "},"Τ":{"ha":646,"x_min":13,"x_max":633,"o":"m 13 1047 l 633 1047 l 633 939 l 381 939 l 381 0 l 267 0 l 267 939 l 13 939 l 13 1047 z "},"Υ":{"ha":793,"x_min":-3,"x_max":796,"o":"m 129 1047 l 396 579 l 664 1047 l 796 1047 l 453 460 l 453 0 l 339 0 l 339 460 l -3 1047 l 129 1047 z "},"Φ":{"ha":1229,"x_min":69,"x_max":1160,"o":"m 558 989 l 558 1074 l 669 1074 l 669 989 q 868 947 778 982 q 1023 851 958 911 q 1124 710 1088 792 q 1160 528 1160 628 q 1124 347 1160 429 q 1023 206 1088 265 q 868 110 958 146 q 669 67 778 75 l 669 -25 l 558 -25 l 558 67 q 361 109 451 74 q 206 204 271 144 q 106 347 142 264 q 69 532 69 431 q 105 710 69 629 q 205 850 140 790 q 360 945 269 910 q 558 989 450 981 m 669 168 q 826 204 757 175 q 944 281 896 233 q 1019 391 993 328 q 1044 529 1044 454 q 1018 668 1044 606 q 943 777 992 731 q 825 851 894 824 q 669 886 756 879 l 669 168 m 185 529 q 212 390 185 453 q 288 279 239 326 q 405 203 336 232 q 558 168 474 175 l 558 886 q 403 850 472 879 q 286 774 335 821 q 211 666 238 728 q 185 529 185 604 z "},"Χ":{"ha":803,"x_min":15,"x_max":786,"o":"m 15 0 l 340 553 l 53 1047 l 183 1047 l 407 640 l 635 1047 l 767 1047 l 471 553 l 786 0 l 658 0 l 404 463 l 146 0 l 15 0 z "},"Ψ":{"ha":1224,"x_min":106,"x_max":1117,"o":"m 218 1047 l 218 672 q 298 444 218 521 q 556 364 378 367 l 556 1047 l 668 1047 l 668 364 q 925 443 846 367 q 1004 672 1004 519 l 1004 1047 l 1117 1047 l 1117 669 q 1008 366 1117 471 q 668 258 899 261 l 668 0 l 556 0 l 556 258 q 215 367 325 261 q 106 669 106 472 l 106 1047 l 218 1047 z "},"Ω":{"ha":1281,"x_min":103,"x_max":1178,"o":"m 103 0 l 103 99 l 339 99 q 171 284 231 174 q 111 540 111 394 q 153 747 111 651 q 267 914 194 843 q 435 1026 339 985 q 640 1067 531 1067 q 844 1026 749 1067 q 1012 914 940 985 q 1126 747 1083 843 q 1168 540 1168 651 q 1109 283 1168 393 q 942 99 1050 174 l 1178 99 l 1178 0 l 782 0 l 782 93 q 988 281 924 172 q 1053 540 1053 390 q 1021 701 1053 625 q 933 834 989 776 q 802 925 878 892 q 640 958 726 958 q 478 925 553 958 q 347 834 403 892 q 258 701 290 776 q 226 540 226 625 q 292 283 226 392 q 496 96 357 175 l 496 0 l 103 0 z "},"Ά":{"ha":953,"x_min":-7,"x_max":960,"o":"m 482 1103 l 486 1103 l 960 0 l 833 0 l 710 296 l 243 296 l 117 0 l -7 0 l 482 1103 m 290 404 l 665 404 l 574 624 q 527 736 550 681 q 481 849 504 792 q 432 735 457 790 q 383 622 407 679 l 290 404 m 81 774 l 142 1047 l 261 1047 l 151 774 l 81 774 z "},"Έ":{"ha":763,"x_min":-126,"x_max":663,"o":"m 118 1047 l 663 1047 l 663 939 l 233 939 l 233 626 l 649 626 l 649 518 l 233 518 l 233 108 l 663 108 l 663 0 l 118 0 l 118 1047 m -126 774 l -65 1047 l 54 1047 l -56 774 l -126 774 z "},"Ή":{"ha":982,"x_min":-126,"x_max":865,"o":"m 233 1047 l 233 622 l 749 622 l 749 1047 l 865 1047 l 865 0 l 749 0 l 749 514 l 233 514 l 233 0 l 118 0 l 118 1047 l 233 1047 m -65 1047 l 54 1047 l -56 774 l -126 774 l -65 1047 z "},"Ί":{"ha":350,"x_min":-126,"x_max":233,"o":"m 233 1047 l 233 0 l 118 0 l 118 1047 l 233 1047 m -126 774 l -65 1047 l 54 1047 l -56 774 l -126 774 z "},"Ό":{"ha":1238,"x_min":-51,"x_max":1161,"o":"m 76 526 q 120 738 76 639 q 238 909 164 836 q 411 1024 313 982 q 621 1067 510 1067 q 828 1024 731 1067 q 1001 909 926 982 q 1118 737 1075 836 q 1161 522 1161 638 q 1117 310 1161 408 q 999 138 1074 211 q 826 23 925 65 q 615 -19 726 -19 q 410 22 507 -19 q 238 137 313 64 q 120 310 164 210 q 76 526 76 410 m 193 525 q 228 351 193 431 q 321 213 263 271 q 456 123 379 156 q 615 90 532 90 q 783 124 704 90 q 919 215 861 157 q 1012 353 978 274 q 1046 524 1046 432 q 1012 697 1046 617 q 920 835 978 776 q 785 926 863 893 q 619 958 707 958 q 456 925 533 958 q 319 833 378 892 q 227 696 261 775 q 193 525 193 617 m 10 1047 l 129 1047 l 19 774 l -51 774 l 10 1047 z "},"Ύ":{"ha":793,"x_min":-164,"x_max":796,"o":"m -164 774 l -103 1047 l 129 1047 l 396 579 l 664 1047 l 796 1047 l 453 460 l 453 0 l 339 0 l 339 460 l 8 1028 l -93 774 l -164 774 z "},"Ώ":{"ha":1281,"x_min":-24,"x_max":1178,"o":"m 339 99 q 171 284 231 174 q 111 540 111 394 q 153 747 111 651 q 267 914 194 843 q 435 1026 339 985 q 640 1067 531 1067 q 844 1026 749 1067 q 1012 914 940 985 q 1126 747 1083 843 q 1168 540 1168 651 q 1109 283 1168 393 q 942 99 1050 174 l 1178 99 l 1178 0 l 782 0 l 782 93 q 988 281 924 172 q 1053 540 1053 390 q 1021 701 1053 625 q 933 834 989 776 q 802 925 878 892 q 640 958 726 958 q 478 925 553 958 q 347 834 403 892 q 258 701 290 776 q 226 540 226 625 q 292 283 226 392 q 496 96 357 175 l 496 0 l 103 0 l 103 99 l 339 99 m 38 1047 l 157 1047 l 47 774 l -24 774 l 38 1047 z "},"Ϊ":{"ha":350,"x_min":-36,"x_max":388,"o":"m 233 1047 l 233 0 l 118 0 l 118 1047 l 233 1047 m 313 1308 q 365 1287 343 1308 q 388 1235 388 1265 q 365 1182 388 1203 q 313 1161 342 1161 q 260 1182 282 1161 q 239 1235 239 1203 q 262 1288 239 1267 q 313 1308 285 1308 m -36 1235 q -13 1288 -36 1267 q 38 1308 10 1308 q 89 1288 67 1308 q 111 1235 111 1267 q 89 1182 111 1203 q 38 1161 67 1161 q -15 1183 7 1161 q -36 1235 -36 1204 z "},"Ϋ":{"ha":793,"x_min":-3,"x_max":796,"o":"m 129 1047 l 396 579 l 664 1047 l 796 1047 l 453 460 l 453 0 l 339 0 l 339 460 l -3 1047 l 129 1047 m 460 1235 q 483 1288 460 1267 q 533 1308 506 1308 q 586 1287 564 1308 q 608 1235 608 1265 q 585 1182 608 1203 q 533 1161 563 1161 q 481 1182 503 1161 q 460 1235 460 1203 m 185 1235 q 208 1288 185 1267 q 258 1308 231 1308 q 310 1288 288 1308 q 332 1235 332 1267 q 310 1182 332 1203 q 258 1161 288 1161 q 206 1183 228 1161 q 185 1235 185 1204 z "},"α":{"ha":822,"x_min":51,"x_max":721,"o":"m 51 325 q 76 459 51 397 q 143 567 100 521 q 244 638 186 613 q 369 664 301 664 q 501 634 440 664 q 608 536 563 604 l 610 536 l 610 647 l 721 647 l 721 0 l 610 0 l 610 111 l 608 111 q 502 12 563 43 q 372 -19 442 -19 q 244 7 303 -19 q 142 80 185 33 q 76 190 100 126 q 51 325 51 253 m 164 325 q 180 227 164 272 q 226 149 196 182 q 297 99 256 117 q 389 81 339 81 q 481 99 439 81 q 553 149 522 117 q 601 226 583 182 q 618 324 618 271 q 601 420 618 376 q 553 497 583 464 q 481 547 522 529 q 389 565 439 565 q 299 547 340 565 q 227 496 257 528 q 181 419 197 464 q 164 325 164 375 z "},"β":{"ha":831,"x_min":100,"x_max":779,"o":"m 100 -333 l 100 818 q 124 961 100 899 q 190 1066 147 1024 q 292 1131 233 1108 q 419 1153 350 1153 q 548 1132 490 1153 q 647 1074 606 1111 q 711 987 689 1038 q 733 878 733 936 q 681 710 733 778 q 535 618 628 643 l 535 615 q 712 519 644 596 q 779 315 779 442 q 753 176 779 238 q 683 71 726 114 q 581 5 639 28 q 457 -18 522 -18 q 373 -6 411 -18 q 303 24 335 6 q 249 67 272 43 q 214 117 226 92 l 211 117 l 211 -333 l 100 -333 m 211 294 q 229 209 211 249 q 278 140 247 169 q 352 95 310 111 q 442 79 394 79 q 531 95 489 79 q 603 142 572 111 q 651 217 633 172 q 668 317 668 261 q 645 432 668 385 q 584 508 622 479 q 497 551 546 538 q 393 564 447 564 l 335 564 l 335 656 l 394 656 q 558 709 494 656 q 622 865 622 763 q 569 1004 622 951 q 419 1057 515 1057 q 269 999 328 1057 q 211 818 211 940 l 211 294 z "},"γ":{"ha":636,"x_min":-6,"x_max":642,"o":"m 117 647 l 318 168 l 518 647 l 642 647 l 374 47 l 375 -333 l 264 -333 l 264 40 l -6 647 l 117 647 z "},"δ":{"ha":793,"x_min":51,"x_max":743,"o":"m 51 325 q 78 463 51 400 q 149 569 104 525 q 254 638 193 614 q 383 663 315 663 q 497 633 447 663 q 457 683 478 660 q 408 739 436 706 l 136 1058 l 136 1139 l 726 1139 l 726 1035 l 290 1036 l 526 760 q 610 659 571 710 q 679 556 650 608 q 726 446 708 503 q 743 325 743 389 q 716 187 743 250 q 642 78 689 124 q 533 6 596 32 q 397 -19 469 -19 q 259 6 322 -19 q 150 78 196 32 q 78 187 104 124 q 51 325 51 250 m 163 325 q 180 226 163 271 q 228 149 197 182 q 302 99 258 117 q 397 81 346 81 q 491 99 449 81 q 565 149 533 117 q 613 226 596 182 q 631 325 631 271 q 613 422 631 378 q 565 497 596 465 q 490 547 533 529 q 397 565 447 565 q 301 547 344 565 q 227 497 258 529 q 179 420 196 464 q 163 325 163 376 z "},"ε":{"ha":611,"x_min":51,"x_max":544,"o":"m 51 175 q 95 287 51 244 q 206 346 139 329 q 120 396 157 357 q 83 493 83 435 q 103 568 83 536 q 156 622 122 600 q 236 654 190 643 q 335 665 282 665 q 518 633 442 665 l 518 531 q 438 563 485 551 q 335 575 392 575 q 229 551 267 575 q 192 481 192 528 q 206 435 192 454 q 242 405 219 417 q 293 388 264 393 q 351 382 322 382 l 432 382 l 432 296 l 343 296 q 213 269 265 296 q 161 188 161 243 q 209 101 161 129 q 340 72 257 72 q 456 90 404 72 q 544 136 508 108 l 544 26 q 450 -9 501 3 q 322 -21 399 -21 q 213 -8 263 -21 q 127 28 163 4 q 72 90 92 53 q 51 175 51 126 z "},"ζ":{"ha":621,"x_min":51,"x_max":621,"o":"m 51 340 q 67 456 51 403 q 111 561 83 510 q 178 666 139 613 q 265 779 218 719 l 468 1036 l 114 1035 l 114 1139 l 621 1139 l 621 1074 l 346 717 q 274 620 307 667 q 216 528 240 574 q 178 438 192 483 q 164 343 164 393 q 183 240 164 281 q 233 170 201 199 q 303 122 264 142 q 385 86 343 103 q 467 51 429 68 q 533 9 506 33 q 578 -50 561 -15 q 594 -136 594 -85 q 573 -246 594 -201 q 524 -324 551 -290 l 411 -324 q 464 -242 443 -281 q 485 -146 485 -203 q 471 -92 485 -114 q 433 -53 457 -69 q 377 -23 408 -36 q 311 3 346 -10 q 219 43 265 19 q 135 104 172 67 q 75 199 99 142 q 51 340 51 256 z "},"η":{"ha":725,"x_min":100,"x_max":635,"o":"m 100 647 l 211 647 l 211 550 l 214 550 q 293 637 244 606 q 418 668 342 668 q 580 601 525 668 q 635 408 635 535 l 635 -329 l 525 -329 l 525 392 q 489 531 525 488 q 383 574 453 574 q 256 520 300 574 q 211 354 211 467 l 211 0 l 100 0 l 100 647 z "},"θ":{"ha":808,"x_min":57,"x_max":751,"o":"m 404 1153 q 546 1120 482 1153 q 656 1017 610 1088 q 726 835 701 946 q 751 571 751 725 q 726 306 751 417 q 656 122 701 194 q 546 16 610 50 q 404 -18 482 -18 q 264 16 328 -18 q 154 122 200 50 q 83 306 108 194 q 57 571 57 417 q 83 835 57 725 q 154 1017 108 946 q 264 1120 200 1088 q 404 1153 328 1153 m 404 82 q 497 108 454 82 q 570 189 539 135 q 620 328 601 243 q 642 529 639 413 l 168 529 q 239 189 175 296 q 404 82 303 82 m 169 626 l 640 626 q 617 819 636 739 q 567 952 599 900 q 494 1028 536 1004 q 404 1053 453 1053 q 313 1028 354 1053 q 241 952 272 1004 q 192 819 210 900 q 169 626 174 739 z "},"ι":{"ha":342,"x_min":100,"x_max":319,"o":"m 211 647 l 211 156 q 264 86 211 86 q 292 90 281 86 q 319 100 304 93 l 319 4 q 276 -8 300 -3 q 222 -12 251 -12 q 131 25 163 -12 q 100 133 100 63 l 100 647 l 211 647 z "},"κ":{"ha":656,"x_min":100,"x_max":646,"o":"m 100 0 l 100 647 l 211 647 l 211 390 l 482 647 l 622 647 l 313 363 l 646 0 l 507 0 l 240 296 l 211 269 l 211 0 l 100 0 z "},"λ":{"ha":686,"x_min":8,"x_max":690,"o":"m 315 619 l 99 1139 l 221 1139 l 690 0 l 568 0 l 369 499 l 135 0 l 8 0 l 315 619 z "},"μ":{"ha":740,"x_min":100,"x_max":640,"o":"m 100 647 l 211 647 l 211 276 q 248 133 211 185 q 360 82 285 82 q 488 141 446 82 q 529 313 529 200 l 529 647 l 640 647 l 640 0 l 529 0 l 529 96 l 526 96 q 502 54 517 75 q 468 17 488 33 q 423 -8 449 1 q 365 -18 397 -18 q 267 13 303 -18 q 214 88 231 44 l 211 88 l 211 -364 l 100 -364 l 100 647 z "},"ν":{"ha":646,"x_min":3,"x_max":643,"o":"m 3 647 l 126 647 l 322 194 l 518 647 l 643 647 l 322 -36 l 319 -36 l 3 647 z "},"ξ":{"ha":618,"x_min":51,"x_max":604,"o":"m 51 325 q 69 428 51 379 q 121 517 88 478 q 200 585 154 557 q 301 625 246 613 q 225 660 260 638 q 165 716 190 683 q 125 789 139 749 q 111 875 111 829 q 133 985 111 935 q 197 1074 156 1036 q 295 1132 238 1111 q 422 1153 353 1153 q 521 1144 478 1153 q 604 1117 564 1135 l 604 1006 q 522 1042 568 1029 q 422 1056 475 1056 q 276 1002 331 1056 q 222 861 222 949 q 239 782 222 818 q 286 719 256 746 q 358 676 317 692 q 451 661 400 661 l 546 661 l 546 560 l 438 560 q 333 546 383 560 q 246 503 283 532 q 186 431 208 475 q 164 328 164 388 q 183 237 164 274 q 235 174 203 200 q 308 131 267 149 q 392 94 349 113 q 469 58 433 78 q 532 13 506 39 q 574 -49 558 -14 q 589 -135 589 -85 q 570 -239 589 -193 q 521 -324 551 -285 l 406 -324 q 460 -239 442 -279 q 478 -147 478 -199 q 465 -92 478 -115 q 428 -49 451 -68 q 372 -15 404 -31 q 301 15 340 0 q 217 53 261 32 q 135 110 172 75 q 75 197 99 146 q 51 325 51 249 z "},"ο":{"ha":788,"x_min":51,"x_max":736,"o":"m 51 326 q 76 458 51 396 q 147 565 101 519 q 255 638 192 611 q 393 665 318 665 q 531 639 468 665 q 640 567 594 613 q 710 458 685 521 q 736 324 736 396 q 711 188 736 251 q 640 79 686 125 q 531 7 594 33 q 392 -19 468 -19 q 254 7 317 -19 q 147 80 192 33 q 76 190 101 126 q 51 326 51 253 m 164 325 q 181 226 164 271 q 228 148 197 181 q 301 98 258 115 q 393 81 343 81 q 485 98 443 81 q 558 148 528 115 q 606 225 589 181 q 624 324 624 269 q 606 420 624 376 q 558 497 589 464 q 485 547 528 529 q 393 565 443 565 q 301 547 343 565 q 228 497 258 529 q 181 420 199 464 q 164 325 164 376 z "},"π":{"ha":788,"x_min":22,"x_max":765,"o":"m 22 647 l 765 647 l 765 543 l 632 543 l 632 164 q 685 86 632 86 q 715 90 703 86 q 742 100 726 93 l 742 4 q 698 -8 722 -3 q 644 -12 674 -12 q 553 27 583 -12 q 522 142 522 67 l 522 543 l 250 543 l 250 0 l 139 0 l 139 543 l 22 543 l 22 647 z "},"ρ":{"ha":813,"x_min":90,"x_max":763,"o":"m 90 324 q 115 463 90 400 q 183 572 139 526 q 287 642 226 617 q 419 667 347 667 q 556 642 493 667 q 664 572 618 617 q 736 465 710 528 q 763 325 763 401 q 738 188 763 251 q 672 79 714 125 q 570 8 629 33 q 442 -18 511 -18 q 291 22 351 -18 q 200 119 231 61 l 200 -333 l 90 -333 l 90 324 m 424 83 q 515 102 474 83 q 588 153 557 121 q 635 229 618 185 q 651 325 651 274 q 635 423 651 379 q 588 499 618 467 q 514 548 557 531 q 419 565 471 565 q 331 548 372 565 q 260 499 290 531 q 213 423 229 468 q 196 324 196 378 q 212 228 196 272 q 258 153 228 185 q 330 102 288 121 q 424 83 372 83 z "},"ς":{"ha":614,"x_min":51,"x_max":594,"o":"m 383 663 q 499 649 449 663 q 583 613 549 636 l 583 496 q 497 547 543 528 q 385 565 451 565 q 295 548 336 565 q 224 499 254 531 q 178 424 194 468 q 161 328 161 381 q 178 233 161 271 q 224 167 194 194 q 294 122 253 140 q 383 85 335 103 q 468 50 429 68 q 535 7 507 32 q 578 -53 563 -18 q 594 -139 594 -87 q 574 -244 594 -200 q 525 -324 553 -289 l 411 -324 q 463 -247 440 -287 q 485 -149 485 -206 q 473 -98 485 -119 q 439 -60 461 -76 q 384 -29 417 -43 q 311 -1 351 -15 q 216 39 263 15 q 133 101 169 63 q 74 194 96 139 q 51 328 51 250 q 76 466 51 404 q 146 572 101 528 q 251 639 190 615 q 383 663 311 663 z "},"σ":{"ha":847,"x_min":51,"x_max":825,"o":"m 51 318 q 78 454 51 393 q 153 558 106 515 q 266 625 201 601 q 406 649 331 649 l 825 649 l 825 544 l 649 544 l 649 542 q 717 434 696 486 q 738 311 738 382 q 712 180 738 240 q 641 75 686 119 q 534 6 596 31 q 399 -19 472 -19 q 260 6 324 -19 q 149 76 196 32 q 77 183 103 121 q 51 318 51 246 m 399 82 q 490 99 449 82 q 562 148 532 117 q 609 221 592 179 q 626 313 626 263 q 605 438 626 383 q 539 544 583 492 l 407 544 q 310 528 356 544 q 233 483 265 513 q 181 413 200 454 q 163 318 163 371 q 180 223 163 267 q 228 148 197 179 q 303 99 260 117 q 399 82 346 82 z "},"τ":{"ha":554,"x_min":22,"x_max":532,"o":"m 532 649 l 532 544 l 315 544 l 315 169 q 333 103 315 124 q 388 83 351 83 q 456 96 421 83 l 456 6 q 406 -6 435 -1 q 344 -11 376 -11 q 207 149 207 -11 l 207 544 l 22 544 l 22 649 l 532 649 z "},"υ":{"ha":703,"x_min":90,"x_max":614,"o":"m 90 647 l 201 647 l 201 272 q 236 130 201 178 q 351 82 271 82 q 467 131 431 82 q 503 272 503 181 l 503 647 l 614 647 l 614 268 q 598 150 614 203 q 549 60 582 97 q 467 2 517 22 q 351 -18 418 -18 q 158 53 225 -18 q 90 268 90 125 l 90 647 z "},"φ":{"ha":1008,"x_min":57,"x_max":958,"o":"m 57 329 q 127 540 57 453 q 332 658 197 626 l 346 561 q 208 471 250 529 q 167 329 167 413 q 233 155 167 219 q 453 81 300 90 l 453 647 l 601 647 q 734 628 669 647 q 849 570 799 610 q 928 471 899 531 q 958 328 958 411 q 930 190 958 251 q 849 84 901 128 q 724 15 797 40 q 561 -17 651 -11 l 561 -332 l 453 -332 l 453 -17 q 161 83 265 -6 q 57 329 57 172 m 561 81 q 778 156 708 92 q 847 328 847 221 q 829 426 847 385 q 778 496 811 468 q 701 538 746 524 q 601 551 656 551 l 561 551 l 561 81 z "},"χ":{"ha":681,"x_min":10,"x_max":672,"o":"m 271 190 l 42 649 l 164 649 l 339 264 l 524 649 l 646 649 l 406 189 l 672 -332 l 549 -332 l 338 110 l 133 -332 l 10 -332 l 271 190 z "},"ψ":{"ha":1017,"x_min":90,"x_max":926,"o":"m 90 372 l 90 649 l 200 649 l 200 386 q 265 168 200 243 q 456 81 329 93 l 456 967 l 560 967 l 560 81 q 753 171 692 93 q 815 386 815 249 l 815 649 l 926 649 l 926 372 q 904 219 926 288 q 837 99 882 150 q 723 18 792 49 q 560 -19 654 -12 l 560 -332 l 456 -332 l 456 -19 q 181 97 271 -6 q 90 372 90 199 z "},"ω":{"ha":1035,"x_min":51,"x_max":985,"o":"m 306 661 l 344 563 q 205 445 249 518 q 161 288 161 372 q 174 196 161 235 q 209 132 188 157 q 259 94 231 107 q 318 82 288 82 q 382 97 354 82 q 428 137 410 111 q 455 196 446 163 q 464 267 464 229 l 464 407 l 571 407 l 571 267 q 580 196 571 229 q 607 137 589 163 q 653 97 625 111 q 717 82 681 82 q 776 94 747 82 q 826 132 804 107 q 860 196 847 157 q 874 288 874 235 q 829 445 874 372 q 686 563 785 518 l 728 661 q 919 506 854 607 q 985 283 985 404 q 963 145 985 203 q 906 51 942 88 q 825 -2 871 15 q 732 -19 779 -19 q 596 22 651 -19 q 518 133 540 64 q 439 22 494 64 q 303 -19 383 -19 q 210 -2 256 -19 q 130 51 165 15 q 73 145 94 88 q 51 283 51 203 q 115 506 51 404 q 306 661 179 607 z "},"ί":{"ha":342,"x_min":100,"x_max":319,"o":"m 211 647 l 211 156 q 264 86 211 86 q 292 90 281 86 q 319 100 304 93 l 319 4 q 276 -8 300 -3 q 222 -12 251 -12 q 131 25 163 -12 q 100 133 100 63 l 100 647 l 211 647 m 171 1042 l 290 1042 l 181 768 l 110 768 l 171 1042 z "},"ϊ":{"ha":342,"x_min":-49,"x_max":375,"o":"m 211 647 l 211 156 q 264 86 211 86 q 292 90 281 86 q 319 100 304 93 l 319 4 q 276 -8 300 -3 q 222 -12 251 -12 q 131 25 163 -12 q 100 133 100 63 l 100 647 l 211 647 m 226 893 q 249 946 226 925 q 300 967 272 967 q 353 945 331 967 q 375 893 375 924 q 352 840 375 861 q 300 819 329 819 q 248 840 269 819 q 226 893 226 861 m -49 893 q -26 946 -49 925 q 25 967 -3 967 q 76 946 54 967 q 99 893 99 925 q 76 840 99 861 q 25 819 54 819 q -27 841 -6 819 q -49 893 -49 863 z "},"ΐ":{"ha":342,"x_min":-57,"x_max":394,"o":"m 100 647 l 211 647 l 211 156 q 264 86 211 86 q 292 90 281 86 q 319 100 304 93 l 319 4 q 276 -8 300 -3 q 222 -12 251 -12 q 131 25 163 -12 q 100 133 100 63 l 100 647 m 151 1049 l 253 1049 l 176 790 l 118 790 l 151 1049 m -57 874 q -37 922 -57 903 q 13 942 -17 942 q 61 922 40 942 q 82 874 82 903 q 61 824 82 843 q 13 806 40 806 q -36 824 -15 806 q -57 874 -57 843 m 256 874 q 276 922 256 903 q 325 942 297 942 q 374 922 353 942 q 394 874 394 903 q 374 824 394 843 q 325 806 353 806 q 274 826 293 806 q 256 874 256 847 z "},"ύ":{"ha":703,"x_min":90,"x_max":614,"o":"m 201 647 l 201 272 q 236 130 201 178 q 351 82 271 82 q 467 131 431 82 q 503 272 503 181 l 503 647 l 614 647 l 614 268 q 598 150 614 203 q 549 60 582 97 q 467 2 517 22 q 351 -18 418 -18 q 158 53 225 -18 q 90 268 90 125 l 90 647 l 201 647 m 300 768 l 361 1042 l 481 1042 l 371 768 l 300 768 z "},"ϋ":{"ha":703,"x_min":90,"x_max":614,"o":"m 90 647 l 201 647 l 201 272 q 236 130 201 178 q 351 82 271 82 q 467 131 431 82 q 503 272 503 181 l 503 647 l 614 647 l 614 268 q 598 150 614 203 q 549 60 582 97 q 467 2 517 22 q 351 -18 418 -18 q 158 53 225 -18 q 90 268 90 125 l 90 647 m 489 967 q 542 945 519 967 q 564 893 564 924 q 541 840 564 861 q 489 819 518 819 q 437 840 458 819 q 415 893 415 861 q 438 946 415 925 q 489 967 461 967 m 214 967 q 265 946 243 967 q 288 893 288 925 q 265 840 288 861 q 214 819 243 819 q 162 841 183 819 q 140 893 140 863 q 163 946 140 925 q 214 967 186 967 z "},"ΰ":{"ha":703,"x_min":90,"x_max":614,"o":"m 90 647 l 201 647 l 201 272 q 236 130 201 178 q 351 82 271 82 q 467 131 431 82 q 503 272 503 181 l 503 647 l 614 647 l 614 268 q 598 150 614 203 q 549 60 582 97 q 467 2 517 22 q 351 -18 418 -18 q 158 53 225 -18 q 90 268 90 125 l 90 647 m 307 790 l 340 1049 l 442 1049 l 365 790 l 307 790 m 444 874 q 465 922 444 903 q 514 942 486 942 q 563 922 542 942 q 583 874 583 903 q 563 824 583 843 q 514 806 542 806 q 463 826 482 806 q 444 874 444 847 m 132 874 q 153 922 132 903 q 201 942 174 942 q 250 922 229 942 q 271 874 271 903 q 250 824 271 843 q 201 806 229 806 q 153 824 174 806 q 132 874 132 843 z "},"ό":{"ha":788,"x_min":51,"x_max":736,"o":"m 51 326 q 76 458 51 396 q 147 565 101 519 q 255 638 192 611 q 393 665 318 665 q 531 639 468 665 q 640 567 594 613 q 710 458 685 521 q 736 324 736 396 q 711 188 736 251 q 640 79 686 125 q 531 7 594 33 q 392 -19 468 -19 q 254 7 317 -19 q 147 80 192 33 q 76 190 101 126 q 51 326 51 253 m 393 81 q 485 98 443 81 q 558 148 528 115 q 606 225 589 181 q 624 324 624 269 q 606 420 624 376 q 558 497 589 464 q 485 547 528 529 q 393 565 443 565 q 301 547 343 565 q 228 497 258 529 q 181 420 199 464 q 164 325 164 376 q 181 226 164 271 q 228 148 197 181 q 301 98 258 115 q 393 81 343 81 m 403 1042 l 522 1042 l 413 768 l 342 768 l 403 1042 z "}}}
